<?xml version="1.0" encoding="UTF-8" standalone="no"?>
<svg
   xmlns:dc="http://purl.org/dc/elements/1.1/"
   xmlns:cc="http://creativecommons.org/ns#"
   xmlns:rdf="http://www.w3.org/1999/02/22-rdf-syntax-ns#"
   xmlns:svg="http://www.w3.org/2000/svg"
   xmlns="http://www.w3.org/2000/svg"
   xmlns:sodipodi="http://sodipodi.sourceforge.net/DTD/sodipodi-0.dtd"
   xmlns:inkscape="http://www.inkscape.org/namespaces/inkscape"
   inkscape:version="1.0.2 (e86c870879, 2021-01-15)"
   sodipodi:docname="agria_logo4.svg"
   viewBox="0 0 929.26806 285.54223"
   height="285.54224"
   width="929.26807"
   version="1.1"
   id="svg">
  <metadata
     id="metadata9">
    <rdf:RDF>
      <cc:Work
         rdf:about="">
        <dc:format>image/svg+xml</dc:format>
        <dc:type
           rdf:resource="http://purl.org/dc/dcmitype/StillImage" />
        <dc:title />
      </cc:Work>
    </rdf:RDF>
  </metadata>
  <defs
     id="defs7" />
  <sodipodi:namedview
     inkscape:document-rotation="0"
     inkscape:current-layer="svg"
     inkscape:window-maximized="1"
     inkscape:window-y="22"
     inkscape:window-x="0"
     inkscape:cy="215.17503"
     inkscape:cx="381.64699"
     inkscape:zoom="1.497216"
     fit-margin-bottom="0"
     fit-margin-right="0"
     fit-margin-left="0"
     fit-margin-top="0"
     showgrid="false"
     id="namedview5"
     inkscape:window-height="1030"
     inkscape:window-width="1920"
     inkscape:pageshadow="2"
     inkscape:pageopacity="0"
     guidetolerance="10"
     gridtolerance="10"
     objecttolerance="10"
     borderopacity="1"
     bordercolor="#666666"
     pagecolor="#ffffff" />
  <g
     style="fill:#000000"
     transform="translate(-64.66983,-14.220028)"
     id="svgg">
    <path
       sodipodi:nodetypes="ccccccsccccccscccccccscccsccccccccccccccccccccsc"
       style="fill:#000000;fill-rule:evenodd;stroke:none"
       inkscape:connector-curvature="0"
       d="M 179.167,16.087 C 150.36,26.911 148.43,69.967 176.149,83.385 208.56,99.075 242.046,64.108 224.502,32.892 216.38,18.441 194.492,10.328 179.167,16.087 m 26.051,20.192 c 16.21,16.209 -0.257,41.472 -20.901,32.065 -6.125,-2.79 -11.4,-11.499 -11.4,-18.819 0,-15.27 21.472,-24.076 32.301,-13.246 m 63.906,35.975 c -20.505,10.104 -25.711,38.559 -10.272,56.143 23.188,26.41 64.166,10.613 64.03,-24.684 C 322.783,77.844 293.068,60.455 269.124,72.254 M 82.98,74.939 c -32.326,17.569 -19.027,68.811 17.859,68.811 34.979,0 50.113,-46.704 21.693,-66.941 C 113.114,70.104 93.577,69.18 82.98,74.939 M 298.6,89.674 c 11.368,8.942 8.326,28.337 -5.184,33.047 -19.923,6.945 -35.414,-16.46 -20.66,-31.215 7.418,-7.417 17.807,-8.154 25.844,-1.832 m -185.499,2.018 c 11.125,8.751 8.975,26.1 -3.998,32.256 -19.685,9.341 -37.129,-14.992 -21.763,-30.358 7.385,-7.386 17.808,-8.154 25.761,-1.898 m 157.379,83.247 c -32.326,17.569 -19.027,68.811 17.859,68.811 34.979,0 50.113,-46.704 21.693,-66.941 -9.418,-6.705 -28.955,-7.629 -39.552,-1.87 m -184.689,3.565 c -20.505,10.104 -25.711,38.559 -10.273,56.143 23.189,26.41 64.167,10.613 64.031,-24.684 -0.099,-25.869 -29.815,-43.258 -53.758,-31.459 m 214.81,13.188 c 17.127,13.472 1.425,40.238 -19.356,32.994 -12.842,-4.477 -16.289,-21.212 -6.405,-31.096 7.385,-7.386 17.808,-8.154 25.761,-1.898 m -185.334,4.232 c 11.368,8.942 8.325,28.337 -5.185,33.047 -19.922,6.945 -35.413,-16.46 -20.659,-31.215 7.418,-7.417 17.807,-8.154 25.844,-1.832 m 68.066,32.663 c -28.806,10.824 -30.737,53.88 -3.018,67.298 32.412,15.69 65.897,-19.277 48.353,-50.493 -8.121,-14.451 -30.009,-22.564 -45.335,-16.805 m 26.052,20.192 c 10.002,10.002 8.37,25.48 -3.325,31.528 -20.005,10.345 -38.748,-14.606 -22.887,-30.467 7.919,-7.919 18.91,-8.364 26.212,-1.061"
       id="path0" />
  </g>
  <g
     style="font-style:normal;font-weight:normal;font-size:40px;line-height:0;font-family:sans-serif;letter-spacing:0px;word-spacing:0px;fill:#000000;fill-opacity:1;stroke:none"
     id="text3716"
     aria-label="acria. network">
    <path
       id="path11"
       style="font-style:normal;font-variant:normal;font-weight:bold;font-stretch:normal;font-size:160px;line-height:1;font-family:Santana;-inkscape-font-specification:'Santana Bold';fill:#000000"
       d="m 385.10918,117.47205 q 1.12,0 0.8,-1.12 -0.8,-3.52 -1.44,-8.48 -0.64,-4.96 -0.64,-10.079996 v -26.72 q 0,-6.24 -1.6,-12.32 -1.44,-6.08 -5.44,-10.72 -3.84,-4.8 -10.4,-7.68 -6.56,-3.04 -16.64,-3.04 -3.68,0 -7.04,0.32 -3.2,0.32 -6.08,0.8 -0.8,0.32 -0.8,1.12 0,0.32 0.32,2.72 0.48,2.4 0.96,5.6 0.64,3.2 0.8,4.32 0,1.12 1.12,0.8 1.92,-0.32 3.84,-0.48 2.08,-0.32 3.84,-0.32 5.76,0 9.12,1.6 3.36,1.44 4.96,3.68 1.76,2.08 2.24,4.48 0.48,2.4 0.48,3.84 v 0.16 q -24.48,0 -37.12,7.68 -12.48,7.52 -12.48,22.24 0,3.52 1.12,7.199996 1.28,3.52 3.52,6.56 2.4,3.04 5.76,5.28 3.36,2.24 7.84,3.04 2.72,0.48 5.12,0.8 2.4,0.32 4.64,0.32 4.48,0 9.44,-1.6 3.52,-1.12 6.88,-3.68 3.52,-2.72 5.76,-4.48 l 0.96,-0.96 2.72,9.92 q 0.32,0.8 1.12,0.8 z m -21.12,-28.319996 q 0,2.08 -0.64,4 -1.6,4 -6.08,7.519996 -4.48,3.52 -11.2,3.52 -5.12,0 -8.32,-2.56 -3.2,-2.719996 -3.2,-7.839996 0,-4 2.4,-6.72 2.4,-2.72 6.4,-4.32 4,-1.6 9.28,-2.24 5.44,-0.64 11.36,-0.64 z" />
    <path
       id="path13"
       style="font-style:normal;font-variant:normal;font-weight:bold;font-stretch:normal;font-size:160px;line-height:1;font-family:Santana;-inkscape-font-specification:'Santana Bold';fill:#000000"
       d="m 446.70911,37.312054 q -10.88,0 -19.52,3.2 -8.64,3.2 -14.56,8.96 -5.92,5.6 -9.12,13.28 -3.04,7.68 -3.04,16.48 0,8.96 3.04,16.32 3.04,7.359996 8.64,12.639996 5.6,5.28 13.44,8.32 8,2.88 17.92,2.88 8.64,0 15.2,-1.6 6.56,-1.6 9.76,-3.2 0.8,-0.32 0.48,-0.96 l -2.72,-13.6 q -0.32,-1.119996 -1.28,-0.799996 -3.2,1.279996 -7.52,2.559996 -4.32,1.12 -10.24,1.12 -5.44,0 -10.24,-1.6 -4.64,-1.759996 -8.16,-4.959996 -3.52,-3.2 -5.6,-7.68 -1.92,-4.64 -1.92,-10.56 0,-5.28 1.76,-9.76 1.76,-4.48 5.12,-7.84 3.36,-3.36 8.16,-5.12 4.96,-1.92 11.04,-1.92 6.08,0 10.08,1.12 4,0.96 6.72,2.24 1.12,0.48 1.44,-0.48 l 3.52,-13.92 q 0.16,-0.48 -0.64,-0.96 -3.68,-1.76 -9.6,-2.88 -5.76,-1.28 -12.16,-1.28 z" />
    <path
       id="path15"
       style="font-style:normal;font-variant:normal;font-weight:bold;font-stretch:normal;font-size:160px;line-height:1;font-family:Santana;-inkscape-font-specification:'Santana Bold';fill:#000000"
       d="m 531.18894,56.032054 v -17.44 q 0,-0.64 -0.64,-0.8 -1.28,-0.32 -2.4,-0.32 -0.96,-0.16 -2.56,-0.16 -6.24,0 -12.32,3.52 -6.08,3.52 -9.76,10.72 l -0.8,-11.52 q 0,-0.96 -0.96,-0.96 h -16.32 q -0.96,0 -0.96,0.96 0.32,5.44 0.48,11.52 0.16,5.92 0.16,14.08 v 50.879996 q 0,0.96 0.96,0.96 h 18.72 q 0.96,0 0.96,-0.96 V 76.832054 q 0,-1.12 0,-2.56 0.16,-1.6 0.48,-2.88 1.6,-6.4 6.08,-10.72 4.64,-4.32 11.84,-4.32 3.2,0 5.92,0.48 z" />
    <path
       id="path17"
       style="font-style:normal;font-variant:normal;font-weight:bold;font-stretch:normal;font-size:160px;line-height:1;font-family:Santana;-inkscape-font-specification:'Santana Bold';fill:#000000"
       d="m 564.78885,117.47205 q 0.96,0 0.96,-0.96 V 40.032054 q 0,-0.96 -0.96,-0.96 h -18.72 q -0.96,0 -0.96,0.96 v 76.479996 q 0,0.96 0.96,0.96 z m 2.88,-100.479996 q -0.16,-4.8 -3.36,-8.1600005 -3.2,-3.36 -8.8,-3.36 -5.6,0 -8.96,3.52 -3.2,3.3600005 -3.2,8.0000005 0,4.64 3.2,8.16 3.2,3.36 8.8,3.36 5.76,0 8.96,-3.36 3.36,-3.52 3.36,-8.16 z" />
    <path
       id="path19"
       style="font-style:normal;font-variant:normal;font-weight:bold;font-stretch:normal;font-size:160px;line-height:1;font-family:Santana;-inkscape-font-specification:'Santana Bold';fill:#000000"
       d="m 653.42857,117.47205 q 1.12,0 0.8,-1.12 -0.8,-3.52 -1.44,-8.48 -0.64,-4.96 -0.64,-10.079996 v -26.72 q 0,-6.24 -1.6,-12.32 -1.44,-6.08 -5.44,-10.72 -3.84,-4.8 -10.4,-7.68 -6.56,-3.04 -16.64,-3.04 -3.68,0 -7.04,0.32 -3.2,0.32 -6.08,0.8 -0.8,0.32 -0.8,1.12 0,0.32 0.32,2.72 0.48,2.4 0.96,5.6 0.64,3.2 0.8,4.32 0,1.12 1.12,0.8 1.92,-0.32 3.84,-0.48 2.08,-0.32 3.84,-0.32 5.76,0 9.12,1.6 3.36,1.44 4.96,3.68 1.76,2.08 2.24,4.48 0.48,2.4 0.48,3.84 v 0.16 q -24.48,0 -37.12,7.68 -12.48,7.52 -12.48,22.24 0,3.52 1.12,7.199996 1.28,3.52 3.52,6.56 2.4,3.04 5.76,5.28 3.36,2.24 7.84,3.04 2.72,0.48 5.12,0.8 2.4,0.32 4.64,0.32 4.48,0 9.44,-1.6 3.52,-1.12 6.88,-3.68 3.52,-2.72 5.76,-4.48 l 0.96,-0.96 2.72,9.92 q 0.32,0.8 1.12,0.8 z m -21.12,-28.319996 q 0,2.08 -0.64,4 -1.6,4 -6.08,7.519996 -4.48,3.52 -11.2,3.52 -5.12,0 -8.32,-2.56 -3.2,-2.719996 -3.2,-7.839996 0,-4 2.4,-6.72 2.4,-2.72 6.4,-4.32 4,-1.6 9.28,-2.24 5.44,-0.64 11.36,-0.64 z" />
    <path
       id="path21"
       style="font-style:normal;font-variant:normal;font-weight:bold;font-stretch:normal;font-size:160px;line-height:1;font-family:Santana;-inkscape-font-specification:'Santana Bold';fill:#000000"
       d="m 676.9485,119.39205 q 5.76,0 9.28,-3.68 3.52,-3.84 3.52,-9.28 0,-5.76 -3.52,-9.279996 -3.52,-3.68 -9.28,-3.68 -5.76,0 -9.28,3.68 -3.52,3.519996 -3.52,9.279996 0,5.44 3.52,9.28 3.52,3.68 9.28,3.68 z" />
    <path
       id="path23"
       style="font-style:normal;font-variant:normal;font-weight:bold;font-stretch:normal;font-size:160px;line-height:1;font-family:Santana;-inkscape-font-specification:'Santana Bold';fill:#000000"
       d="m 399.66918,277.47205 q 1.28,-0.32 0.64,-1.44 -0.16,-0.32 -1.28,-2.56 -0.96,-2.24 -2.24,-5.92 -1.12,-3.68 -1.12,-6.56 v -28.16 q 0,-10.4 -3.04,-17.28 -2.88,-6.88 -7.36,-10.88 -4.48,-4.16 -9.92,-5.76 -5.44,-1.6 -10.4,-1.6 -4.8,0 -8.96,1.12 -4,1.12 -7.36,3.04 -3.2,1.76 -5.76,4 -2.56,2.24 -4.16,4.48 l -1.12,-10.08 q 0,-0.8 -0.96,-0.8 h -16.32 q -0.96,0 -0.96,0.96 0.32,5.12 0.48,10.72 0.16,5.44 0.16,11.84 v 53.92 q 0,0.96 0.96,0.96 h 18.72 q 0.96,0 0.96,-0.96 v -44.48 q 0,-1.44 0.16,-2.88 0.32,-1.6 0.8,-2.88 1.76,-4.48 6.08,-8.16 4.32,-3.84 10.88,-3.84 8.8,0 12.64,5.92 3.84,5.76 3.84,14.72 v 26.08 q 0,5.76 1.28,10.4 1.28,4.48 2.4,6.4 1.12,2.08 1.28,2.4 0.16,0.48 0.96,0.48 z" />
    <path
       id="path25"
       style="font-style:normal;font-variant:normal;font-weight:bold;font-stretch:normal;font-size:160px;line-height:1;font-family:Santana;-inkscape-font-specification:'Santana Bold';fill:#000000"
       d="m 489.90892,235.71205 q 0,-5.6 -1.76,-12.32 -1.6,-6.72 -5.76,-12.48 -4.16,-5.76 -11.2,-9.6 -7.04,-4 -17.76,-4 -10.24,0 -17.92,3.68 -7.68,3.52 -12.8,9.6 -5.12,5.92 -7.68,13.6 -2.56,7.52 -2.56,15.36 0,8.96 2.88,16.32 2.88,7.36 8.32,12.64 5.6,5.12 13.6,8 8,2.88 18.08,2.88 3.68,0 7.2,-0.16 3.68,-0.16 7.04,-0.96 0.8,-0.32 0.8,-1.12 l -2.08,-13.6 q 0,-0.64 -1.12,-0.64 -4.32,0.48 -9.44,0.48 -4.64,0 -8.96,-1.44 -4.32,-1.44 -7.84,-3.84 -3.36,-2.56 -5.76,-6.08 -2.4,-3.52 -3.04,-7.84 h 56.16 q 0.64,0 0.96,-0.8 0.32,-1.12 0.48,-3.04 0.16,-2.08 0.16,-4.64 z m -37.6,-24 q 5.44,0 8.8,1.92 3.52,1.92 5.44,4.8 2.08,2.72 2.88,5.76 0.8,3.04 0.96,5.12 h -38.08 q 0.48,-2.88 1.76,-5.92 1.28,-3.2 3.68,-5.76 2.4,-2.56 5.92,-4.16 3.68,-1.76 8.64,-1.76 z" />
    <path
       id="path27"
       style="font-style:normal;font-variant:normal;font-weight:bold;font-stretch:normal;font-size:160px;line-height:1;font-family:Santana;-inkscape-font-specification:'Santana Bold';fill:#000000"
       d="m 497.26875,200.03205 q -0.16,0.16 -0.16,1.76 0,1.44 0,1.76 v 10.88 q 0,0.32 0.32,0.48 0.32,0.16 0.64,0.16 h 11.52 v 35.36 q 0,7.2 1.6,12.8 1.6,5.6 4.96,9.28 2.72,3.04 7.2,4.96 4.64,1.92 10.56,1.92 4.8,0 8.64,-0.64 4,-0.64 6.24,-1.6 0.64,-0.32 0.64,-0.96 l -0.48,-14.08 q 0,-1.28 -1.28,-0.96 -1.76,0.64 -3.52,0.96 -1.76,0.16 -4.64,0.16 -5.76,0 -7.84,-3.84 -1.92,-3.84 -1.92,-10.4 v -32.96 h 18.4 q 0.96,0 0.96,-0.96 l 0.8,-14.08 q 0,-0.96 -0.96,-0.96 h -19.2 v -18.56 q 0,-1.28 -1.28,-0.96 l -18.24,5.12 q -0.64,0.32 -0.64,0.96 v 13.44 h -9.12 q -0.32,0 -0.64,0.32 z" />
    <path
       id="path29"
       style="font-style:normal;font-variant:normal;font-weight:bold;font-stretch:normal;font-size:160px;line-height:1;font-family:Santana;-inkscape-font-specification:'Santana Bold';fill:#000000"
       d="m 679.50845,200.35205 q 0.32,-1.28 -0.8,-1.28 h -18.4 q -0.48,0 -0.8,0.64 l -10.08,35.2 q -1.44,4.96 -2.88,10.72 -1.28,5.76 -2.24,10.56 -0.8,-3.04 -1.44,-5.44 -0.64,-2.4 -1.44,-4.8 -0.64,-2.4 -1.44,-4.96 -0.64,-2.72 -1.76,-6.08 l -11.04,-35.2 q -0.32,-0.64 -0.96,-0.64 h -15.36 q -0.64,0 -0.96,0.64 -2.72,8.64 -5.92,17.92 -3.04,9.28 -5.76,17.92 -0.16,0.32 -0.32,0.8 0,0.48 -0.16,0.8 -1.6,5.12 -3.04,9.6 -1.28,4.48 -2.56,9.76 -0.8,-3.04 -1.44,-5.6 -0.48,-2.56 -0.96,-4.8 -0.48,-2.4 -1.12,-4.8 -0.64,-2.56 -1.44,-5.76 l -9.44,-35.84 q -0.32,-0.64 -0.96,-0.64 h -18.88 q -1.12,0 -0.8,1.28 l 24,76.48 q 0.32,0.64 0.96,0.64 h 17.76 q 0.64,0 0.96,-0.64 l 11.2,-32.48 q 1.76,-5.12 3.04,-9.92 1.28,-4.8 2.56,-11.04 0.96,3.36 1.6,6.08 0.64,2.56 1.28,4.96 0.64,2.24 1.44,4.64 0.8,2.4 1.76,5.44 l 10.56,32.32 q 0.32,0.64 0.96,0.64 h 17.76 q 0.64,0 0.96,-0.64 z" />
    <path
       id="path31"
       style="font-style:normal;font-variant:normal;font-weight:bold;font-stretch:normal;font-size:160px;line-height:1;font-family:Santana;-inkscape-font-specification:'Santana Bold';fill:#000000"
       d="m 774.0682,237.31205 q 0,-8.48 -3.04,-15.84 -3.04,-7.36 -8.64,-12.64 -5.44,-5.44 -13.28,-8.48 -7.84,-3.04 -17.44,-3.04 -9.76,0 -17.92,3.04 -8,2.88 -13.76,8.48 -5.76,5.44 -8.96,13.12 -3.2,7.68 -3.2,17.12 0,9.12 3.2,16.64 3.36,7.36 9.12,12.64 5.76,5.28 13.44,8.16 7.84,2.88 16.8,2.88 8.32,0 16.16,-2.56 7.84,-2.72 13.92,-8 6.08,-5.28 9.76,-13.12 3.84,-7.84 3.84,-18.4 z m -21.28,0.8 q 0,6.24 -1.76,11.04 -1.76,4.8 -4.8,8.16 -2.88,3.36 -7.04,5.12 -4,1.6 -8.64,1.6 -4.64,0 -8.64,-1.76 -4,-1.92 -7.04,-5.28 -2.88,-3.36 -4.64,-8 -1.6,-4.8 -1.6,-10.56 0,-4.96 1.28,-9.6 1.44,-4.8 4.16,-8.32 2.88,-3.68 7.04,-5.76 4.16,-2.24 9.92,-2.24 5.76,0 9.76,2.4 4.16,2.24 6.72,5.92 2.72,3.52 4,8.16 1.28,4.64 1.28,9.12 z m -20.96,-7.84 q -3.04,0 -5.12,2.08 -1.92,2.08 -1.92,4.96 0,3.04 1.92,5.12 2.08,2.08 5.12,2.08 2.88,0 4.96,-2.08 2.08,-2.08 2.08,-5.12 0,-2.88 -2.08,-4.96 -2.08,-2.08 -4.96,-2.08 z" />
    <path
       id="path33"
       style="font-style:normal;font-variant:normal;font-weight:bold;font-stretch:normal;font-size:160px;line-height:1;font-family:Santana;-inkscape-font-specification:'Santana Bold';fill:#000000"
       d="m 837.10812,216.03205 v -17.44 q 0,-0.64 -0.64,-0.8 -1.27999,-0.32 -2.4,-0.32 -0.96,-0.16 -2.56,-0.16 -6.23999,0 -12.31999,3.52 -6.08001,3.52 -9.76,10.72 l -0.80001,-11.52 q 0,-0.96 -0.95999,-0.96 h -16.32001 q -0.96,0 -0.96,0.96 0.32,5.44 0.48,11.52 0.16001,5.92 0.16001,14.08 v 50.88 q 0,0.96 0.95999,0.96 h 18.72 q 0.96001,0 0.96001,-0.96 v -39.68 q 0,-1.12 0,-2.56 0.15999,-1.6 0.48,-2.88 1.59999,-6.4 6.07999,-10.72 4.64,-4.32 11.84,-4.32 3.20001,0 5.92,0.48 z" />
    <path
       id="path35"
       style="font-style:normal;font-variant:normal;font-weight:bold;font-stretch:normal;font-size:160px;line-height:1;font-family:Santana;-inkscape-font-specification:'Santana Bold';fill:#000000"
       d="m 928.30804,277.47205 q 0.64,0 0.8,-0.48 0.32,-0.64 0,-1.12 -9.12,-11.2 -18.24,-22.4 -8.96,-11.2 -17.92,-22.4 l 31.04,-30.4 q 0.48,-0.48 0.32,-0.96 -0.16,-0.64 -0.96,-0.64 h -23.04 q -0.48,0 -0.8,0.32 -5.44,6.24 -10.88,12.64 -5.44,6.24 -11.04,12.48 h 0.16 q -1.28,1.28 -2.72,3.04 -1.28,1.76 -2.56,3.36 l -0.32,-67.04 q 0,-0.96 -0.96,-0.96 h -18.72 q -0.96,0 -0.96,0.96 v 112.64 q 0,0.96 0.96,0.96 h 18.72 q 0.96,0 0.96,-0.96 v -26.24 q 1.76,-1.76 3.2,-3.52 1.6,-1.92 3.2,-3.52 l 26.24,35.52 q 0.32,0.32 0.8,0.32 z" />
  </g>
  <path
     style="fill:#ffffff;stroke:#ffffff;stroke-width:0.667906"
     d="M 28.65851,128.30273 C 15.624586,125.48018 5.2827263,115.15903 1.5986049,101.29701 0.46941302,97.048262 0.32749081,87.621427 1.3273883,83.282107 3.3373494,74.55935 10.808516,64.982089 18.670253,61.050351 c 10.617667,-5.310007 27.520395,-4.830553 37.582165,1.066037 3.733908,2.188216 10.046953,8.988332 12.089792,13.022552 5.74732,11.349885 4.877332,26.37011 -2.156456,37.23089 -5.422423,8.37269 -15.008153,14.83005 -24.169118,16.28137 -5.53915,0.87753 -7.992195,0.81354 -13.358126,-0.34847 z m 14.266199,-17.67731 c 8.040018,-3.00816 12.712968,-9.72701 12.759022,-18.345149 0.03079,-5.762241 -2.325288,-11.119556 -6.438704,-14.640487 -5.499246,-4.707149 -14.690491,-5.870931 -21.108463,-2.67272 -12.439821,6.199024 -15.364729,21.884792 -5.854243,31.395276 5.533108,5.53311 13.081436,7.092 20.642388,4.26308 z"
     id="path22" />
  <path
     style="fill:#ffffff;stroke:#ffffff;stroke-width:0.667906"
     d="M 33.565409,232.8409 C 13.232589,229.26877 -0.58890155,210.14147 2.8652612,190.35556 5.3872561,175.90922 15.984089,164.65274 29.82249,161.72026 c 5.713021,-1.21065 9.342329,-1.20683 15.113495,0.0159 18.149358,3.84522 31.12461,20.33142 29.442381,37.40915 -1.517009,15.40041 -10.596587,27.40751 -24.2787,32.10686 -5.232662,1.79724 -11.771291,2.42554 -16.534257,1.58876 z m 11.53173,-17.65082 c 4.436962,-1.31764 8.450308,-4.88847 10.729056,-9.54606 3.720764,-7.60497 1.972159,-17.91031 -3.946282,-23.25726 -4.07442,-3.681 -7.390325,-4.91676 -13.238646,-4.93377 -6.299252,-0.0183 -10.598533,1.91882 -14.915768,6.72063 -11.27021,12.53518 -2.618398,31.84036 14.32945,31.97395 2.045579,0.0161 5.214565,-0.41475 7.04219,-0.95749 z"
     id="path24" />
  <path
     style="fill:#ffffff;stroke:#ffffff;stroke-width:0.667906"
     d="M 119.25662,71.519078 C 99.86694,66.825313 88.319599,46.867226 93.430826,26.882519 96.124518,16.350284 102.49034,8.3253303 111.81773,3.7034273 c 4.75813,-2.3577465 6.28173,-2.77820888 11.17294,-3.08336065 14.99828,-0.93570991 31.01883,7.52554545 37.11521,19.60240835 7.32557,14.511884 4.80784,29.684027 -6.86254,41.354409 -9.4446,9.444597 -21.48828,12.967756 -33.98672,9.942194 z m 17.5058,-16.926076 c 6.56071,-3.34702 10.32871,-9.655562 10.40173,-17.415001 0.0556,-5.911403 -1.87102,-10.763394 -5.90062,-14.859859 -3.56819,-3.627398 -6.0702,-4.696555 -11.75117,-5.021512 -19.17235,-1.09668 -28.3268,18.859437 -15.13411,32.991405 4.43354,4.74919 8.74984,6.445711 15.24178,5.99078 2.61566,-0.183295 5.55894,-0.877995 7.14239,-1.685813 z"
     id="path26" />
  <path
     style="fill:#ffffff;stroke:#ffffff;stroke-width:0.667906"
     d="m 122.91595,283.91753 c -13.08547,-3.51949 -22.962083,-14.00604 -25.797631,-27.39079 -1.235529,-5.83212 -1.233597,-9.42176 0.0082,-15.2842 2.887511,-13.63149 12.406701,-24.17199 24.728241,-27.38134 14.33065,-3.73266 33.59482,4.14606 41.30719,16.89396 3.73018,6.16566 5.30084,12.42852 4.93906,19.69398 -0.37267,7.48407 -2.04713,12.46648 -6.27259,18.66424 -4.87314,7.14777 -12.65882,12.65439 -21.04915,14.88755 -4.54587,1.20993 -13.20507,1.1695 -17.86335,-0.0834 z m 16.61501,-16.55202 c 4.17633,-1.7595 7.63915,-4.79664 9.68464,-8.49412 1.78849,-3.23293 2.00271,-4.23179 1.99435,-9.29919 -0.008,-4.88118 -0.26559,-6.16573 -1.83668,-9.16138 -3.90925,-7.45387 -9.48605,-11.1333 -16.85533,-11.12073 -5.70333,0.01 -9.97755,1.84255 -14.24641,6.109 -6.75422,6.75038 -7.86257,16.41191 -2.79875,24.39673 4.92426,7.76475 15.6127,11.12778 24.05818,7.56969 z"
     id="path28" />
  <path
     style="fill:#ffffff;stroke:#ffffff;stroke-width:0.667906"
     d="m 216.00623,228.4259 c -6.4081,-1.37316 -15.17411,-6.77592 -19.14522,-11.79975 -5.97534,-7.55937 -8.80844,-15.6732 -8.78572,-25.16179 0.0187,-7.79386 1.63209,-13.06983 5.95729,-19.48041 8.08143,-11.97789 23.18685,-17.13318 39.85337,-13.60147 12.16879,2.57862 22.53031,13.13424 25.13005,25.60081 3.95851,18.98228 -8.05422,39.11724 -26.22421,43.95534 -3.17042,0.84419 -13.69432,1.14969 -16.78556,0.48727 z m 15.58966,-18.27819 c 4.0198,-1.72927 8.32617,-6.13511 10.31295,-10.55115 2.09656,-4.66006 1.94596,-11.41004 -0.35414,-15.87325 -6.11767,-11.87095 -21.87164,-14.30321 -31.33676,-4.83809 -4.38701,4.38701 -5.55654,7.3861 -5.55654,14.2489 0,4.88377 0.26997,6.51222 1.43947,8.68278 4.82083,8.94735 15.75583,12.5205 25.49502,8.33081 z"
     id="path30" />
  <path
     style="fill:#ffffff;stroke:#ffffff;stroke-width:0.667906"
     d="m 219.67971,126.89334 c -9.71076,-1.26489 -16.55378,-4.57661 -23.06307,-11.1615 -2.61478,-2.64516 -5.64119,-6.55362 -6.82934,-8.81979 -7.15298,-13.642906 -4.76725,-30.916195 5.74818,-41.618277 11.00427,-11.199602 27.17251,-13.759349 41.89915,-6.633454 5.89285,2.851421 13.36922,9.839348 16.19065,15.1329 12.01112,22.535168 -3.51932,51.007371 -28.93627,53.049321 -1.83674,0.14757 -4.09093,0.17042 -5.0093,0.0508 z m 8.66032,-17.97062 c 2.6335,-0.78206 4.45887,-1.9564 7.0165,-4.51403 4.12387,-4.12388 5.69903,-8.115456 5.68966,-14.418095 -0.0257,-17.269189 -20.78088,-25.346125 -33.20515,-12.921857 -8.10062,8.100617 -7.699,20.599018 0.9053,28.172822 5.20056,4.57771 12.16725,5.88658 19.59369,3.68116 z"
     id="path32" />
  <path
     style="fill:#ffffff;stroke:#ffffff;stroke-width:0.667906"
     d="m 332.80204,117.66571 c -2.25238,-0.48986 -5.07979,-1.3998 -6.28313,-2.02206 -3.95969,-2.04764 -8.3941,-6.82041 -10.31615,-11.1033 -1.66344,-3.70664 -1.8075,-4.647261 -1.56409,-10.212496 0.21821,-4.989182 0.61145,-6.831609 2.11327,-9.901233 2.0799,-4.25115 7.07812,-9.124649 11.82533,-11.530244 7.60543,-3.853962 19.12629,-6.323034 29.52602,-6.327813 5.12102,-0.0024 5.84372,-0.147319 5.84046,-1.171522 -0.008,-2.610198 -1.52223,-6.348213 -3.46909,-8.565565 -3.29895,-3.757293 -5.79259,-4.542847 -14.56066,-4.58695 l -7.68092,-0.03863 -1.07195,-6.34511 c -0.58957,-3.489811 -0.8379,-6.607727 -0.55185,-6.928704 0.28606,-0.320977 4.55277,-0.737474 9.48158,-0.92555 14.27203,-0.544599 22.93594,2.210449 29.45078,9.365093 6.57435,7.220004 7.74654,12.585301 7.76859,35.55796 0.015,15.665863 0.33406,21.423514 1.72494,31.130644 l 0.44111,3.07857 -4.92022,0.4493 c -2.70613,0.24711 -6.59495,0.62273 -8.64184,0.8347 l -3.72162,0.38542 -1.21349,-4.58119 c -0.66742,-2.51966 -1.39715,-4.92857 -1.62163,-5.35313 -0.26062,-0.49291 -2.27967,0.64431 -5.58571,3.14611 -8.26464,6.25417 -16.37027,7.95095 -26.96973,5.6457 z m 21.27499,-14.7509 c 3.87143,-1.95841 6.45811,-4.261289 8.28176,-7.373107 1.47949,-2.524566 1.83544,-4.086428 2.10477,-9.235389 0.17828,-3.408336 0.06,-6.337596 -0.26295,-6.509466 -0.3229,-0.17187 -3.76892,-0.09891 -7.65783,0.16213 -11.32675,0.760305 -17.14995,3.029112 -20.52228,7.995796 -1.35667,1.998066 -1.54203,2.951335 -1.32948,6.837197 0.28318,5.177048 1.70618,7.196319 6.26928,8.896249 3.22573,1.20171 10.00212,0.80215 13.11673,-0.77341 z"
     id="path34" />
  <path
     style="fill:#ffffff;stroke:#ffffff;stroke-width:0.667906"
     d="m 437.08321,118.67155 c -8.78911,-0.98316 -15.53225,-3.67238 -22.30294,-8.89462 -17.27798,-13.326523 -18.78429,-41.826462 -3.08983,-58.46086 4.98159,-5.27993 10.72313,-8.853825 18.0458,-11.232836 7.29664,-2.370553 20.09474,-2.929604 28.38602,-1.239968 6.79616,1.384954 10.86415,2.910801 10.48457,3.932616 -0.15267,0.410976 -0.98469,3.69609 -1.84893,7.300255 -1.43781,5.996173 -1.68702,6.515128 -2.93279,6.107035 -7.77511,-2.546999 -10.97761,-3.058147 -17.39121,-2.775797 -9.00376,0.396379 -13.42654,2.099601 -18.42085,7.093914 -5.09714,5.097133 -6.83699,9.614838 -6.83699,17.752949 0,10.862536 4.05142,17.566846 13.41121,22.192962 5.00669,2.47457 5.23553,2.51957 12.81357,2.51957 6.09247,0 8.69951,-0.30955 12.39119,-1.47129 2.57144,-0.80922 4.96279,-1.560612 5.31411,-1.66977 0.35133,-0.109159 1.29068,3.06352 2.08745,7.05038 l 1.44868,7.24886 -2.27418,0.95021 c -6.96762,2.91127 -20.52527,4.57623 -29.28488,3.59639 z"
     id="path36" />
  <path
     style="fill:#ffffff;stroke:#ffffff;stroke-width:0.667906"
     d="m 485.50338,85.786039 c -0.002,-17.367035 -0.19787,-34.957703 -0.436,-39.090373 l -0.43296,-7.513946 h 8.69744 8.69744 l 0.41399,2.504648 c 0.2277,1.377557 0.4173,4.232857 0.42134,6.34511 0.004,2.112254 0.23956,3.840461 0.52338,3.840461 0.28381,0 1.08825,-1.06257 1.78764,-2.361267 1.81549,-3.371146 6.53043,-7.488428 10.93748,-9.551052 3.10907,-1.455136 4.75099,-1.774559 9.13371,-1.776903 l 5.34326,-0.0029 v 9.016735 9.016735 l -4.11912,-0.230448 c -8.52541,-0.476961 -15.18007,3.232678 -18.71597,10.433221 l -1.87745,3.823261 -0.33395,23.37672 -0.33395,23.376719 -9.85162,0.18483 -9.85162,0.18484 z"
     id="path38" />
  <path
     style="fill:#ffffff;stroke:#ffffff;stroke-width:0.667906"
     d="M 545.61799,78.254238 V 39.146009 l 9.85161,0.184832 9.85162,0.184832 V 78.254238 116.9928 l -9.85162,0.18483 -9.85161,0.18484 z"
     id="path40" />
  <path
     style="fill:#ffffff;stroke:#ffffff;stroke-width:0.667906"
     d="m 552.85547,27.838582 c -6.11645,-1.125244 -10.2381,-7.310068 -8.90782,-13.366794 0.59113,-2.691387 4.03083,-6.6198262 6.81472,-7.7830122 4.96858,-2.0760038 11.78387,-0.028098 14.77895,4.4408792 2.11191,3.151196 1.85853,9.289313 -0.5159,12.497828 -2.54143,3.434171 -7.34957,5.097905 -12.16995,4.211099 z"
     id="path42" />
  <path
     style="fill:#ffffff;stroke:#ffffff;stroke-width:0.667906"
     d="m 601.31386,117.66846 c -13.09903,-2.84946 -20.52875,-13.49964 -18.30917,-26.2454 2.64776,-15.204577 16.40734,-23.434795 41.42575,-24.778599 l 7.68044,-0.412536 -0.23133,-2.663189 c -0.39339,-4.529194 -2.60433,-7.531833 -7.44862,-10.11588 -1.91692,-1.022528 -3.73679,-1.238024 -10.11116,-1.197297 l -7.77348,0.04967 -0.78434,-4.725011 c -1.43997,-8.674577 -1.45988,-8.58134 1.97132,-9.231795 1.65307,-0.313373 6.91283,-0.454386 11.68836,-0.313362 9.71522,0.286896 14.19009,1.484324 19.9106,5.327859 4.38821,2.948378 8.80308,8.966484 10.56745,14.40494 1.32042,4.070017 1.49134,6.513548 1.9703,28.167306 0.28845,13.04087 0.83184,25.063174 1.20755,26.716244 0.37571,1.65307 0.69619,3.33175 0.71219,3.73041 0.0281,0.70096 -16.47473,2.69722 -17.10308,2.06889 -0.15899,-0.15901 -0.91158,-2.5057 -1.6724,-5.21488 -0.76083,-2.70919 -1.474,-5.02533 -1.58482,-5.14698 -0.11081,-0.12165 -1.80511,1.08487 -3.7651,2.68115 -5.20369,4.23808 -7.84094,5.71518 -12.25812,6.86571 -4.722,1.22992 -10.53456,1.24176 -16.09234,0.0328 z m 21.58656,-14.94248 c 3.26855,-1.67545 7.46266,-5.849124 8.62954,-8.587515 0.55649,-1.305916 0.91585,-4.590423 0.91585,-8.370661 v -6.221419 l -4.84232,0.212298 c -17.75626,0.778476 -26.35123,6.279831 -24.90269,15.939385 0.56053,3.737875 3.49295,7.222672 6.88301,8.179562 3.4824,0.98295 10.30306,0.39308 13.31661,-1.15165 z"
     id="path44" />
  <path
     style="fill:#ffffff;stroke:#ffffff;stroke-width:0.667906"
     d="m 675.52576,119.02352 c -0.36735,-0.13426 -1.47127,-0.42059 -2.45317,-0.63629 -2.59363,-0.56976 -5.90165,-3.60551 -7.31184,-6.71005 -3.60989,-7.94715 1.34202,-16.889423 9.73834,-17.585712 1.95275,-0.161937 4.61627,0.05732 5.91892,0.487231 3.08745,1.018951 6.93353,5.315502 7.5103,8.389951 1.13386,6.04399 -1.44165,12.46502 -5.829,14.53236 -2.35557,1.10995 -6.45015,1.93308 -7.57355,1.52251 z"
     id="path46" />
  <path
     style="fill:#ffffff;stroke:#ffffff;stroke-width:0.667906"
     d="m 379.66144,278.79311 c -0.58269,-0.82654 -1.70183,-3.45642 -2.48698,-5.84418 -1.29074,-3.92541 -1.46485,-6.32687 -1.81703,-25.06259 l -0.3895,-20.72119 -2.22585,-4.51929 c -2.94283,-5.97502 -5.68574,-7.85628 -12.12648,-8.31711 -8.40926,-0.60168 -13.9745,2.30662 -18.06658,9.44128 l -1.96573,3.42731 -0.006,24.87951 -0.006,24.87951 H 330.5527 320.5341 v -27.61144 c 0,-15.18629 -0.19748,-32.61864 -0.43884,-38.73856 l -0.43884,-11.12713 h 8.73961 8.73961 l 0.41714,3.84046 c 0.82571,7.60212 0.60736,7.42468 4.55124,3.69864 6.74505,-6.37249 13.6294,-9.17022 22.5119,-9.1486 14.15032,0.0344 23.70957,6.85028 28.53889,20.34855 1.74884,4.88812 1.78522,5.33622 2.1664,26.67858 l 0.38768,21.70696 2.14031,4.96636 c 1.17717,2.7315 2.00827,5.09839 1.84691,5.25976 -0.24872,0.24872 -17.1576,3.399 -18.51164,3.44889 -0.25468,0.009 -0.9398,-0.65919 -1.52249,-1.48572 z"
     id="path48" />
  <path
     style="fill:#ffffff;stroke:#ffffff;stroke-width:0.667906"
     d="m 444.09623,278.00194 c -14.82707,-3.10983 -24.86678,-11.63131 -29.16692,-24.75625 -2.22773,-6.79949 -2.54669,-18.16594 -0.70284,-25.04649 4.26773,-15.92555 15.90475,-27.03128 31.22416,-29.79862 25.08931,-4.53221 44.06323,11.88962 44.06323,38.13649 0,2.70105 -0.18243,5.38642 -0.40541,5.96749 -0.36086,0.94039 -3.51694,1.05649 -28.71998,1.05649 h -28.31455 l 0.007,1.50279 c 0.0112,2.58499 3.05212,8.06287 6.09326,10.97641 5.81553,5.57152 12.33371,7.70344 22.93261,7.50061 l 6.70057,-0.12823 1.14387,6.93041 c 0.73729,4.46705 0.91409,7.1602 0.4974,7.57688 -1.05728,1.05729 -20.40363,1.11987 -25.35194,0.082 z m 26.33616,-50.97157 c -1.15919,-6.58931 -5.03969,-11.86365 -10.43661,-14.18534 -2.91245,-1.2529 -4.35672,-1.45078 -8.86289,-1.21426 -6.60183,0.34651 -11.38136,2.65059 -14.80825,7.13865 -1.88466,2.46826 -4.25072,8.15638 -4.25072,10.21891 0,0.30068 8.72979,0.54669 19.39954,0.54669 h 19.39955 z"
     id="path50" />
  <path
     style="fill:#ffffff;stroke:#ffffff;stroke-width:0.667906"
     d="m 527.25056,278.36728 c -5.98585,-1.62332 -10.57898,-4.95724 -13.35456,-9.69342 -3.18206,-5.42977 -3.65648,-9.65064 -3.66717,-32.62676 l -0.01,-21.20602 h -6.34511 -6.34511 v -7.26907 c 0,-8.4451 -0.36592,-8.06819 7.8479,-8.08366 l 4.84232,-0.009 v -7.24039 -7.24038 l 8.93803,-2.44426 c 4.91591,-1.34434 9.274,-2.44425 9.68464,-2.44425 0.51589,0 0.74662,2.99281 0.74662,9.68464 v 9.68464 h 10.04917 10.04917 l -0.41811,6.84604 c -0.22997,3.76532 -0.53485,7.22174 -0.67753,7.68092 -0.19137,0.61592 -2.71735,0.83489 -9.63105,0.83489 h -9.37165 l 0.004,19.2023 c 0.002,11.78353 0.28465,20.21415 0.73087,21.8213 0.39993,1.44044 1.60643,3.49828 2.68112,4.57296 1.9429,1.9429 1.99269,1.95267 8.78679,1.72241 l 6.83281,-0.23158 0.1885,7.47661 0.1885,7.4766 -2.52618,0.75099 c -3.18471,0.94676 -16.55724,1.45777 -19.22383,0.73461 z"
     id="path52" />
  <path
     style="fill:#ffffff;stroke:#ffffff;stroke-width:0.667906"
     d="m 581.47573,276.45543 c -0.48209,-0.83844 -23.83543,-75.61353 -23.83543,-76.31871 0,-0.78136 19.12772,-0.92079 19.60846,-0.14293 0.47865,0.77447 11.43117,42.9307 13.11111,50.46467 0.80495,3.6099 1.58489,6.44211 1.73321,6.29379 0.14832,-0.14831 1.46719,-4.36492 2.93082,-9.37023 1.46364,-5.00532 5.50517,-17.75593 8.98118,-28.3347 l 6.32002,-19.23413 7.83224,-0.18914 c 4.30774,-0.10403 8.06577,0.0462 8.35119,0.33395 0.60798,0.61285 11.32206,34.57278 14.97813,47.47552 1.38419,4.88497 2.72719,8.64194 2.98445,8.34883 0.25727,-0.29312 0.9974,-3.08768 1.64473,-6.21015 0.88101,-4.2496 10.16963,-38.03194 13.45192,-48.92413 0.31443,-1.04344 1.39411,-1.16884 10.06332,-1.16884 7.48795,0 9.64053,0.19113 9.40293,0.83488 -0.16949,0.45919 -5.98539,17.89154 -12.92423,38.73857 l -12.61606,37.90368 h -9.39719 -9.39719 l -7.11635,-21.87393 c -3.91399,-12.03066 -7.58964,-23.82756 -8.16811,-26.21532 -0.57848,-2.38777 -1.21873,-4.79223 -1.42279,-5.34325 -0.20407,-0.55102 -1.37257,2.90539 -2.59667,7.68092 -1.7703,6.90638 -8.46557,27.22908 -14.35762,43.58089 l -0.78217,2.17069 h -9.24593 c -5.08527,0 -9.37555,-0.22542 -9.53397,-0.50093 z"
     id="path54" />
  <path
     style="fill:#ffffff;stroke:#ffffff;stroke-width:0.667906"
     d="m 720.27548,277.97423 c -8.65665,-1.90021 -15.60103,-5.72878 -21.45818,-11.83034 -7.15355,-7.45205 -10.49246,-16.1481 -10.46595,-27.25819 0.0278,-11.67132 3.41576,-20.43135 10.98253,-28.3972 8.12782,-8.55648 18.28728,-12.56695 31.96206,-12.61711 8.97164,-0.0329 12.96025,0.80805 20.59849,4.34299 10.07699,4.66356 18.13625,14.60566 20.77791,25.63211 1.10563,4.61495 0.95753,15.91706 -0.26935,20.5565 -3.93146,14.86673 -16.4573,26.46521 -31.89518,29.5338 -6.17418,1.22724 -14.73977,1.24309 -20.23233,0.0374 z m 17.5405,-14.7246 c 4.71404,-1.39992 10.09193,-6.39355 12.38259,-11.49781 6.33952,-14.12634 1.80092,-31.38688 -9.84351,-37.43538 -2.90067,-1.5067 -4.23731,-1.76068 -9.39307,-1.78485 -5.26769,-0.0247 -6.48322,0.20362 -9.82787,1.84606 -4.663,2.28983 -8.6478,6.66403 -10.67628,11.71959 -1.29849,3.23622 -1.51502,5.0045 -1.52506,12.45451 -0.0107,7.97041 0.13083,8.98667 1.7256,12.38674 5.12193,10.92008 15.69778,15.71434 27.1576,12.31114 z"
     id="path56" />
  <path
     style="fill:#ffffff;stroke:#ffffff;stroke-width:0.667906"
     d="m 728.95827,243.48727 c -4.13745,-2.37921 -4.95299,-7.43226 -1.72115,-10.6641 1.49059,-1.49058 2.55688,-1.94732 4.50837,-1.9311 6.06019,0.0504 8.99702,7.16456 4.6453,11.2528 -1.85917,1.74659 -5.56552,2.41601 -7.43252,1.3424 z"
     id="path58" />
  <path
     style="fill:#ffffff;stroke:#ffffff;stroke-width:0.667906"
     d="m 791.40751,245.33472 c 0,-17.39191 -0.19596,-34.82427 -0.43546,-38.73857 l -0.43545,-7.11692 h 8.70079 8.7008 l 0.41744,2.08721 c 0.22959,1.14796 0.41744,3.85298 0.41744,6.01116 0,4.27725 0.76187,4.96748 2.26808,2.0548 3.74408,-7.24024 14.91492,-13.03705 22.83464,-11.84941 l 2.94934,0.44228 v 8.97581 8.97581 l -5.17627,0.004 c -2.84695,0.002 -6.33483,0.32542 -7.75085,0.71861 -3.33689,0.92655 -8.09378,5.34355 -10.34239,9.6034 l -1.77697,3.36633 -0.19882,23.5437 -0.19881,23.54369 h -9.98676 -9.98675 z"
     id="path60" />
  <path
     style="fill:#ffffff;stroke:#ffffff;stroke-width:0.667906"
     d="m 904.50704,277.4635 c -0.74633,-0.82995 -6.87104,-8.9938 -13.61047,-18.14189 l -12.25352,-16.63289 -3.54339,3.80683 -3.5434,3.80684 v 13.34484 13.34485 l -9.85162,-0.18484 -9.85161,-0.18483 v -56.43808 -56.43809 l 9.74583,-0.18422 9.74584,-0.18423 0.43769,11.53864 c 0.24073,6.34624 0.43861,21.53218 0.43974,33.74651 10e-4,12.21434 0.2303,22.20789 0.50928,22.20789 0.27899,0 0.85917,-0.56353 1.28931,-1.25228 0.43013,-0.68876 5.23763,-6.32422 10.68333,-12.52325 5.44569,-6.19903 11.09059,-12.69861 12.54421,-14.44351 l 2.64294,-3.17256 h 11.88088 c 6.53448,0 11.88087,0.25322 11.88087,0.5627 0,0.30949 -6.91283,7.25017 -15.36184,15.42373 -8.44902,8.17357 -15.36185,15.16828 -15.36185,15.5438 0,0.71804 7.98,10.85292 25.62258,32.54154 12.30997,15.13306 12.48225,13.6463 -1.66592,14.37598 -4.91082,0.25327 -9.39973,0.59212 -9.97535,0.753 -0.57561,0.16088 -1.65721,-0.38654 -2.40353,-1.21648 z"
     id="path62" />
</svg>
