<?xml version="1.0" encoding="UTF-8" standalone="no"?>
<svg
   xmlns:dc="http://purl.org/dc/elements/1.1/"
   xmlns:cc="http://creativecommons.org/ns#"
   xmlns:rdf="http://www.w3.org/1999/02/22-rdf-syntax-ns#"
   xmlns:svg="http://www.w3.org/2000/svg"
   xmlns="http://www.w3.org/2000/svg"
   xmlns:sodipodi="http://sodipodi.sourceforge.net/DTD/sodipodi-0.dtd"
   xmlns:inkscape="http://www.inkscape.org/namespaces/inkscape"
   id="svg"
   version="1.1"
   width="260.22852"
   height="285.54224"
   viewBox="0 0 260.22851 285.54223"
   sodipodi:docname="acria_logo4 (copy).svg"
   inkscape:version="1.0.2 (e86c870879, 2021-01-15)">
  <sodipodi:namedview
     pagecolor="#ffffff"
     bordercolor="#666666"
     borderopacity="1"
     objecttolerance="10"
     gridtolerance="10"
     guidetolerance="10"
     inkscape:pageopacity="0"
     inkscape:pageshadow="2"
     inkscape:window-width="1920"
     inkscape:window-height="1030"
     id="namedview21"
     showgrid="false"
     inkscape:zoom="1.292415"
     inkscape:cx="464.63403"
     inkscape:cy="142.77112"
     inkscape:window-x="0"
     inkscape:window-y="22"
     inkscape:window-maximized="1"
     inkscape:current-layer="svg"
     inkscape:document-rotation="0"
     fit-margin-top="0"
     fit-margin-left="0"
     fit-margin-right="0"
     fit-margin-bottom="0" />
  <metadata
     id="metadata9">
    <rdf:RDF>
      <cc:Work
         rdf:about="">
        <dc:format>image/svg+xml</dc:format>
        <dc:type
           rdf:resource="http://purl.org/dc/dcmitype/StillImage" />
        <dc:title></dc:title>
      </cc:Work>
    </rdf:RDF>
  </metadata>
  <defs
     id="defs7" />
  <g
     id="svgg"
     transform="translate(-64.66983,-14.220028)"
     style="fill:#ff7f2a">
    <path
       id="path0"
       d="M 179.167,16.087 C 150.36,26.911 148.43,69.967 176.149,83.385 208.56,99.075 242.046,64.108 224.502,32.892 216.38,18.441 194.492,10.328 179.167,16.087 m 26.051,20.192 c 16.21,16.209 -0.257,41.472 -20.901,32.065 -6.125,-2.79 -11.4,-11.499 -11.4,-18.819 0,-15.27 21.472,-24.076 32.301,-13.246 m 63.906,35.975 c -20.505,10.104 -25.711,38.559 -10.272,56.143 23.188,26.41 64.166,10.613 64.03,-24.684 C 322.783,77.844 293.068,60.455 269.124,72.254 M 82.98,74.939 c -32.326,17.569 -19.027,68.811 17.859,68.811 34.979,0 50.113,-46.704 21.693,-66.941 C 113.114,70.104 93.577,69.18 82.98,74.939 M 298.6,89.674 c 11.368,8.942 8.326,28.337 -5.184,33.047 -19.923,6.945 -35.414,-16.46 -20.66,-31.215 7.418,-7.417 17.807,-8.154 25.844,-1.832 m -185.499,2.018 c 11.125,8.751 8.975,26.1 -3.998,32.256 -19.685,9.341 -37.129,-14.992 -21.763,-30.358 7.385,-7.386 17.808,-8.154 25.761,-1.898 m 157.379,83.247 c -32.326,17.569 -19.027,68.811 17.859,68.811 34.979,0 50.113,-46.704 21.693,-66.941 -9.418,-6.705 -28.955,-7.629 -39.552,-1.87 m -184.689,3.565 c -20.505,10.104 -25.711,38.559 -10.273,56.143 23.189,26.41 64.167,10.613 64.031,-24.684 -0.099,-25.869 -29.815,-43.258 -53.758,-31.459 m 214.81,13.188 c 17.127,13.472 1.425,40.238 -19.356,32.994 -12.842,-4.477 -16.289,-21.212 -6.405,-31.096 7.385,-7.386 17.808,-8.154 25.761,-1.898 m -185.334,4.232 c 11.368,8.942 8.325,28.337 -5.185,33.047 -19.922,6.945 -35.413,-16.46 -20.659,-31.215 7.418,-7.417 17.807,-8.154 25.844,-1.832 m 68.066,32.663 c -28.806,10.824 -30.737,53.88 -3.018,67.298 32.412,15.69 65.897,-19.277 48.353,-50.493 -8.121,-14.451 -30.009,-22.564 -45.335,-16.805 m 26.052,20.192 c 10.002,10.002 8.37,25.48 -3.325,31.528 -20.005,10.345 -38.748,-14.606 -22.887,-30.467 7.919,-7.919 18.91,-8.364 26.212,-1.061"
       inkscape:connector-curvature="0"
       style="fill:#ff7f2a;fill-rule:evenodd;stroke:none"
       sodipodi:nodetypes="ccccccsccccccscccccccscccsccccccccccccccccccccsc" />
  </g>
  <path
     style="fill:#ffa500;stroke:#ffa500;stroke-width:0.516862"
     d="m 216.64867,126.52197 c -21.33982,-3.9513 -35.07905,-24.82965 -29.76505,-45.231448 3.61998,-13.898058 14.19363,-23.707739 28.13001,-26.097563 15.53547,-2.664037 32.68263,6.262036 39.50939,20.566874 5.85736,12.273562 3.30221,28.620507 -6.15252,39.361657 -7.54432,8.5708 -20.96165,13.39284 -31.72183,11.40048 z m 13.18323,-18.08324 c 4.2263,-1.7661 6.83075,-4.20226 8.93776,-8.36025 5.71651,-11.280997 0.84051,-24.333423 -10.49702,-28.099146 -15.36668,-5.10399 -30.52764,9.940086 -25.20902,25.014663 3.79648,10.760363 15.96056,15.961103 26.76828,11.444733 z"
     id="path848" />
  <path
     style="fill:#ffa500;stroke:#ffa500;stroke-width:0.516862"
     d="M 117.99615,71.273824 C 100.37958,65.678863 89.976567,49.199618 92.593584,31.034027 94.970673,14.533864 108.04959,1.5339243 123.21554,0.59699095 138.80346,-0.36601183 154.38818,8.4392309 160.72939,21.79202 c 6.11507,12.8766 3.77982,27.748757 -6.04515,38.498843 -7.48091,8.185299 -16.34818,12.105215 -27.1853,12.017675 -3.52429,-0.02847 -7.80055,-0.494089 -9.50279,-1.034714 z M 137.6012,54.24216 c 2.88298,-1.490844 6.97589,-6.184236 8.4419,-9.680419 2.70052,-6.440291 0.98125,-15.625693 -4.03579,-21.561632 -7.96726,-9.426498 -24.71917,-7.350024 -31.65721,3.924052 -3.77829,6.139584 -2.76776,14.661987 2.63882,22.254829 4.71159,6.616827 16.79922,9.10346 24.61228,5.06317 z"
     id="path850" />
  <path
     style="fill:#ffa500;stroke:#ffa500;stroke-width:0.516862"
     d="M 25.117362,127.31711 C 15.683588,124.24016 6.9540036,115.7822 2.9940802,105.88221 1.4466571,102.01359 1.1893385,100.00451 1.1760721,91.687661 1.160938,82.199908 1.2155833,81.887913 3.8187206,76.599628 7.2068589,69.71661 12.791572,64.111765 19.602172,60.759282 c 4.802515,-2.364014 6.071361,-2.635214 13.823556,-2.954618 5.254666,-0.216501 10.211395,0.01623 12.895131,0.605452 9.993401,2.194089 18.284071,8.944738 22.817744,18.579268 1.93067,4.102878 2.420286,6.26991 2.689678,11.904482 0.187486,3.921429 -0.08176,8.75969 -0.625088,11.232694 -2.359408,10.73902 -10.674808,21.11852 -20.687218,25.82231 -4.641032,2.18034 -6.151818,2.49201 -12.98933,2.67967 -6.032364,0.16556 -8.766975,-0.12344 -12.409283,-1.31143 z m 19.372991,-17.33986 c 7.211711,-3.40934 11.18532,-9.76354 11.18532,-17.886447 0,-18.109135 -22.421681,-25.774598 -34.413276,-11.765117 -2.615521,3.055649 -5.013746,9.053361 -5.013746,12.538862 0,6.369433 5.102279,14.395682 11.010399,17.320142 4.689151,2.32109 12.070728,2.23222 17.231303,-0.20744 z"
     id="path852" />
  <path
     style="fill:#ffa500;stroke:#ffa500;stroke-width:0.516862"
     d="M 30.38076,232.10651 C 12.929769,227.40675 1.0615489,210.82916 2.5381846,193.21586 4.9166039,164.84609 37.039953,151.29072 60.356222,168.81788 c 8.990737,6.75846 13.932496,16.56679 13.91414,27.6166 -0.01766,10.63138 -3.287411,18.50446 -10.817291,26.04647 -9.282834,9.29778 -21.301186,12.79567 -33.072311,9.62556 z m 17.323168,-18.01244 c 11.122588,-5.6796 13.625519,-22.25439 4.707319,-31.17259 -5.776495,-5.7765 -15.217766,-7.44107 -22.073674,-3.89176 -15.973764,8.26962 -15.256923,30.05257 1.190975,36.19063 4.04104,1.50804 12.117818,0.94566 16.17538,-1.12628 z"
     id="path854" />
  <path
     style="fill:#ffa500;stroke:#ffa500;stroke-width:0.516862"
     d="m 123.11241,283.91731 c -9.24718,-2.48688 -18.61683,-9.68528 -22.49086,-17.27899 -5.747355,-11.26576 -5.352598,-26.6096 0.96181,-37.38431 2.81522,-4.80381 9.90674,-11.1916 15.05669,-13.56252 3.49076,-1.60707 5.97113,-2.1177 11.49644,-2.36677 23.93986,-1.07915 43.48748,18.88156 39.82146,40.66302 -3.53972,21.03106 -24.90731,35.29163 -44.84554,29.92957 z m 15.05412,-16.16411 c 4.73112,-1.41149 9.13168,-4.96956 11.36426,-9.18857 2.26534,-4.28091 2.4028,-13.51302 0.26098,-17.52786 -4.32634,-8.10973 -9.90554,-11.88339 -17.46385,-11.81219 -7.1989,0.0678 -14.4399,4.65074 -18.05188,11.42531 -2.32266,4.35635 -2.30542,12.68569 0.0355,17.1216 2.04907,3.88297 7.74007,9.0385 11.20165,10.14769 3.71122,1.18919 8.31343,1.12882 12.65339,-0.16598 z"
     id="path856" />
  <path
     style="fill:#ffa500;stroke:#ffa500;stroke-width:0.516862"
     d="m 217.42242,228.55956 c -9.91902,-1.60855 -20.04302,-9.12862 -24.69436,-18.34287 -7.97094,-15.79034 -5.65694,-32.75133 5.94943,-43.60773 6.91083,-6.46427 14.15425,-9.11247 24.96577,-9.1275 18.35941,-0.0255 30.7676,9.11673 35.13592,25.88784 1.47325,5.65619 1.49316,9.34242 0.0863,15.97962 -1.52848,7.21102 -5.28277,14.16255 -10.42694,19.30671 -5.17322,5.17322 -10.6535,8.15405 -17.76104,9.66057 -5.71679,1.21173 -7.12433,1.23757 -13.25509,0.24336 z m 13.66238,-18.1785 c 6.45687,-2.29055 12.64496,-11.52333 12.64496,-18.86659 0,-3.68565 -2.39478,-9.17153 -5.31913,-12.18487 -8.3894,-8.6447 -20.9065,-8.38236 -28.98923,0.60757 -10.43381,11.60492 -4.46525,29.28312 10.70913,31.71923 3.71094,0.59575 6.64165,0.25455 10.95427,-1.27534 z"
     id="path858" />
</svg>
