<?xml version="1.0" encoding="UTF-8" standalone="no"?>
<svg
   xmlns:dc="http://purl.org/dc/elements/1.1/"
   xmlns:cc="http://creativecommons.org/ns#"
   xmlns:rdf="http://www.w3.org/1999/02/22-rdf-syntax-ns#"
   xmlns:svg="http://www.w3.org/2000/svg"
   xmlns="http://www.w3.org/2000/svg"
   xmlns:sodipodi="http://sodipodi.sourceforge.net/DTD/sodipodi-0.dtd"
   xmlns:inkscape="http://www.inkscape.org/namespaces/inkscape"
   inkscape:version="1.0.2 (e86c870879, 2021-01-15)"
   sodipodi:docname="acria_logo5.svg"
   viewBox="0 0 260.22851 285.54223"
   height="285.54224"
   width="260.22852"
   version="1.1"
   id="svg">
  <metadata
     id="metadata9">
    <rdf:RDF>
      <cc:Work
         rdf:about="">
        <dc:format>image/svg+xml</dc:format>
        <dc:type
           rdf:resource="http://purl.org/dc/dcmitype/StillImage" />
        <dc:title></dc:title>
      </cc:Work>
    </rdf:RDF>
  </metadata>
  <defs
     id="defs7" />
  <sodipodi:namedview
     inkscape:document-rotation="0"
     inkscape:current-layer="svg"
     inkscape:window-maximized="1"
     inkscape:window-y="22"
     inkscape:window-x="0"
     inkscape:cy="215.17503"
     inkscape:cx="381.64699"
     inkscape:zoom="1.497216"
     fit-margin-bottom="0"
     fit-margin-right="0"
     fit-margin-left="0"
     fit-margin-top="0"
     showgrid="false"
     id="namedview5"
     inkscape:window-height="1030"
     inkscape:window-width="1920"
     inkscape:pageshadow="2"
     inkscape:pageopacity="0"
     guidetolerance="10"
     gridtolerance="10"
     objecttolerance="10"
     borderopacity="1"
     bordercolor="#666666"
     pagecolor="#ffffff" />
  <g
     style="fill:#000000"
     transform="translate(-64.66983,-14.220028)"
     id="svgg">
    <path
       sodipodi:nodetypes="ccccccsccccccscccccccscccsccccccccccccccccccccsc"
       style="fill:#000000;fill-rule:evenodd;stroke:none"
       inkscape:connector-curvature="0"
       d="M 179.167,16.087 C 150.36,26.911 148.43,69.967 176.149,83.385 208.56,99.075 242.046,64.108 224.502,32.892 216.38,18.441 194.492,10.328 179.167,16.087 m 26.051,20.192 c 16.21,16.209 -0.257,41.472 -20.901,32.065 -6.125,-2.79 -11.4,-11.499 -11.4,-18.819 0,-15.27 21.472,-24.076 32.301,-13.246 m 63.906,35.975 c -20.505,10.104 -25.711,38.559 -10.272,56.143 23.188,26.41 64.166,10.613 64.03,-24.684 C 322.783,77.844 293.068,60.455 269.124,72.254 M 82.98,74.939 c -32.326,17.569 -19.027,68.811 17.859,68.811 34.979,0 50.113,-46.704 21.693,-66.941 C 113.114,70.104 93.577,69.18 82.98,74.939 M 298.6,89.674 c 11.368,8.942 8.326,28.337 -5.184,33.047 -19.923,6.945 -35.414,-16.46 -20.66,-31.215 7.418,-7.417 17.807,-8.154 25.844,-1.832 m -185.499,2.018 c 11.125,8.751 8.975,26.1 -3.998,32.256 -19.685,9.341 -37.129,-14.992 -21.763,-30.358 7.385,-7.386 17.808,-8.154 25.761,-1.898 m 157.379,83.247 c -32.326,17.569 -19.027,68.811 17.859,68.811 34.979,0 50.113,-46.704 21.693,-66.941 -9.418,-6.705 -28.955,-7.629 -39.552,-1.87 m -184.689,3.565 c -20.505,10.104 -25.711,38.559 -10.273,56.143 23.189,26.41 64.167,10.613 64.031,-24.684 -0.099,-25.869 -29.815,-43.258 -53.758,-31.459 m 214.81,13.188 c 17.127,13.472 1.425,40.238 -19.356,32.994 -12.842,-4.477 -16.289,-21.212 -6.405,-31.096 7.385,-7.386 17.808,-8.154 25.761,-1.898 m -185.334,4.232 c 11.368,8.942 8.325,28.337 -5.185,33.047 -19.922,6.945 -35.413,-16.46 -20.659,-31.215 7.418,-7.417 17.807,-8.154 25.844,-1.832 m 68.066,32.663 c -28.806,10.824 -30.737,53.88 -3.018,67.298 32.412,15.69 65.897,-19.277 48.353,-50.493 -8.121,-14.451 -30.009,-22.564 -45.335,-16.805 m 26.052,20.192 c 10.002,10.002 8.37,25.48 -3.325,31.528 -20.005,10.345 -38.748,-14.606 -22.887,-30.467 7.919,-7.919 18.91,-8.364 26.212,-1.061"
       id="path0" />
  </g>
  <path
     style="fill:#ffffff;stroke:#ffffff;stroke-width:0.667906"
     d="M 28.65851,128.30273 C 15.624586,125.48018 5.2827268,115.15903 1.5986054,101.29701 0.46941349,97.048262 0.32749128,87.621427 1.3273888,83.282107 3.3373499,74.55935 10.808516,64.982089 18.670253,61.050351 c 10.617667,-5.310007 27.520395,-4.830553 37.582165,1.066037 3.733908,2.188216 10.046953,8.988332 12.089792,13.022552 5.74732,11.349885 4.877332,26.37011 -2.156456,37.23089 -5.422423,8.37269 -15.008153,14.83005 -24.169118,16.28137 -5.53915,0.87753 -7.992195,0.81354 -13.358126,-0.34847 z m 14.266199,-17.67731 c 8.040018,-3.00816 12.712968,-9.72701 12.759022,-18.345149 0.03079,-5.762241 -2.325288,-11.119556 -6.438704,-14.640487 -5.499246,-4.707149 -14.690491,-5.870931 -21.108463,-2.67272 -12.439821,6.199024 -15.364729,21.884792 -5.854243,31.395276 5.533108,5.53311 13.081436,7.092 20.642388,4.26308 z"
     id="path22" />
  <path
     style="fill:#ffffff;stroke:#ffffff;stroke-width:0.667906"
     d="M 33.565409,232.8409 C 13.232589,229.26877 -0.58890108,210.14147 2.8652617,190.35556 5.3872566,175.90922 15.984089,164.65274 29.82249,161.72026 c 5.713021,-1.21065 9.342329,-1.20683 15.113495,0.0159 18.149358,3.84522 31.12461,20.33142 29.442381,37.40915 -1.517009,15.40041 -10.596587,27.40751 -24.2787,32.10686 -5.232662,1.79724 -11.771291,2.42554 -16.534257,1.58876 z m 11.53173,-17.65082 c 4.436962,-1.31764 8.450308,-4.88847 10.729056,-9.54606 3.720764,-7.60497 1.972159,-17.91031 -3.946282,-23.25726 -4.07442,-3.681 -7.390325,-4.91676 -13.238646,-4.93377 -6.299252,-0.0183 -10.598533,1.91882 -14.915768,6.72063 -11.27021,12.53518 -2.618398,31.84036 14.32945,31.97395 2.045579,0.0161 5.214565,-0.41475 7.04219,-0.95749 z"
     id="path24" />
  <path
     style="fill:#ffffff;stroke:#ffffff;stroke-width:0.667906"
     d="M 119.25662,71.519078 C 99.86694,66.825313 88.319599,46.867226 93.430826,26.882519 96.124518,16.350284 102.49034,8.3253304 111.81773,3.7034274 c 4.75813,-2.3577465 6.28173,-2.77820887 11.17294,-3.08336064 14.99828,-0.93570991 31.01883,7.52554544 37.11521,19.60240824 7.32557,14.511884 4.80784,29.684027 -6.86254,41.354409 -9.4446,9.444597 -21.48828,12.967756 -33.98672,9.942194 z m 17.5058,-16.926076 c 6.56071,-3.34702 10.32871,-9.655562 10.40173,-17.415001 0.0556,-5.911403 -1.87102,-10.763394 -5.90062,-14.859859 -3.56819,-3.627398 -6.0702,-4.696555 -11.75117,-5.021512 -19.17235,-1.09668 -28.3268,18.859437 -15.13411,32.991405 4.43354,4.74919 8.74984,6.445711 15.24178,5.99078 2.61566,-0.183295 5.55894,-0.877995 7.14239,-1.685813 z"
     id="path26" />
  <path
     style="fill:#ffffff;stroke:#ffffff;stroke-width:0.667906"
     d="m 122.91595,283.91753 c -13.08547,-3.51949 -22.962083,-14.00604 -25.797631,-27.39079 -1.235529,-5.83212 -1.233597,-9.42176 0.0082,-15.2842 2.887511,-13.63149 12.406701,-24.17199 24.728241,-27.38134 14.33065,-3.73266 33.59482,4.14606 41.30719,16.89396 3.73018,6.16566 5.30084,12.42852 4.93906,19.69398 -0.37267,7.48407 -2.04713,12.46648 -6.27259,18.66424 -4.87314,7.14777 -12.65882,12.65439 -21.04915,14.88755 -4.54587,1.20993 -13.20507,1.1695 -17.86335,-0.0834 z m 16.61501,-16.55202 c 4.17633,-1.7595 7.63915,-4.79664 9.68464,-8.49412 1.78849,-3.23293 2.00271,-4.23179 1.99435,-9.29919 -0.008,-4.88118 -0.26559,-6.16573 -1.83668,-9.16138 -3.90925,-7.45387 -9.48605,-11.1333 -16.85533,-11.12073 -5.70333,0.01 -9.97755,1.84255 -14.24641,6.109 -6.75422,6.75038 -7.86257,16.41191 -2.79875,24.39673 4.92426,7.76475 15.6127,11.12778 24.05818,7.56969 z"
     id="path28" />
  <path
     style="fill:#ffffff;stroke:#ffffff;stroke-width:0.667906"
     d="m 216.00623,228.4259 c -6.4081,-1.37316 -15.17411,-6.77592 -19.14522,-11.79975 -5.97534,-7.55937 -8.80844,-15.6732 -8.78572,-25.16179 0.0187,-7.79386 1.63209,-13.06983 5.95729,-19.48041 8.08143,-11.97789 23.18685,-17.13318 39.85337,-13.60147 12.16879,2.57862 22.53031,13.13424 25.13005,25.60081 3.95851,18.98228 -8.05422,39.11724 -26.22421,43.95534 -3.17042,0.84419 -13.69432,1.14969 -16.78556,0.48727 z m 15.58966,-18.27819 c 4.0198,-1.72927 8.32617,-6.13511 10.31295,-10.55115 2.09656,-4.66006 1.94596,-11.41004 -0.35414,-15.87325 -6.11767,-11.87095 -21.87164,-14.30321 -31.33676,-4.83809 -4.38701,4.38701 -5.55654,7.3861 -5.55654,14.2489 0,4.88377 0.26997,6.51222 1.43947,8.68278 4.82083,8.94735 15.75583,12.5205 25.49502,8.33081 z"
     id="path30" />
  <path
     style="fill:#ffffff;stroke:#ffffff;stroke-width:0.667906"
     d="m 219.67971,126.89334 c -9.71076,-1.26489 -16.55378,-4.57661 -23.06307,-11.1615 -2.61478,-2.64516 -5.64119,-6.55362 -6.82934,-8.81979 -7.15298,-13.642906 -4.76725,-30.916195 5.74818,-41.618277 11.00427,-11.199602 27.17251,-13.759349 41.89915,-6.633454 5.89285,2.851421 13.36922,9.839348 16.19065,15.1329 12.01112,22.535168 -3.51932,51.007371 -28.93627,53.049321 -1.83674,0.14757 -4.09093,0.17042 -5.0093,0.0508 z m 8.66032,-17.97062 c 2.6335,-0.78206 4.45887,-1.9564 7.0165,-4.51403 4.12387,-4.12388 5.69903,-8.115456 5.68966,-14.418095 -0.0257,-17.269189 -20.78088,-25.346125 -33.20515,-12.921857 -8.10062,8.100617 -7.699,20.599018 0.9053,28.172822 5.20056,4.57771 12.16725,5.88658 19.59369,3.68116 z"
     id="path32" />
</svg>
