<?xml version="1.0" encoding="UTF-8" standalone="no"?>
<svg
   xmlns:dc="http://purl.org/dc/elements/1.1/"
   xmlns:cc="http://creativecommons.org/ns#"
   xmlns:rdf="http://www.w3.org/1999/02/22-rdf-syntax-ns#"
   xmlns:svg="http://www.w3.org/2000/svg"
   xmlns="http://www.w3.org/2000/svg"
   xmlns:sodipodi="http://sodipodi.sourceforge.net/DTD/sodipodi-0.dtd"
   xmlns:inkscape="http://www.inkscape.org/namespaces/inkscape"
   id="svg"
   version="1.1"
   width="929.26807"
   height="285.54224"
   viewBox="0 0 929.26806 285.54223"
   sodipodi:docname="acria.svg"
   inkscape:version="1.0.2 (e86c870879, 2021-01-15)">
  <sodipodi:namedview
     pagecolor="#ffffff"
     bordercolor="#666666"
     borderopacity="1"
     objecttolerance="10"
     gridtolerance="10"
     guidetolerance="10"
     inkscape:pageopacity="0"
     inkscape:pageshadow="2"
     inkscape:window-width="1920"
     inkscape:window-height="1030"
     id="namedview21"
     showgrid="false"
     inkscape:zoom="1.292415"
     inkscape:cx="464.63403"
     inkscape:cy="142.77112"
     inkscape:window-x="0"
     inkscape:window-y="22"
     inkscape:window-maximized="1"
     inkscape:current-layer="svg" />
  <metadata
     id="metadata9">
    <rdf:RDF>
      <cc:Work
         rdf:about="">
        <dc:format>image/svg+xml</dc:format>
        <dc:type
           rdf:resource="http://purl.org/dc/dcmitype/StillImage" />
      </cc:Work>
    </rdf:RDF>
  </metadata>
  <defs
     id="defs7" />
  <g
     id="svgg"
     transform="translate(-64.66983,-14.220028)"
     style="fill:#ff7f2a">
    <path
       id="path0"
       d="M 179.167,16.087 C 150.36,26.911 148.43,69.967 176.149,83.385 208.56,99.075 242.046,64.108 224.502,32.892 216.38,18.441 194.492,10.328 179.167,16.087 m 26.051,20.192 c 16.21,16.209 -0.257,41.472 -20.901,32.065 -6.125,-2.79 -11.4,-11.499 -11.4,-18.819 0,-15.27 21.472,-24.076 32.301,-13.246 m 63.906,35.975 c -20.505,10.104 -25.711,38.559 -10.272,56.143 23.188,26.41 64.166,10.613 64.03,-24.684 C 322.783,77.844 293.068,60.455 269.124,72.254 M 82.98,74.939 c -32.326,17.569 -19.027,68.811 17.859,68.811 34.979,0 50.113,-46.704 21.693,-66.941 C 113.114,70.104 93.577,69.18 82.98,74.939 M 298.6,89.674 c 11.368,8.942 8.326,28.337 -5.184,33.047 -19.923,6.945 -35.414,-16.46 -20.66,-31.215 7.418,-7.417 17.807,-8.154 25.844,-1.832 m -185.499,2.018 c 11.125,8.751 8.975,26.1 -3.998,32.256 -19.685,9.341 -37.129,-14.992 -21.763,-30.358 7.385,-7.386 17.808,-8.154 25.761,-1.898 m 157.379,83.247 c -32.326,17.569 -19.027,68.811 17.859,68.811 34.979,0 50.113,-46.704 21.693,-66.941 -9.418,-6.705 -28.955,-7.629 -39.552,-1.87 m -184.689,3.565 c -20.505,10.104 -25.711,38.559 -10.273,56.143 23.189,26.41 64.167,10.613 64.031,-24.684 -0.099,-25.869 -29.815,-43.258 -53.758,-31.459 m 214.81,13.188 c 17.127,13.472 1.425,40.238 -19.356,32.994 -12.842,-4.477 -16.289,-21.212 -6.405,-31.096 7.385,-7.386 17.808,-8.154 25.761,-1.898 m -185.334,4.232 c 11.368,8.942 8.325,28.337 -5.185,33.047 -19.922,6.945 -35.413,-16.46 -20.659,-31.215 7.418,-7.417 17.807,-8.154 25.844,-1.832 m 68.066,32.663 c -28.806,10.824 -30.737,53.88 -3.018,67.298 32.412,15.69 65.897,-19.277 48.353,-50.493 -8.121,-14.451 -30.009,-22.564 -45.335,-16.805 m 26.052,20.192 c 10.002,10.002 8.37,25.48 -3.325,31.528 -20.005,10.345 -38.748,-14.606 -22.887,-30.467 7.919,-7.919 18.91,-8.364 26.212,-1.061"
       inkscape:connector-curvature="0"
       style="fill:#ff7f2a;fill-rule:evenodd;stroke:none"
       sodipodi:nodetypes="ccccccsccccccscccccccscccsccccccccccccccccccccsc" />
  </g>
  <g
     aria-label="acria. network"
     id="text3716"
     style="font-style:normal;font-weight:normal;font-size:40px;line-height:0;font-family:sans-serif;letter-spacing:0px;word-spacing:0px;fill:#333333;fill-opacity:1;stroke:none">
    <path
       d="m 385.10918,117.47205 q 1.12,0 0.8,-1.12 -0.8,-3.52 -1.44,-8.48 -0.64,-4.96 -0.64,-10.079996 v -26.72 q 0,-6.24 -1.6,-12.32 -1.44,-6.08 -5.44,-10.72 -3.84,-4.8 -10.4,-7.68 -6.56,-3.04 -16.64,-3.04 -3.68,0 -7.04,0.32 -3.2,0.32 -6.08,0.8 -0.8,0.32 -0.8,1.12 0,0.32 0.32,2.72 0.48,2.4 0.96,5.6 0.64,3.2 0.8,4.32 0,1.12 1.12,0.8 1.92,-0.32 3.84,-0.48 2.08,-0.32 3.84,-0.32 5.76,0 9.12,1.6 3.36,1.44 4.96,3.68 1.76,2.08 2.24,4.48 0.48,2.4 0.48,3.84 v 0.16 q -24.48,0 -37.12,7.68 -12.48,7.52 -12.48,22.24 0,3.52 1.12,7.199996 1.28,3.52 3.52,6.56 2.4,3.04 5.76,5.28 3.36,2.24 7.84,3.04 2.72,0.48 5.12,0.8 2.4,0.32 4.64,0.32 4.48,0 9.44,-1.6 3.52,-1.12 6.88,-3.68 3.52,-2.72 5.76,-4.48 l 0.96,-0.96 2.72,9.92 q 0.32,0.8 1.12,0.8 z m -21.12,-28.319996 q 0,2.08 -0.64,4 -1.6,4 -6.08,7.519996 -4.48,3.52 -11.2,3.52 -5.12,0 -8.32,-2.56 -3.2,-2.719996 -3.2,-7.839996 0,-4 2.4,-6.72 2.4,-2.72 6.4,-4.32 4,-1.6 9.28,-2.24 5.44,-0.64 11.36,-0.64 z"
       style="font-style:normal;font-variant:normal;font-weight:bold;font-stretch:normal;font-size:160px;line-height:1;font-family:Santana;-inkscape-font-specification:'Santana Bold';fill:#333333"
       id="path11" />
    <path
       d="m 446.70911,37.312054 q -10.88,0 -19.52,3.2 -8.64,3.2 -14.56,8.96 -5.92,5.6 -9.12,13.28 -3.04,7.68 -3.04,16.48 0,8.96 3.04,16.32 3.04,7.359996 8.64,12.639996 5.6,5.28 13.44,8.32 8,2.88 17.92,2.88 8.64,0 15.2,-1.6 6.56,-1.6 9.76,-3.2 0.8,-0.32 0.48,-0.96 l -2.72,-13.6 q -0.32,-1.119996 -1.28,-0.799996 -3.2,1.279996 -7.52,2.559996 -4.32,1.12 -10.24,1.12 -5.44,0 -10.24,-1.6 -4.64,-1.759996 -8.16,-4.959996 -3.52,-3.2 -5.6,-7.68 -1.92,-4.64 -1.92,-10.56 0,-5.28 1.76,-9.76 1.76,-4.48 5.12,-7.84 3.36,-3.36 8.16,-5.12 4.96,-1.92 11.04,-1.92 6.08,0 10.08,1.12 4,0.96 6.72,2.24 1.12,0.48 1.44,-0.48 l 3.52,-13.92 q 0.16,-0.48 -0.64,-0.96 -3.68,-1.76 -9.6,-2.88 -5.76,-1.28 -12.16,-1.28 z"
       style="font-style:normal;font-variant:normal;font-weight:bold;font-stretch:normal;font-size:160px;line-height:1;font-family:Santana;-inkscape-font-specification:'Santana Bold';fill:#333333"
       id="path13" />
    <path
       d="m 531.18894,56.032054 v -17.44 q 0,-0.64 -0.64,-0.8 -1.28,-0.32 -2.4,-0.32 -0.96,-0.16 -2.56,-0.16 -6.24,0 -12.32,3.52 -6.08,3.52 -9.76,10.72 l -0.8,-11.52 q 0,-0.96 -0.96,-0.96 h -16.32 q -0.96,0 -0.96,0.96 0.32,5.44 0.48,11.52 0.16,5.92 0.16,14.08 v 50.879996 q 0,0.96 0.96,0.96 h 18.72 q 0.96,0 0.96,-0.96 V 76.832054 q 0,-1.12 0,-2.56 0.16,-1.6 0.48,-2.88 1.6,-6.4 6.08,-10.72 4.64,-4.32 11.84,-4.32 3.2,0 5.92,0.48 z"
       style="font-style:normal;font-variant:normal;font-weight:bold;font-stretch:normal;font-size:160px;line-height:1;font-family:Santana;-inkscape-font-specification:'Santana Bold';fill:#333333"
       id="path15" />
    <path
       d="m 564.78885,117.47205 q 0.96,0 0.96,-0.96 V 40.032054 q 0,-0.96 -0.96,-0.96 h -18.72 q -0.96,0 -0.96,0.96 v 76.479996 q 0,0.96 0.96,0.96 z m 2.88,-100.479996 q -0.16,-4.8 -3.36,-8.1600005 -3.2,-3.36 -8.8,-3.36 -5.6,0 -8.96,3.52 -3.2,3.3600005 -3.2,8.0000005 0,4.64 3.2,8.16 3.2,3.36 8.8,3.36 5.76,0 8.96,-3.36 3.36,-3.52 3.36,-8.16 z"
       style="font-style:normal;font-variant:normal;font-weight:bold;font-stretch:normal;font-size:160px;line-height:1;font-family:Santana;-inkscape-font-specification:'Santana Bold';fill:#333333"
       id="path17" />
    <path
       d="m 653.42857,117.47205 q 1.12,0 0.8,-1.12 -0.8,-3.52 -1.44,-8.48 -0.64,-4.96 -0.64,-10.079996 v -26.72 q 0,-6.24 -1.6,-12.32 -1.44,-6.08 -5.44,-10.72 -3.84,-4.8 -10.4,-7.68 -6.56,-3.04 -16.64,-3.04 -3.68,0 -7.04,0.32 -3.2,0.32 -6.08,0.8 -0.8,0.32 -0.8,1.12 0,0.32 0.32,2.72 0.48,2.4 0.96,5.6 0.64,3.2 0.8,4.32 0,1.12 1.12,0.8 1.92,-0.32 3.84,-0.48 2.08,-0.32 3.84,-0.32 5.76,0 9.12,1.6 3.36,1.44 4.96,3.68 1.76,2.08 2.24,4.48 0.48,2.4 0.48,3.84 v 0.16 q -24.48,0 -37.12,7.68 -12.48,7.52 -12.48,22.24 0,3.52 1.12,7.199996 1.28,3.52 3.52,6.56 2.4,3.04 5.76,5.28 3.36,2.24 7.84,3.04 2.72,0.48 5.12,0.8 2.4,0.32 4.64,0.32 4.48,0 9.44,-1.6 3.52,-1.12 6.88,-3.68 3.52,-2.72 5.76,-4.48 l 0.96,-0.96 2.72,9.92 q 0.32,0.8 1.12,0.8 z m -21.12,-28.319996 q 0,2.08 -0.64,4 -1.6,4 -6.08,7.519996 -4.48,3.52 -11.2,3.52 -5.12,0 -8.32,-2.56 -3.2,-2.719996 -3.2,-7.839996 0,-4 2.4,-6.72 2.4,-2.72 6.4,-4.32 4,-1.6 9.28,-2.24 5.44,-0.64 11.36,-0.64 z"
       style="font-style:normal;font-variant:normal;font-weight:bold;font-stretch:normal;font-size:160px;line-height:1;font-family:Santana;-inkscape-font-specification:'Santana Bold';fill:#333333"
       id="path19" />
    <path
       d="m 676.9485,119.39205 q 5.76,0 9.28,-3.68 3.52,-3.84 3.52,-9.28 0,-5.76 -3.52,-9.279996 -3.52,-3.68 -9.28,-3.68 -5.76,0 -9.28,3.68 -3.52,3.519996 -3.52,9.279996 0,5.44 3.52,9.28 3.52,3.68 9.28,3.68 z"
       style="font-style:normal;font-variant:normal;font-weight:bold;font-stretch:normal;font-size:160px;line-height:1;font-family:Santana;-inkscape-font-specification:'Santana Bold';fill:#333333"
       id="path21" />
    <path
       d="m 399.66918,277.47205 q 1.28,-0.32 0.64,-1.44 -0.16,-0.32 -1.28,-2.56 -0.96,-2.24 -2.24,-5.92 -1.12,-3.68 -1.12,-6.56 v -28.16 q 0,-10.4 -3.04,-17.28 -2.88,-6.88 -7.36,-10.88 -4.48,-4.16 -9.92,-5.76 -5.44,-1.6 -10.4,-1.6 -4.8,0 -8.96,1.12 -4,1.12 -7.36,3.04 -3.2,1.76 -5.76,4 -2.56,2.24 -4.16,4.48 l -1.12,-10.08 q 0,-0.8 -0.96,-0.8 h -16.32 q -0.96,0 -0.96,0.96 0.32,5.12 0.48,10.72 0.16,5.44 0.16,11.84 v 53.92 q 0,0.96 0.96,0.96 h 18.72 q 0.96,0 0.96,-0.96 v -44.48 q 0,-1.44 0.16,-2.88 0.32,-1.6 0.8,-2.88 1.76,-4.48 6.08,-8.16 4.32,-3.84 10.88,-3.84 8.8,0 12.64,5.92 3.84,5.76 3.84,14.72 v 26.08 q 0,5.76 1.28,10.4 1.28,4.48 2.4,6.4 1.12,2.08 1.28,2.4 0.16,0.48 0.96,0.48 z"
       style="font-style:normal;font-variant:normal;font-weight:bold;font-stretch:normal;font-size:160px;line-height:1;font-family:Santana;-inkscape-font-specification:'Santana Bold';fill:#333333"
       id="path23" />
    <path
       d="m 489.90892,235.71205 q 0,-5.6 -1.76,-12.32 -1.6,-6.72 -5.76,-12.48 -4.16,-5.76 -11.2,-9.6 -7.04,-4 -17.76,-4 -10.24,0 -17.92,3.68 -7.68,3.52 -12.8,9.6 -5.12,5.92 -7.68,13.6 -2.56,7.52 -2.56,15.36 0,8.96 2.88,16.32 2.88,7.36 8.32,12.64 5.6,5.12 13.6,8 8,2.88 18.08,2.88 3.68,0 7.2,-0.16 3.68,-0.16 7.04,-0.96 0.8,-0.32 0.8,-1.12 l -2.08,-13.6 q 0,-0.64 -1.12,-0.64 -4.32,0.48 -9.44,0.48 -4.64,0 -8.96,-1.44 -4.32,-1.44 -7.84,-3.84 -3.36,-2.56 -5.76,-6.08 -2.4,-3.52 -3.04,-7.84 h 56.16 q 0.64,0 0.96,-0.8 0.32,-1.12 0.48,-3.04 0.16,-2.08 0.16,-4.64 z m -37.6,-24 q 5.44,0 8.8,1.92 3.52,1.92 5.44,4.8 2.08,2.72 2.88,5.76 0.8,3.04 0.96,5.12 h -38.08 q 0.48,-2.88 1.76,-5.92 1.28,-3.2 3.68,-5.76 2.4,-2.56 5.92,-4.16 3.68,-1.76 8.64,-1.76 z"
       style="font-style:normal;font-variant:normal;font-weight:bold;font-stretch:normal;font-size:160px;line-height:1;font-family:Santana;-inkscape-font-specification:'Santana Bold';fill:#333333"
       id="path25" />
    <path
       d="m 497.26875,200.03205 q -0.16,0.16 -0.16,1.76 0,1.44 0,1.76 v 10.88 q 0,0.32 0.32,0.48 0.32,0.16 0.64,0.16 h 11.52 v 35.36 q 0,7.2 1.6,12.8 1.6,5.6 4.96,9.28 2.72,3.04 7.2,4.96 4.64,1.92 10.56,1.92 4.8,0 8.64,-0.64 4,-0.64 6.24,-1.6 0.64,-0.32 0.64,-0.96 l -0.48,-14.08 q 0,-1.28 -1.28,-0.96 -1.76,0.64 -3.52,0.96 -1.76,0.16 -4.64,0.16 -5.76,0 -7.84,-3.84 -1.92,-3.84 -1.92,-10.4 v -32.96 h 18.4 q 0.96,0 0.96,-0.96 l 0.8,-14.08 q 0,-0.96 -0.96,-0.96 h -19.2 v -18.56 q 0,-1.28 -1.28,-0.96 l -18.24,5.12 q -0.64,0.32 -0.64,0.96 v 13.44 h -9.12 q -0.32,0 -0.64,0.32 z"
       style="font-style:normal;font-variant:normal;font-weight:bold;font-stretch:normal;font-size:160px;line-height:1;font-family:Santana;-inkscape-font-specification:'Santana Bold';fill:#333333"
       id="path27" />
    <path
       d="m 679.50845,200.35205 q 0.32,-1.28 -0.8,-1.28 h -18.4 q -0.48,0 -0.8,0.64 l -10.08,35.2 q -1.44,4.96 -2.88,10.72 -1.28,5.76 -2.24,10.56 -0.8,-3.04 -1.44,-5.44 -0.64,-2.4 -1.44,-4.8 -0.64,-2.4 -1.44,-4.96 -0.64,-2.72 -1.76,-6.08 l -11.04,-35.2 q -0.32,-0.64 -0.96,-0.64 h -15.36 q -0.64,0 -0.96,0.64 -2.72,8.64 -5.92,17.92 -3.04,9.28 -5.76,17.92 -0.16,0.32 -0.32,0.8 0,0.48 -0.16,0.8 -1.6,5.12 -3.04,9.6 -1.28,4.48 -2.56,9.76 -0.8,-3.04 -1.44,-5.6 -0.48,-2.56 -0.96,-4.8 -0.48,-2.4 -1.12,-4.8 -0.64,-2.56 -1.44,-5.76 l -9.44,-35.84 q -0.32,-0.64 -0.96,-0.64 h -18.88 q -1.12,0 -0.8,1.28 l 24,76.48 q 0.32,0.64 0.96,0.64 h 17.76 q 0.64,0 0.96,-0.64 l 11.2,-32.48 q 1.76,-5.12 3.04,-9.92 1.28,-4.8 2.56,-11.04 0.96,3.36 1.6,6.08 0.64,2.56 1.28,4.96 0.64,2.24 1.44,4.64 0.8,2.4 1.76,5.44 l 10.56,32.32 q 0.32,0.64 0.96,0.64 h 17.76 q 0.64,0 0.96,-0.64 z"
       style="font-style:normal;font-variant:normal;font-weight:bold;font-stretch:normal;font-size:160px;line-height:1;font-family:Santana;-inkscape-font-specification:'Santana Bold';fill:#333333"
       id="path29" />
    <path
       d="m 774.0682,237.31205 q 0,-8.48 -3.04,-15.84 -3.04,-7.36 -8.64,-12.64 -5.44,-5.44 -13.28,-8.48 -7.84,-3.04 -17.44,-3.04 -9.76,0 -17.92,3.04 -8,2.88 -13.76,8.48 -5.76,5.44 -8.96,13.12 -3.2,7.68 -3.2,17.12 0,9.12 3.2,16.64 3.36,7.36 9.12,12.64 5.76,5.28 13.44,8.16 7.84,2.88 16.8,2.88 8.32,0 16.16,-2.56 7.84,-2.72 13.92,-8 6.08,-5.28 9.76,-13.12 3.84,-7.84 3.84,-18.4 z m -21.28,0.8 q 0,6.24 -1.76,11.04 -1.76,4.8 -4.8,8.16 -2.88,3.36 -7.04,5.12 -4,1.6 -8.64,1.6 -4.64,0 -8.64,-1.76 -4,-1.92 -7.04,-5.28 -2.88,-3.36 -4.64,-8 -1.6,-4.8 -1.6,-10.56 0,-4.96 1.28,-9.6 1.44,-4.8 4.16,-8.32 2.88,-3.68 7.04,-5.76 4.16,-2.24 9.92,-2.24 5.76,0 9.76,2.4 4.16,2.24 6.72,5.92 2.72,3.52 4,8.16 1.28,4.64 1.28,9.12 z m -20.96,-7.84 q -3.04,0 -5.12,2.08 -1.92,2.08 -1.92,4.96 0,3.04 1.92,5.12 2.08,2.08 5.12,2.08 2.88,0 4.96,-2.08 2.08,-2.08 2.08,-5.12 0,-2.88 -2.08,-4.96 -2.08,-2.08 -4.96,-2.08 z"
       style="font-style:normal;font-variant:normal;font-weight:bold;font-stretch:normal;font-size:160px;line-height:1;font-family:Santana;-inkscape-font-specification:'Santana Bold';fill:#333333"
       id="path31" />
    <path
       d="m 837.10812,216.03205 v -17.44 q 0,-0.64 -0.64,-0.8 -1.27999,-0.32 -2.4,-0.32 -0.96,-0.16 -2.56,-0.16 -6.23999,0 -12.31999,3.52 -6.08001,3.52 -9.76,10.72 l -0.80001,-11.52 q 0,-0.96 -0.95999,-0.96 h -16.32001 q -0.96,0 -0.96,0.96 0.32,5.44 0.48,11.52 0.16001,5.92 0.16001,14.08 v 50.88 q 0,0.96 0.95999,0.96 h 18.72 q 0.96001,0 0.96001,-0.96 v -39.68 q 0,-1.12 0,-2.56 0.15999,-1.6 0.48,-2.88 1.59999,-6.4 6.07999,-10.72 4.64,-4.32 11.84,-4.32 3.20001,0 5.92,0.48 z"
       style="font-style:normal;font-variant:normal;font-weight:bold;font-stretch:normal;font-size:160px;line-height:1;font-family:Santana;-inkscape-font-specification:'Santana Bold';fill:#333333"
       id="path33" />
    <path
       d="m 928.30804,277.47205 q 0.64,0 0.8,-0.48 0.32,-0.64 0,-1.12 -9.12,-11.2 -18.24,-22.4 -8.96,-11.2 -17.92,-22.4 l 31.04,-30.4 q 0.48,-0.48 0.32,-0.96 -0.16,-0.64 -0.96,-0.64 h -23.04 q -0.48,0 -0.8,0.32 -5.44,6.24 -10.88,12.64 -5.44,6.24 -11.04,12.48 h 0.16 q -1.28,1.28 -2.72,3.04 -1.28,1.76 -2.56,3.36 l -0.32,-67.04 q 0,-0.96 -0.96,-0.96 h -18.72 q -0.96,0 -0.96,0.96 v 112.64 q 0,0.96 0.96,0.96 h 18.72 q 0.96,0 0.96,-0.96 v -26.24 q 1.76,-1.76 3.2,-3.52 1.6,-1.92 3.2,-3.52 l 26.24,35.52 q 0.32,0.32 0.8,0.32 z"
       style="font-style:normal;font-variant:normal;font-weight:bold;font-stretch:normal;font-size:160px;line-height:1;font-family:Santana;-inkscape-font-specification:'Santana Bold';fill:#333333"
       id="path35" />
  </g>
  <path
     style="fill:#ffa500;stroke:#ffa500;stroke-width:0.516862"
     d="m 216.64867,126.52197 c -21.33982,-3.9513 -35.07905,-24.82965 -29.76505,-45.231448 3.61998,-13.898058 14.19363,-23.707739 28.13001,-26.097563 15.53547,-2.664037 32.68263,6.262036 39.50939,20.566874 5.85736,12.273562 3.30221,28.620507 -6.15252,39.361657 -7.54432,8.5708 -20.96165,13.39284 -31.72183,11.40048 z m 13.18323,-18.08324 c 4.2263,-1.7661 6.83075,-4.20226 8.93776,-8.36025 5.71651,-11.280997 0.84051,-24.333423 -10.49702,-28.099146 -15.36668,-5.10399 -30.52764,9.940086 -25.20902,25.014663 3.79648,10.760363 15.96056,15.961103 26.76828,11.444733 z"
     id="path848" />
  <path
     style="fill:#ffa500;stroke:#ffa500;stroke-width:0.516862"
     d="M 117.99615,71.273824 C 100.37958,65.678863 89.976567,49.199618 92.593584,31.034027 94.970673,14.533864 108.04959,1.5339242 123.21554,0.59699084 138.80346,-0.36601194 154.38818,8.4392308 160.72939,21.79202 c 6.11507,12.8766 3.77982,27.748757 -6.04515,38.498843 -7.48091,8.185299 -16.34818,12.105215 -27.1853,12.017675 -3.52429,-0.02847 -7.80055,-0.494089 -9.50279,-1.034714 z M 137.6012,54.24216 c 2.88298,-1.490844 6.97589,-6.184236 8.4419,-9.680419 2.70052,-6.440291 0.98125,-15.625693 -4.03579,-21.561632 -7.96726,-9.426498 -24.71917,-7.350024 -31.65721,3.924052 -3.77829,6.139584 -2.76776,14.661987 2.63882,22.254829 4.71159,6.616827 16.79922,9.10346 24.61228,5.06317 z"
     id="path850" />
  <path
     style="fill:#ffa500;stroke:#ffa500;stroke-width:0.516862"
     d="M 25.117362,127.31711 C 15.683588,124.24016 6.9540031,115.7822 2.9940797,105.88221 1.4466566,102.01359 1.189338,100.00451 1.1760716,91.687661 1.1609375,82.199908 1.2155828,81.887913 3.8187201,76.599628 7.2068584,69.71661 12.791572,64.111765 19.602172,60.759282 c 4.802515,-2.364014 6.071361,-2.635214 13.823556,-2.954618 5.254666,-0.216501 10.211395,0.01623 12.895131,0.605452 9.993401,2.194089 18.284071,8.944738 22.817744,18.579268 1.93067,4.102878 2.420286,6.26991 2.689678,11.904482 0.187486,3.921429 -0.08176,8.75969 -0.625088,11.232694 -2.359408,10.73902 -10.674808,21.11852 -20.687218,25.82231 -4.641032,2.18034 -6.151818,2.49201 -12.98933,2.67967 -6.032364,0.16556 -8.766975,-0.12344 -12.409283,-1.31143 z m 19.372991,-17.33986 c 7.211711,-3.40934 11.18532,-9.76354 11.18532,-17.886447 0,-18.109135 -22.421681,-25.774598 -34.413276,-11.765117 -2.615521,3.055649 -5.013746,9.053361 -5.013746,12.538862 0,6.369433 5.102279,14.395682 11.010399,17.320142 4.689151,2.32109 12.070728,2.23222 17.231303,-0.20744 z"
     id="path852" />
  <path
     style="fill:#ffa500;stroke:#ffa500;stroke-width:0.516862"
     d="M 30.38076,232.10651 C 12.929769,227.40675 1.0615484,210.82916 2.5381841,193.21586 4.9166034,164.84609 37.039953,151.29072 60.356222,168.81788 c 8.990737,6.75846 13.932496,16.56679 13.91414,27.6166 -0.01766,10.63138 -3.287411,18.50446 -10.817291,26.04647 -9.282834,9.29778 -21.301186,12.79567 -33.072311,9.62556 z m 17.323168,-18.01244 c 11.122588,-5.6796 13.625519,-22.25439 4.707319,-31.17259 -5.776495,-5.7765 -15.217766,-7.44107 -22.073674,-3.89176 -15.973764,8.26962 -15.256923,30.05257 1.190975,36.19063 4.04104,1.50804 12.117818,0.94566 16.17538,-1.12628 z"
     id="path854" />
  <path
     style="fill:#ffa500;stroke:#ffa500;stroke-width:0.516862"
     d="m 123.11241,283.91731 c -9.24718,-2.48688 -18.61683,-9.68528 -22.49086,-17.27899 -5.747355,-11.26576 -5.352598,-26.6096 0.96181,-37.38431 2.81522,-4.80381 9.90674,-11.1916 15.05669,-13.56252 3.49076,-1.60707 5.97113,-2.1177 11.49644,-2.36677 23.93986,-1.07915 43.48748,18.88156 39.82146,40.66302 -3.53972,21.03106 -24.90731,35.29163 -44.84554,29.92957 z m 15.05412,-16.16411 c 4.73112,-1.41149 9.13168,-4.96956 11.36426,-9.18857 2.26534,-4.28091 2.4028,-13.51302 0.26098,-17.52786 -4.32634,-8.10973 -9.90554,-11.88339 -17.46385,-11.81219 -7.1989,0.0678 -14.4399,4.65074 -18.05188,11.42531 -2.32266,4.35635 -2.30542,12.68569 0.0355,17.1216 2.04907,3.88297 7.74007,9.0385 11.20165,10.14769 3.71122,1.18919 8.31343,1.12882 12.65339,-0.16598 z"
     id="path856" />
  <path
     style="fill:#ffa500;stroke:#ffa500;stroke-width:0.516862"
     d="m 217.42242,228.55956 c -9.91902,-1.60855 -20.04302,-9.12862 -24.69436,-18.34287 -7.97094,-15.79034 -5.65694,-32.75133 5.94943,-43.60773 6.91083,-6.46427 14.15425,-9.11247 24.96577,-9.1275 18.35941,-0.0255 30.7676,9.11673 35.13592,25.88784 1.47325,5.65619 1.49316,9.34242 0.0863,15.97962 -1.52848,7.21102 -5.28277,14.16255 -10.42694,19.30671 -5.17322,5.17322 -10.6535,8.15405 -17.76104,9.66057 -5.71679,1.21173 -7.12433,1.23757 -13.25509,0.24336 z m 13.66238,-18.1785 c 6.45687,-2.29055 12.64496,-11.52333 12.64496,-18.86659 0,-3.68565 -2.39478,-9.17153 -5.31913,-12.18487 -8.3894,-8.6447 -20.9065,-8.38236 -28.98923,0.60757 -10.43381,11.60492 -4.46525,29.28312 10.70913,31.71923 3.71094,0.59575 6.64165,0.25455 10.95427,-1.27534 z"
     id="path858" />
  <path
     style="fill:#ffffff;stroke:#ffffff;stroke-width:0.516862"
     d="m 332.96843,117.67035 c -5.73937,-1.30278 -7.20388,-2.04298 -11.21896,-5.67037 -4.93003,-4.45398 -7.13157,-9.50955 -7.16966,-16.464273 -0.0279,-5.083789 0.29977,-6.513953 2.53002,-11.044238 5.29954,-10.764888 17.63948,-16.437707 39.09508,-17.97247 l 7.63266,-0.545981 -0.41886,-3.12277 c -0.55811,-4.161059 -2.56515,-6.746492 -6.94111,-8.941412 -3.06083,-1.535273 -4.74873,-1.809035 -10.92086,-1.771266 l -7.30047,0.04468 -0.9023,-5.349408 c -1.36815,-8.111317 -1.4334,-8.018404 6.19707,-8.823688 16.01733,-1.690395 29.18482,3.517632 35.30726,13.964789 3.76404,6.422847 4.24187,9.887107 4.94636,35.861265 0.36359,13.405132 0.88827,25.465842 1.16596,26.801562 l 0.5049,2.4286 -5.68484,0.50486 c -3.12667,0.27768 -6.97279,0.69221 -8.54694,0.92117 l -2.8621,0.41631 -1.25304,-4.51039 c -0.68917,-2.4807 -1.40185,-4.97034 -1.58374,-5.53252 -0.2446,-0.756 -0.95171,-0.55453 -2.7157,0.77375 -6.72277,5.06221 -9.58868,6.85804 -12.18203,7.63347 -4.6209,1.38167 -12.55868,1.56052 -17.6787,0.39833 z m 22.18065,-15.15507 c 6.45359,-3.299788 9.28494,-8.622467 9.28494,-17.454849 v -5.919457 l -6.77027,0.523401 c -15.84642,1.225069 -23.3956,5.807491 -23.4029,14.205779 -0.007,7.659056 5.1815,11.448086 14.31139,10.451926 2.1278,-0.23216 5.08738,-1.04522 6.57684,-1.8068 z"
     id="path882" />
  <path
     style="fill:#ffffff;stroke:#ffffff;stroke-width:0.516862"
     d="m 430.80716,117.58343 c -20.626,-5.00042 -32.90115,-24.251779 -29.25332,-45.878557 3.9676,-23.522641 27.64649,-37.816231 54.80453,-33.082354 3.95958,0.690189 8.37332,1.745454 9.80832,2.345033 l 2.60908,1.090143 -1.15219,4.512305 c -0.63371,2.481767 -1.47751,5.764309 -1.87513,7.294537 l -0.72294,2.782233 -4.45134,-1.576489 c -6.03466,-2.137241 -18.20127,-2.268298 -23.96538,-0.258152 -5.36284,1.870214 -11.12603,7.139552 -13.45562,12.302617 -1.52852,3.387662 -1.84175,5.339634 -1.83502,11.435515 0.007,6.25629 0.28992,7.905415 1.90101,11.077527 2.30923,4.54668 7.40889,9.380025 12.2635,11.623052 5.20216,2.40362 19.4582,2.34742 25.6234,-0.101 2.31521,-0.91945 4.31309,-1.56813 4.43972,-1.4415 0.12663,0.12663 0.88199,3.40785 1.67859,7.2916 l 1.44835,7.06137 -2.85716,1.14321 c -8.56119,3.42551 -25.8464,4.60008 -35.0084,2.37891 z"
     id="path884" />
  <path
     style="fill:#ffffff;stroke:#ffffff;stroke-width:0.516862"
     d="m 485.65411,116.72169 c -0.2837,-0.2837 -0.51583,-17.867063 -0.51583,-39.074132 V 39.089252 h 8.07866 c 4.54272,0 8.28764,0.338131 8.55612,0.772537 0.2626,0.424894 0.68183,3.210377 0.93163,6.189961 0.2498,2.979585 0.75186,5.417427 1.1157,5.417427 0.36384,0 0.66152,-0.310528 0.66152,-0.690062 0,-1.679998 7.40521,-8.696678 11.06254,-10.482115 4.43115,-2.163204 10.17287,-3.224985 13.25558,-2.451275 l 1.98922,0.499265 v 8.883329 8.883329 l -5.60965,0.01699 c -6.96913,0.02111 -10.85113,1.658797 -14.76177,6.227507 -4.75211,5.551765 -5.16217,8.170783 -5.16217,32.970072 v 21.911303 h -9.54286 c -5.24857,0 -9.77498,-0.23212 -10.05869,-0.51583 z"
     id="path886" />
  <path
     style="fill:#ffffff;stroke:#ffffff;stroke-width:0.516862"
     d="m 545.67668,78.379995 0.20061,-38.90387 h 9.67181 9.67182 v 38.687263 38.687262 l -9.87242,0.21661 -9.87243,0.2166 z"
     id="path888" />
  <path
     style="fill:#ffffff;stroke:#ffffff;stroke-width:0.516862"
     d="m 550.14831,26.948274 c -9.89337,-5.142229 -7.34365,-19.4168745 3.73361,-20.9026468 8.65174,-1.1604421 15.05773,6.2406158 12.57476,14.5280418 -1.82989,6.107631 -10.38689,9.452384 -16.30837,6.374605 z"
     id="path890" />
  <path
     style="fill:#ffffff;stroke:#ffffff;stroke-width:0.516862"
     d="m 601.48524,117.67878 c -5.9294,-1.3503 -8.80524,-2.82294 -12.26071,-6.27842 -4.7807,-4.7807 -6.18766,-8.37353 -6.19819,-15.827703 -0.008,-5.654183 0.29584,-7.198186 2.16568,-11.005944 5.10571,-10.39732 16.6765,-15.932186 37.16914,-17.779774 l 9.94177,-0.896337 -0.49044,-3.067095 c -1.16687,-7.297175 -6.65936,-10.725558 -17.13625,-10.69636 -3.57623,0.01 -6.82109,0.215188 -7.2108,0.456047 -0.38972,0.240859 -1.11426,-2.087421 -1.61009,-5.173954 -0.49583,-3.086534 -1.06952,-6.209605 -1.27486,-6.940159 -0.54084,-1.924136 2.43511,-2.503299 12.86823,-2.50434 13.73059,-0.0014 21.78121,3.320626 28.03925,11.570072 4.99548,6.585124 5.37802,8.800116 6.08014,35.20541 0.34513,12.979577 0.97665,25.166067 1.40338,27.081087 0.42672,1.91502 0.79103,3.86636 0.80956,4.33631 0.0332,0.8413 -15.93195,2.89363 -17.06452,2.19366 -0.29834,-0.18438 -0.97041,-2.16429 -1.49351,-4.39979 -1.47307,-6.29533 -1.41128,-6.27661 -6.94374,-2.10348 -2.76511,2.08572 -6.5943,4.34423 -8.50932,5.01891 -4.92668,1.73573 -12.71027,2.08133 -18.28472,0.81186 z m 21.96095,-15.26484 c 3.88783,-1.84859 7.66226,-6.151796 8.71528,-9.936264 0.41444,-1.48946 0.75547,-5.099543 0.75784,-8.022405 l 0.004,-5.314297 -6.77027,0.540612 c -11.7321,0.93682 -17.65913,2.99031 -21.3741,7.40531 -3.54819,4.216784 -2.37257,13.190974 2.03847,15.560894 4.69025,2.51992 11.02422,2.43085 16.62846,-0.23385 z"
     id="path892" />
  <path
     style="fill:#ffffff;stroke:#ffffff;stroke-width:0.516862"
     d="m 670.83715,117.39762 c -8.28605,-4.53391 -8.10461,-18.130505 0.29513,-22.116443 10.89304,-5.169084 22.11333,5.964393 16.81068,16.680613 -2.25945,4.56615 -4.90057,6.30106 -10.10695,6.63907 -3.16862,0.20572 -4.99899,-0.10896 -6.99886,-1.20324 z"
     id="path894" />
  <path
     style="fill:#ffffff;stroke:#ffffff;stroke-width:0.516862"
     d="m 379.181,277.4854 c -2.9908,-5.87764 -3.3627,-8.77495 -3.83436,-29.8718 -0.46687,-20.88265 -0.46794,-20.89291 -2.63217,-25.30011 -3.10672,-6.32644 -6.03846,-7.97093 -14.21032,-7.97093 -5.77825,0 -6.59469,0.19788 -9.57712,2.32123 -1.79321,1.27668 -4.34755,3.83453 -5.67631,5.68411 l -2.41593,3.36288 -0.38687,25.65257 -0.38687,25.65257 -9.22059,0.21911 c -5.07132,0.12051 -9.4912,-0.0535 -9.82196,-0.38687 -0.33076,-0.33329 -0.66491,-17.84116 -0.74256,-38.90637 l -0.14119,-38.30039 8.52809,-0.21802 8.5281,-0.21802 0.5464,5.4408 c 0.30052,2.99244 0.69861,5.4408 0.88464,5.4408 0.18603,0 1.80457,-1.4348 3.59676,-3.18844 13.33571,-13.04888 36.65565,-11.71338 46.51632,2.66392 5.55894,8.10517 6.04216,10.69341 6.59857,35.34305 0.48755,21.59933 0.54001,22.15176 2.55686,26.92665 1.45206,3.43775 1.78528,4.97102 1.13028,5.20089 -0.51086,0.17928 -4.86428,0.98232 -9.67428,1.78453 l -8.74545,1.45855 z"
     id="path896" />
  <path
     style="fill:#ffffff;stroke:#ffffff;stroke-width:0.516862"
     d="m 443.35604,277.74318 c -10.08604,-2.17405 -19.65072,-8.42579 -24.47017,-15.99439 -3.56123,-5.59267 -5.7059,-13.73136 -5.7059,-21.65307 0,-12.73448 3.90284,-23.07917 11.61811,-30.79444 5.0678,-5.0678 13.46255,-9.60597 20.01762,-10.82144 25.13166,-4.66004 44.33955,11.35895 44.53434,37.14071 0.071,9.40673 3.15756,8.5112 -29.33419,8.5112 -22.10603,0 -28.26229,0.21077 -28.249,0.96718 0.0352,2.00394 3.02497,7.48087 5.7,10.44181 1.56795,1.73554 4.88434,4.04586 7.62099,5.30906 4.2981,1.98397 5.86177,2.26549 13.85183,2.49387 l 9.0068,0.25744 0.85845,5.77183 c 1.27265,8.55666 1.27826,8.53174 -2.04309,9.08072 -4.97876,0.82294 -18.14613,0.42324 -23.40579,-0.71048 z m 27.07352,-50.44039 c -0.01,-2.79011 -3.16425,-9.41293 -5.51025,-11.56925 -2.9728,-2.73245 -7.19541,-4.09909 -12.6652,-4.09909 -10.42578,0 -16.87939,5.15624 -20.09491,16.05521 l -0.51362,1.74093 h 19.39577 19.39577 l -0.008,-2.1278 z"
     id="path898" />
  <path
     style="fill:#ffffff;stroke:#ffffff;stroke-width:0.516862"
     d="m 525.00093,277.62513 c -5.35857,-1.85697 -10.55294,-7.11449 -12.83314,-12.98913 -1.709,-4.40302 -1.8176,-5.80985 -2.10544,-27.27452 l -0.3035,-22.63205 h -6.12032 -6.12032 v -7.25386 -7.25387 l 2.41795,-0.48359 c 1.32988,-0.26597 4.10229,-0.48359 6.16093,-0.48359 h 3.74297 l 0.22247,-7.0933 0.22247,-7.09331 7.73746,-2.14814 c 4.2556,-1.18147 8.52087,-2.34843 9.47838,-2.59325 1.7364,-0.44395 1.74092,-0.41993 1.74092,9.24145 v 9.68655 h 10.05869 10.05869 l -0.007,3.67529 c -0.004,2.02141 -0.22629,5.50327 -0.49465,7.73746 l -0.48792,4.06216 h -9.621 -9.621 l 0.2504,20.31081 c 0.2323,18.84314 0.36528,20.50638 1.84024,23.01719 2.35164,4.00316 4.39113,4.78754 11.37039,4.37298 l 5.99652,-0.35619 0.11607,6.1168 c 0.0638,3.36423 0.15088,6.54734 0.19343,7.07355 0.25332,3.13229 -16.80422,4.81746 -23.89396,2.36056 z"
     id="path900" />
  <path
     style="fill:#ffffff;stroke:#ffffff;stroke-width:0.516862"
     d="m 581.45797,276.43561 c -1.67985,-4.64334 -23.58763,-75.37951 -23.58763,-76.16011 0,-0.79073 2.16942,-1.02098 9.61967,-1.02098 8.4917,0 9.6671,0.15877 10.0241,1.35406 1.41153,4.72604 8.61754,32.67028 10.92406,42.36255 3.11814,13.10275 3.35688,13.91854 3.91113,13.36429 0.21875,-0.21876 1.23185,-3.48931 2.25133,-7.26789 1.01948,-3.77858 5.02329,-16.53229 8.89735,-28.34158 l 7.04376,-21.47143 h 8.09597 c 4.45277,0 8.09596,0.11013 8.09596,0.24472 0,0.1346 2.57203,8.44115 5.71562,18.45901 3.14359,10.01785 7.03931,22.79454 8.65716,28.39264 1.61785,5.59809 3.17701,9.91326 3.46479,9.58926 0.28779,-0.324 0.95196,-2.8523 1.47594,-5.61844 0.71642,-3.78212 10.02572,-37.67736 13.65366,-49.71313 0.36039,-1.19559 1.54003,-1.35406 10.07997,-1.35406 h 9.67182 l -0.54141,1.74093 c -0.29778,0.95751 -6.19379,18.45382 -13.10226,38.8807 l -12.56085,37.13977 h -9.19506 -9.19506 l -5.90588,-17.79614 c -3.24824,-9.78788 -7.05626,-21.89192 -8.46228,-26.89788 -1.40602,-5.00596 -2.78367,-8.836 -3.06144,-8.5112 -0.27778,0.3248 -1.26075,3.7551 -2.18439,7.6229 -1.59846,6.69362 -13.15487,41.31472 -14.84465,44.47211 -0.72089,1.347 -1.69295,1.49708 -9.69635,1.49708 -6.41365,0 -8.99274,-0.26981 -9.24503,-0.96718 z"
     id="path902" />
  <path
     style="fill:#ffffff;stroke:#ffffff;stroke-width:0.516862"
     d="m 719.80973,277.78352 c -14.82948,-3.22278 -27.36497,-15.0675 -30.43252,-28.75551 -1.23402,-5.50646 -0.98827,-16.9761 0.46964,-21.91866 5.34323,-18.11449 21.33999,-29.37545 41.7293,-29.37545 31.68219,0 51.20468,29.79644 37.91256,57.86451 -8.31602,17.56037 -28.82214,26.71778 -49.67898,22.18511 z m 21.75015,-16.15767 c 4.3773,-2.56527 8.42718,-7.9316 10.17511,-13.48262 1.78632,-5.67297 1.28745,-17.67452 -0.94028,-22.62068 -3.86702,-8.58581 -10.77059,-13.10587 -19.9923,-13.08981 -12.07477,0.021 -20.03628,7.53772 -22.10482,20.86978 -2.12597,13.70224 3.80377,25.8796 14.55347,29.88712 4.79766,1.78858 13.91762,1.00963 18.30882,-1.56379 z"
     id="path904" />
  <path
     style="fill:#ffffff;stroke:#ffffff;stroke-width:0.516862"
     d="m 727.87118,242.57483 c -4.99679,-3.93047 -2.42009,-11.51083 3.93358,-11.57214 6.74801,-0.0651 8.76916,9.00915 2.7238,12.22893 -2.44932,1.30451 -4.40988,1.11109 -6.65738,-0.65679 z"
     id="path906" />
  <path
     style="fill:#ffffff;stroke:#ffffff;stroke-width:0.516862"
     d="m 791.53741,245.89579 c -0.002,-17.35428 -0.22959,-34.95994 -0.50531,-39.1237 l -0.50131,-7.57046 8.82307,0.21988 8.82307,0.21989 0.38687,5.54773 c 0.21278,3.05125 0.62234,5.78205 0.91013,6.06843 0.28779,0.28638 1.04867,-0.49534 1.69084,-1.73716 1.65019,-3.19111 7.02404,-7.83788 11.23174,-9.71208 2.34058,-1.04255 5.3146,-1.61405 8.60591,-1.65375 l 5.02934,-0.0607 0.21799,9.09151 0.21799,9.09151 h -5.46562 c -8.52418,0 -12.81515,2.35716 -16.90229,9.28494 l -2.05417,3.48186 -0.38687,23.9861 -0.38688,23.9861 -9.86525,0.21656 -9.86525,0.21655 z"
     id="path908" />
  <path
     style="fill:#ffffff;stroke:#ffffff;stroke-width:0.516862"
     d="m 892.07525,260.7261 -13.4875,-18.28546 -3.27118,3.70633 -3.27119,3.70633 -0.21067,13.58131 -0.21067,13.58131 h -9.67181 -9.67182 v -56.87028 -56.87027 h 9.67182 9.67181 l 0.20157,33.85135 c 0.11087,18.61825 0.45905,33.82916 0.77375,33.80203 0.3147,-0.0271 1.9206,-1.68101 3.56868,-3.67529 1.64807,-1.99428 7.74132,-9.10573 13.54054,-15.80321 l 10.54404,-12.17726 11.79961,-0.009 c 6.48979,-0.005 11.79962,0.18467 11.79962,0.42167 0,0.237 -6.96371,7.24115 -15.47491,15.56478 -8.51119,8.32364 -15.4749,15.45415 -15.4749,15.84558 0,0.67413 13.9005,18.26036 28.78929,36.42277 3.74165,4.56433 6.80299,8.61077 6.80299,8.99209 0,0.38132 -4.26527,0.92622 -9.47838,1.21089 -5.21311,0.28467 -10.37271,0.69138 -11.46578,0.9038 -1.82643,0.35494 -3.07987,-1.09486 -15.47491,-17.89924 z"
     id="path910" />
</svg>
