<?xml version="1.0" encoding="UTF-8" standalone="no"?>
<svg
   xmlns:dc="http://purl.org/dc/elements/1.1/"
   xmlns:cc="http://creativecommons.org/ns#"
   xmlns:rdf="http://www.w3.org/1999/02/22-rdf-syntax-ns#"
   xmlns:svg="http://www.w3.org/2000/svg"
   xmlns="http://www.w3.org/2000/svg"
   xmlns:sodipodi="http://sodipodi.sourceforge.net/DTD/sodipodi-0.dtd"
   xmlns:inkscape="http://www.inkscape.org/namespaces/inkscape"
   width="24px"
   height="24px"
   viewBox="0 0 24 24"
   version="1.1"
   id="svg12"
   sodipodi:docname="cloud-upload-svgrepo-com.svg"
   inkscape:version="1.0.2 (e86c870879, 2021-01-15)">
  <metadata
     id="metadata18">
    <rdf:RDF>
      <cc:Work
         rdf:about="">
        <dc:format>image/svg+xml</dc:format>
        <dc:type
           rdf:resource="http://purl.org/dc/dcmitype/StillImage" />
      </cc:Work>
    </rdf:RDF>
  </metadata>
  <defs
     id="defs16" />
  <sodipodi:namedview
     pagecolor="#ffffff"
     bordercolor="#666666"
     borderopacity="1"
     objecttolerance="10"
     gridtolerance="10"
     guidetolerance="10"
     inkscape:pageopacity="0"
     inkscape:pageshadow="2"
     inkscape:window-width="1920"
     inkscape:window-height="1030"
     id="namedview14"
     showgrid="false"
     inkscape:zoom="34.958333"
     inkscape:cx="12"
     inkscape:cy="12"
     inkscape:window-x="0"
     inkscape:window-y="22"
     inkscape:window-maximized="1"
     inkscape:current-layer="svg12" />
  <g
     data-name="Layer 2"
     id="g10">
    <g
       data-name="cloud-upload"
       id="g8">
      <rect
         width="24"
         height="24"
         opacity="0"
         id="rect2" />
      <path
         d="M21.9 12c0-.11-.06-.22-.09-.33a4.17 4.17 0 0 0-.18-.57c-.05-.12-.12-.24-.18-.37s-.15-.3-.24-.44S21 10.08 21 10s-.2-.25-.31-.37-.21-.2-.32-.3L20 9l-.36-.24a3.68 3.68 0 0 0-.44-.23l-.39-.18a4.13 4.13 0 0 0-.5-.15 3 3 0 0 0-.41-.09L17.67 8A6 6 0 0 0 6.33 8l-.18.05a3 3 0 0 0-.41.09 4.13 4.13 0 0 0-.5.15l-.39.18a3.68 3.68 0 0 0-.44.23l-.36.3-.37.31c-.11.1-.22.19-.32.3s-.21.25-.31.37-.18.23-.26.36-.16.29-.24.44-.13.25-.18.37a4.17 4.17 0 0 0-.18.57c0 .11-.07.22-.09.33A5.23 5.23 0 0 0 2 13a5.5 5.5 0 0 0 .09.91c0 .1.05.19.07.29a5.58 5.58 0 0 0 .18.58l.12.29a5 5 0 0 0 .3.56l.14.22a.56.56 0 0 0 .05.08L3 16a5 5 0 0 0 4 2h3v-1.37a2 2 0 0 1-1 .27 2.05 2.05 0 0 1-1.44-.61 2 2 0 0 1 .05-2.83l3-2.9A2 2 0 0 1 12 10a2 2 0 0 1 1.41.59l3 3a2 2 0 0 1 0 2.82A2 2 0 0 1 15 17a1.92 1.92 0 0 1-1-.27V18h3a5 5 0 0 0 4-2l.05-.05a.56.56 0 0 0 .05-.08l.14-.22a5 5 0 0 0 .3-.56l.12-.29a5.58 5.58 0 0 0 .18-.58c0-.1.05-.19.07-.29A5.5 5.5 0 0 0 22 13a5.23 5.23 0 0 0-.1-1z"
         id="path4" />
      <path
         d="M12.71 11.29a1 1 0 0 0-1.4 0l-3 2.9a1 1 0 1 0 1.38 1.44L11 14.36V20a1 1 0 0 0 2 0v-5.59l1.29 1.3a1 1 0 0 0 1.42 0 1 1 0 0 0 0-1.42z"
         id="path6" />
    </g>
  </g>
  <path
     style="fill:#ffffff;stroke:#ffffff;stroke-width:0.0286055"
     d="M 6.3057423,17.934548 C 5.3520386,17.795288 4.4242066,17.364923 3.7007735,16.726259 2.6546144,15.802686 2.0269895,14.405884 2.0269895,13.001192 c 0,-0.376842 0.056443,-0.881084 0.1162265,-1.038326 0.016396,-0.04313 0.048745,-0.160051 0.071886,-0.259833 0.09316,-0.4017 0.3446378,-0.966136 0.6208561,-1.393499 C 3.1283588,9.857133 3.4106954,9.55773 4.0333731,9.0397385 4.4391454,8.7021855 4.5117801,8.6541717 4.8896041,8.4737435 5.2820281,8.2863433 5.6853477,8.1553631 6.180151,8.0546314 L 6.3388482,8.0223241 6.4624148,7.7088009 C 7.0200177,6.2940041 8.2131805,5.0775169 9.6400477,4.4690497 10.430983,4.1317666 11.133584,3.9887822 12,3.9887822 c 1.216366,0 2.287692,0.3217407 3.305321,0.9926546 1.028974,0.6783938 1.880734,1.7442586 2.285888,2.860486 0.07636,0.2103867 0.107516,0.2282039 0.616181,0.3524178 0.441086,0.1077114 0.585697,0.1593483 0.986889,0.3523935 0.44935,0.2162177 0.725692,0.4032278 1.129916,0.7646543 0.403509,0.3607861 0.601874,0.5676464 0.650123,0.6779654 0.01919,0.043877 0.08266,0.1377022 0.141037,0.2085012 0.287753,0.348961 0.663767,1.25497 0.784092,1.889272 0.08981,0.473411 0.100823,1.240219 0.02419,1.683261 -0.06912,0.399595 -0.299038,1.120254 -0.46188,1.447729 -0.641278,1.289611 -1.846789,2.254364 -3.271485,2.618121 -0.506101,0.129219 -0.717295,0.14123 -2.49301,0.141784 l -1.680572,5.24e-4 v -0.600715 c 0,-0.330394 0.0048,-0.600715 0.01074,-0.600715 0.0059,0 0.08463,0.03268 0.174948,0.07262 0.244777,0.108252 0.483329,0.15533 0.789471,0.155802 0.553336,8.52e-4 1.024796,-0.194476 1.413395,-0.585579 0.408898,-0.411532 0.557921,-0.754065 0.578879,-1.330566 0.01566,-0.430794 -0.02637,-0.644656 -0.196763,-1.001192 L 16.671156,13.845054 14.907688,12.082981 13.144219,10.320908 12.901073,10.20467 c -0.321448,-0.153671 -0.554899,-0.2070538 -0.905476,-0.2070538 -0.451646,0 -0.831111,0.1204638 -1.186284,0.3765948 -0.174529,0.125859 -3.2630167,3.114397 -3.4076438,3.297364 -0.5302372,0.6708 -0.5521825,1.66986 -0.052315,2.381646 0.5527331,0.787063 1.593094,1.072941 2.4789362,0.681179 l 0.1550232,-0.06856 v 0.656352 0.656352 l -1.7091776,-0.0031 c -1.2539268,-0.0023 -1.7782215,-0.01316 -1.9683936,-0.04092 z"
     id="path20" />
  <path
     style="fill:#ffffff;stroke:#ffffff;stroke-width:0.0286055"
     d="M 11.701905,20.936834 C 11.423194,20.83549 11.230909,20.657933 11.10182,20.382712 l -0.07441,-0.158636 -0.0143,-2.943718 -0.0143,-2.943718 -0.715137,0.69389 C 9.8903456,15.412169 9.5217922,15.754513 9.4646635,15.791292 8.7435682,16.25554 7.7818879,15.570125 7.993796,14.742967 c 0.025735,-0.100453 0.081639,-0.235696 0.1242327,-0.300541 0.083629,-0.127318 3.1115913,-3.07125 3.3241643,-3.231913 0.178711,-0.135071 0.389776,-0.193146 0.642918,-0.1769 0.378148,0.02427 0.364083,0.0125 2.139131,1.789838 1.816373,1.818716 1.752148,1.73878 1.751641,2.180125 -3.38e-4,0.294982 -0.05916,0.443281 -0.261732,0.659843 -0.302498,0.323395 -0.733402,0.408753 -1.141753,0.22617 -0.110143,-0.04925 -0.294691,-0.218531 -0.844739,-0.774871 -0.387094,-0.391522 -0.711886,-0.711857 -0.72176,-0.711857 -0.0099,0 -0.02141,1.309773 -0.02563,2.910607 l -0.0077,2.910608 -0.0761,0.162341 c -0.168839,0.360165 -0.472861,0.56908 -0.853576,0.586554 -0.147177,0.0068 -0.254249,-0.0046 -0.341003,-0.03614 z"
     id="path22" />
</svg>
