<?xml version="1.0" encoding="UTF-8" standalone="no"?>
<svg
   xmlns:dc="http://purl.org/dc/elements/1.1/"
   xmlns:cc="http://creativecommons.org/ns#"
   xmlns:rdf="http://www.w3.org/1999/02/22-rdf-syntax-ns#"
   xmlns:svg="http://www.w3.org/2000/svg"
   xmlns="http://www.w3.org/2000/svg"
   xmlns:sodipodi="http://sodipodi.sourceforge.net/DTD/sodipodi-0.dtd"
   xmlns:inkscape="http://www.inkscape.org/namespaces/inkscape"
   version="1.1"
   id="Capa_1"
   x="0px"
   y="0px"
   viewBox="0 0 490 490"
   style="enable-background:new 0 0 490 490;"
   xml:space="preserve"
   sodipodi:docname="cloud-svgrepo-com.svg"
   inkscape:version="1.0.2 (e86c870879, 2021-01-15)"><metadata
   id="metadata41"><rdf:RDF><cc:Work
       rdf:about=""><dc:format>image/svg+xml</dc:format><dc:type
         rdf:resource="http://purl.org/dc/dcmitype/StillImage" /></cc:Work></rdf:RDF></metadata><defs
   id="defs39" /><sodipodi:namedview
   pagecolor="#ffffff"
   bordercolor="#666666"
   borderopacity="1"
   objecttolerance="10"
   gridtolerance="10"
   guidetolerance="10"
   inkscape:pageopacity="0"
   inkscape:pageshadow="2"
   inkscape:window-width="1920"
   inkscape:window-height="1030"
   id="namedview37"
   showgrid="false"
   inkscape:zoom="1.7122449"
   inkscape:cx="245"
   inkscape:cy="245"
   inkscape:window-x="0"
   inkscape:window-y="22"
   inkscape:window-maximized="1"
   inkscape:current-layer="Capa_1" />
<g
   id="g4">
	<path
   d="M431.1,223.9c1.6-24-6.8-48.6-25.2-66.9c-20.9-20.9-50-28.9-77-23.9c-24.1-29.5-61-48.1-102.2-48.1   c-73.1,0-132.2,59.1-132.2,132.2C42,216.8,0,259.2,0,310.9C0,363,42,405,94.1,405c41.2,0,254.7,0,301.8,0c52.1,0,94.1-42,94.1-94.1   C490,271.3,465.6,237.6,431.1,223.9z"
   id="path2" />
</g>
<g
   id="g6">
</g>
<g
   id="g8">
</g>
<g
   id="g10">
</g>
<g
   id="g12">
</g>
<g
   id="g14">
</g>
<g
   id="g16">
</g>
<g
   id="g18">
</g>
<g
   id="g20">
</g>
<g
   id="g22">
</g>
<g
   id="g24">
</g>
<g
   id="g26">
</g>
<g
   id="g28">
</g>
<g
   id="g30">
</g>
<g
   id="g32">
</g>
<g
   id="g34">
</g>
<path
   style="fill:#ffffff;stroke:#ffffff;stroke-width:0.584029"
   d="M 82.640048,404.04235 C 61.432859,401.25169 43.288923,392.27982 27.987438,377.01756 14.497432,363.56215 6.4703963,348.8837 2.1853146,329.83513 1.072084,324.88646 0.90323668,322.40528 0.90323668,310.99523 c 0,-14.45891 0.62591082,-18.75387 4.35519282,-29.88503 C 17.199651,245.46804 50.710577,219.88408 88.269762,217.7351 l 6.246834,-0.35742 0.355008,-5.60779 c 2.263023,-35.74729 15.974966,-65.98519 40.639906,-89.62011 20.71028,-19.84541 45.97154,-31.968536 74.37097,-35.691377 8.57646,-1.124276 25.44304,-1.152634 33.67471,-0.05662 23.19576,3.088427 44.1903,11.62647 62.6235,25.467667 6.83654,5.13346 15.85179,13.51013 19.70727,18.31135 2.36752,2.94826 2.80187,3.24033 4.38022,2.94535 4.58038,-0.85604 14.99349,-1.24556 21.10472,-0.78944 19.45252,1.45183 38.15522,9.75314 52.29989,23.21364 17.11268,16.28492 26.12009,36.17307 27.15438,59.95621 l 0.38098,8.76042 5.56689,2.62813 c 9.45807,4.46516 17.06637,9.91199 25.24103,18.07022 14.35336,14.32451 22.96346,30.80475 26.29818,50.33629 1.06476,6.23633 1.19104,8.74391 0.92262,18.32174 -0.33833,12.07246 -1.24073,17.54267 -4.49763,27.26386 -4.59508,13.7154 -11.86996,25.28288 -22.73146,36.1444 -13.24924,13.24923 -26.85298,20.81201 -45.8874,25.51034 l -6.42431,1.58573 -162.65197,0.0726 c -89.45858,0.0399 -163.440405,-0.0311 -164.404052,-0.15796 z"
   id="path43" /></svg>
