<?xml version="1.0" encoding="UTF-8" standalone="no"?>
<svg
   xmlns:dc="http://purl.org/dc/elements/1.1/"
   xmlns:cc="http://creativecommons.org/ns#"
   xmlns:rdf="http://www.w3.org/1999/02/22-rdf-syntax-ns#"
   xmlns:svg="http://www.w3.org/2000/svg"
   xmlns="http://www.w3.org/2000/svg"
   xmlns:sodipodi="http://sodipodi.sourceforge.net/DTD/sodipodi-0.dtd"
   xmlns:inkscape="http://www.inkscape.org/namespaces/inkscape"
   width="24px"
   height="24px"
   viewBox="0 0 24 24"
   role="img"
   version="1.1"
   id="svg6"
   sodipodi:docname="ethereum-svgrepo-com.svg"
   inkscape:version="1.0.2 (e86c870879, 2021-01-15)">
  <metadata
     id="metadata12">
    <rdf:RDF>
      <cc:Work
         rdf:about="">
        <dc:format>image/svg+xml</dc:format>
        <dc:type
           rdf:resource="http://purl.org/dc/dcmitype/StillImage" />
      </cc:Work>
    </rdf:RDF>
  </metadata>
  <defs
     id="defs10" />
  <sodipodi:namedview
     pagecolor="#ffffff"
     bordercolor="#666666"
     borderopacity="1"
     objecttolerance="10"
     gridtolerance="10"
     guidetolerance="10"
     inkscape:pageopacity="0"
     inkscape:pageshadow="2"
     inkscape:window-width="1920"
     inkscape:window-height="1030"
     id="namedview8"
     showgrid="false"
     inkscape:zoom="34.958333"
     inkscape:cx="12"
     inkscape:cy="12"
     inkscape:window-x="0"
     inkscape:window-y="22"
     inkscape:window-maximized="1"
     inkscape:current-layer="svg6" />
  <title
     id="title2">Ethereum icon</title>
  <path
     d="M11.944 17.97L4.58 13.62 11.943 24l7.37-10.38-7.372 4.35h.003zM12.056 0L4.69 12.223l7.365 4.354 7.365-4.35L12.056 0z"
     id="path4" />
  <path
     style="fill:#ffffff;stroke:#ffffff;stroke-width:0.0286055"
     d="m 8.3814064,14.386673 c -2.0059594,-1.187034 -3.647199,-2.168244 -3.647199,-2.180466 0,-0.05054 7.3194876,-12.16371093 7.3375026,-12.14298007 0.01401,0.01612374 7.227655,11.99414107 7.311839,12.14106807 0.0108,0.01886 -7.296508,4.345317 -7.334066,4.3423 -0.01148,-9.23e-4 -1.662117,-0.972887 -3.6680766,-2.159922 z"
     id="path14" />
  <path
     style="fill:#ffffff;stroke:#ffffff;stroke-width:0.0286055"
     d="M 8.3138002,18.852855 C 6.3189888,16.04069 4.6920769,13.734622 4.6984404,13.728258 c 0.00636,-0.0064 1.6260729,0.94236 3.5993539,2.108274 1.9732807,1.165914 3.6030917,2.125909 3.6218017,2.133322 0.01871,0.0074 1.66373,-0.94818 3.655602,-2.12354 1.991871,-1.175359 3.625734,-2.132217 3.630807,-2.12635 0.0069,0.008 -6.950777,9.823542 -7.214078,10.177161 l -0.0512,0.06876 z"
     id="path16" />
</svg>
