<?xml version="1.0" encoding="UTF-8" standalone="no"?>
<svg
   xmlns:dc="http://purl.org/dc/elements/1.1/"
   xmlns:cc="http://creativecommons.org/ns#"
   xmlns:rdf="http://www.w3.org/1999/02/22-rdf-syntax-ns#"
   xmlns:svg="http://www.w3.org/2000/svg"
   xmlns="http://www.w3.org/2000/svg"
   xmlns:sodipodi="http://sodipodi.sourceforge.net/DTD/sodipodi-0.dtd"
   xmlns:inkscape="http://www.inkscape.org/namespaces/inkscape"
   version="1.1"
   id="Layer_1"
   x="0px"
   y="0px"
   viewBox="0 0 511.936 511.936"
   style="enable-background:new 0 0 511.936 511.936;"
   xml:space="preserve"
   sodipodi:docname="information-info-svgrepo-com.svg"
   inkscape:version="1.0.2 (e86c870879, 2021-01-15)"><metadata
   id="metadata43"><rdf:RDF><cc:Work
       rdf:about=""><dc:format>image/svg+xml</dc:format><dc:type
         rdf:resource="http://purl.org/dc/dcmitype/StillImage" /></cc:Work></rdf:RDF></metadata><defs
   id="defs41" /><sodipodi:namedview
   pagecolor="#ffffff"
   bordercolor="#666666"
   borderopacity="1"
   objecttolerance="10"
   gridtolerance="10"
   guidetolerance="10"
   inkscape:pageopacity="0"
   inkscape:pageshadow="2"
   inkscape:window-width="1920"
   inkscape:window-height="1030"
   id="namedview39"
   showgrid="false"
   inkscape:zoom="1.6388767"
   inkscape:cx="255.968"
   inkscape:cy="255.968"
   inkscape:window-x="0"
   inkscape:window-y="22"
   inkscape:window-maximized="1"
   inkscape:current-layer="Layer_1" />
<g
   id="g6">
	<g
   id="g4">
		<path
   d="M383.968,0h-256C80.907,0,42.635,38.272,42.635,85.333v213.333c0,47.061,38.272,85.333,85.333,85.333h64l0.085,92.075    c0,14.571,8.683,27.584,22.165,33.173c4.331,1.792,8.875,2.688,13.419,2.688c9.536,0,19.136-3.968,27.029-11.968L350.496,384    h33.472c47.061,0,85.333-38.272,85.333-85.333V85.333C469.301,38.272,431.029,0,383.968,0z M255.968,85.333    c11.776,0,21.333,9.557,21.333,21.333S267.744,128,255.968,128s-21.333-9.557-21.333-21.333S244.192,85.333,255.968,85.333z     M298.635,298.667h-85.333c-11.797,0-21.333-9.557-21.333-21.333S201.504,256,213.301,256h21.333v-64    c-11.797,0-21.333-9.557-21.333-21.333s9.536-21.333,21.333-21.333h21.333c11.797,0,21.333,9.557,21.333,21.333V256h21.333    c11.797,0,21.333,9.557,21.333,21.333S310.432,298.667,298.635,298.667z"
   id="path2" />
	</g>
</g>
<g
   id="g8">
</g>
<g
   id="g10">
</g>
<g
   id="g12">
</g>
<g
   id="g14">
</g>
<g
   id="g16">
</g>
<g
   id="g18">
</g>
<g
   id="g20">
</g>
<g
   id="g22">
</g>
<g
   id="g24">
</g>
<g
   id="g26">
</g>
<g
   id="g28">
</g>
<g
   id="g30">
</g>
<g
   id="g32">
</g>
<g
   id="g34">
</g>
<g
   id="g36">
</g>
<path
   style="fill:#ffffff;stroke:#ffffff;stroke-width:0.610174"
   d="m 219.17555,510.43845 c -13.42377,-3.64161 -23.5094,-14.3837 -26.07003,-27.76691 -0.74583,-3.89808 -0.9007,-12.82453 -0.9007,-51.91264 v -47.2051 l -38.28842,-0.22296 c -33.85173,-0.19713 -38.81871,-0.34707 -42.86473,-1.29401 C 94.126379,378.07563 80.093885,370.47485 68.489383,358.98271 53.399524,344.03897 45.146369,326.29723 43.299013,304.8312 42.844531,299.55017 42.709591,262.59646 42.866579,186.40816 43.120651,63.103898 42.791561,72.511244 47.325176,58.954981 51.79836,45.579412 57.889434,35.758637 68.020807,25.58695 80.569758,12.988064 94.056201,5.7211044 112.27202,1.7428719 117.23974,0.65794924 123.30059,0.61017402 255.968,0.61017402 c 132.66741,0 138.72826,0.0477754 143.69598,1.13269788 17.12682,3.7404004 30.85087,10.8655681 42.76283,22.2013441 12.88658,12.263257 21.62654,28.338023 25.38437,46.687619 0.93915,4.585879 1.05019,14.802907 1.25824,115.776325 0.157,76.1883 0.022,113.14201 -0.43243,118.42304 -3.2541,37.81222 -28.22126,67.00177 -65.57366,76.66331 -5.98803,1.54886 -6.7406,1.59601 -29.43733,1.84455 l -23.2922,0.25505 -48.53842,58.74432 c -32.79174,39.68667 -49.5833,59.54197 -51.75921,61.20303 -9.24843,7.06014 -20.76859,9.63476 -30.86062,6.89699 z m 87.38449,-213.01141 c 4.67456,-1.74898 9.02868,-5.85653 11.47452,-10.82473 1.78861,-3.6332 2.00171,-4.62097 2.00171,-9.27822 0,-4.65725 -0.2131,-5.64502 -2.00171,-9.27821 -2.44584,-4.9682 -6.79996,-9.07575 -11.47452,-10.82473 -2.98676,-1.11749 -4.73191,-1.25315 -16.12141,-1.25315 h -12.77208 l -0.17123,-45.31898 -0.17123,-45.31899 -2.00549,-4.07299 c -2.21823,-4.50505 -5.77568,-8.04979 -10.37106,-10.33397 -2.80857,-1.39602 -3.28147,-1.43043 -19.65758,-1.43043 -16.37612,0 -16.84902,0.0344 -19.65758,1.43043 -13.28438,6.60313 -16.75492,23.37803 -7.0366,34.01143 3.36446,3.68126 9.09218,6.96384 12.15264,6.96475 3.81126,0.001 3.5584,-2.30153 3.5584,32.40499 V 255.968 h -12.79076 c -11.40835,0 -13.15276,0.13544 -16.1401,1.25315 -4.67456,1.74898 -9.02867,5.85653 -11.47451,10.82473 -1.78862,3.63319 -2.00172,4.62096 -2.00172,9.27821 0,4.65725 0.2131,5.64502 2.00172,9.27822 2.40507,4.88539 6.7667,9.05159 11.30129,10.79492 3.07013,1.18032 4.69015,1.22039 50.58983,1.25116 46.37833,0.0311 47.49158,0.004 50.76747,-1.22135 z M 261.48391,127.5063 c 6.58942,-1.69476 12.03599,-6.55427 14.73584,-13.14753 0.76878,-1.87744 1.10405,-4.27738 1.10339,-7.89818 -6.2e-4,-4.6366 -0.21678,-5.63963 -1.98898,-9.239488 -2.31381,-4.700025 -5.62246,-7.9274 -10.44541,-10.188827 -2.90895,-1.363983 -4.26229,-1.607912 -8.92075,-1.607912 -4.65846,0 -6.01179,0.243929 -8.92075,1.607912 -4.82295,2.261427 -8.13159,5.488802 -10.44541,10.188827 -1.7722,3.599858 -1.98812,4.602888 -1.98897,9.239488 -10e-4,5.7844 0.94495,8.83669 4.1008,13.23113 3.50479,4.88034 10.74179,8.5939 16.97359,8.70976 1.18798,0.0221 3.79647,-0.38075 5.79665,-0.89518 z"
   id="path45" /></svg>
