<?xml version="1.0" encoding="iso-8859-1"?>
<!-- Generator: Adobe Illustrator 19.0.0, SVG Export Plug-In . SVG Version: 6.00 Build 0)  -->
<svg version="1.1" id="Layer_1" xmlns="http://www.w3.org/2000/svg" xmlns:xlink="http://www.w3.org/1999/xlink" x="0px" y="0px"
	 viewBox="0 0 512.031 512.031" style="enable-background:new 0 0 512.031 512.031;" xml:space="preserve">
<g>
	<path style="fill:#25B99A;" d="M335.464,0H176.567C113.185,0,61.809,51.377,61.809,114.759v158.897
		c0,63.382,51.377,114.759,114.759,114.759h28.999c13.233,0,23.967,10.734,23.967,23.967v87.314
		c0,12.014,15.439,16.914,22.369,7.106l54.299-76.932c15.819-22.404,38.718-38.577,64.794-47.06
		c45.992-14.963,79.228-58.174,79.228-109.153V114.759C450.223,51.377,398.846,0,335.464,0"/>
	<g>
		<path style="fill:#FFFFFF;" d="M282.498,300.138V176.552v-17.611c0-9.772-7.927-17.699-17.699-17.699h-35.266
			c-9.755,0-17.655,7.901-17.655,17.655c0,9.754,7.901,17.655,17.655,17.655h17.655v123.586h-17.655
			c-9.755,0-17.655,7.901-17.655,17.655c0,9.754,7.901,17.655,17.655,17.655h70.621c9.754,0,17.655-7.901,17.655-17.655
			c0-9.754-7.901-17.655-17.655-17.655H282.498z"/>
		<path style="fill:#FFFFFF;" d="M282.498,79.448c0-14.627-11.855-26.483-26.483-26.483s-26.483,11.855-26.483,26.483
			s11.855,26.483,26.483,26.483S282.498,94.076,282.498,79.448"/>
	</g>
</g>
<g>
</g>
<g>
</g>
<g>
</g>
<g>
</g>
<g>
</g>
<g>
</g>
<g>
</g>
<g>
</g>
<g>
</g>
<g>
</g>
<g>
</g>
<g>
</g>
<g>
</g>
<g>
</g>
<g>
</g>
</svg>
