<?xml version="1.0" encoding="UTF-8" standalone="no"?>
<svg
   xmlns:dc="http://purl.org/dc/elements/1.1/"
   xmlns:cc="http://creativecommons.org/ns#"
   xmlns:rdf="http://www.w3.org/1999/02/22-rdf-syntax-ns#"
   xmlns:svg="http://www.w3.org/2000/svg"
   xmlns="http://www.w3.org/2000/svg"
   xmlns:sodipodi="http://sodipodi.sourceforge.net/DTD/sodipodi-0.dtd"
   xmlns:inkscape="http://www.inkscape.org/namespaces/inkscape"
   version="1.1"
   id="Capa_1"
   x="0px"
   y="0px"
   viewBox="0 0 490.2 490.2"
   style="enable-background:new 0 0 490.2 490.2;"
   xml:space="preserve"
   sodipodi:docname="money.svg"
   inkscape:version="1.0.2 (e86c870879, 2021-01-15)"><metadata
   id="metadata43"><rdf:RDF><cc:Work
       rdf:about=""><dc:format>image/svg+xml</dc:format><dc:type
         rdf:resource="http://purl.org/dc/dcmitype/StillImage" /></cc:Work></rdf:RDF></metadata><defs
   id="defs41" /><sodipodi:namedview
   pagecolor="#ffffff"
   bordercolor="#666666"
   borderopacity="1"
   objecttolerance="10"
   gridtolerance="10"
   guidetolerance="10"
   inkscape:pageopacity="0"
   inkscape:pageshadow="2"
   inkscape:window-width="1920"
   inkscape:window-height="1030"
   id="namedview39"
   showgrid="false"
   inkscape:zoom="1.7115463"
   inkscape:cx="245.10001"
   inkscape:cy="268.47069"
   inkscape:window-x="0"
   inkscape:window-y="22"
   inkscape:window-maximized="1"
   inkscape:current-layer="Capa_1"
   inkscape:document-rotation="0" />
<g
   id="g6"
   transform="rotate(89.981901,245.28502,245.15001)">
	<g
   id="g4">
		<path
   d="m 368.4,245.1 c 0,12.9 -10.5,23.4 -23.4,23.4 -12.9,0 -23.4,-10.5 -23.4,-23.4 0,-12.9 10.5,-23.4 23.4,-23.4 12.9,0 23.4,10.5 23.4,23.4 z m -292.3,0 c 0,12.9 10.5,23.4 23.4,23.4 12.9,0 23.4,-10.5 23.4,-23.4 0,-12.9 -10.5,-23.4 -23.4,-23.4 -12.9,0 -23.4,10.5 -23.4,23.4 z M 38.5,382.7 h 268 V 349.8 H 78.1 c 0.4,-2.3 0.7,-4.7 0.7,-7.2 0,-21.5 -17.5,-39 -39,-39 -2.3,0 -4.6,0.2 -6.8,0.6 V 185.9 c 2.2,0.4 4.5,0.6 6.8,0.6 21.5,0 39,-17.5 39,-39 0,-2.5 -0.2,-4.8 -0.7,-7.2 h 286.1 c -0.8,3 -1.2,6.2 -1.2,9.5 0,21.5 17.5,39 39,39 3.3,0 6.6,-0.4 9.6,-1.2 v 79.9 h 32.9 V 146 c 0,-21.2 -17.3,-38.5 -38.5,-38.5 H 38.5 C 17.3,107.5 0,124.8 0,146 v 198.2 c 0,21.2 17.3,38.5 38.5,38.5 z m 283.1,-27.6 c -2.7,0 -4.9,2.2 -4.9,4.9 v 17.8 c 0,2.7 2.2,4.9 4.9,4.9 h 118 c 2.7,0 4.9,-2.2 4.9,-4.9 V 360 c 0,-2.7 -2.2,-4.9 -4.9,-4.9 z m 145.8,-16 v -17.8 c 0,-2.7 -2.2,-4.9 -4.9,-4.9 h -118 c -2.7,0 -4.9,2.2 -4.9,4.9 v 17.8 c 0,2.7 2.2,4.9 4.9,4.9 h 118 c 2.7,0 4.9,-2.2 4.9,-4.9 z m 17.9,-61.4 h -118 c -2.7,0 -4.9,2.2 -4.9,4.9 v 17.8 c 0,2.7 2.2,4.9 4.9,4.9 h 118 c 2.7,0 4.9,-2.2 4.9,-4.9 v -17.8 c 0,-2.7 -2.2,-4.9 -4.9,-4.9 z m -263,-117 c 46.5,0 84.4,37.9 84.4,84.4 0,46.5 -37.9,84.4 -84.4,84.4 -46.5,0 -84.4,-37.9 -84.4,-84.4 0,-46.5 37.8,-84.4 84.4,-84.4 z m -55,53.9 h 16.6 c 3.4,-11.1 8.4,-20.1 13.5,-27.3 -12.8,5.6 -23.4,15.2 -30.1,27.3 z m 13.6,48.3 c -0.9,-5.5 -1.5,-11.5 -1.5,-17.8 0,-6.4 0.5,-12.3 1.5,-17.8 H 162 c -1.7,5.7 -2.6,11.6 -2.6,17.8 0,6.2 0.9,12.2 2.6,17.8 z m 16.5,40 c -5.1,-7.2 -10.1,-16.2 -13.5,-27.3 h -16.6 c 6.7,12.1 17.3,21.7 30.1,27.3 z m 18.5,-27.3 h -18.7 c 5,13.7 12.6,23.5 18.7,29.7 z m 0,-48.3 h -22.2 c -1.1,5.5 -1.7,11.4 -1.7,17.8 0,6.4 0.6,12.4 1.7,17.8 h 22.2 z m 0,-42.4 c -6.1,6.1 -13.8,15.9 -18.8,29.8 h 18.8 z m 61.4,90.7 h -16.6 c -3.4,11.1 -8.4,20.1 -13.5,27.3 12.7,-5.6 23.3,-15.2 30.1,-27.3 z m -13.7,-48.3 c 0.9,5.5 1.5,11.5 1.5,17.8 0,6.4 -0.5,12.3 -1.5,17.8 h 18.9 c 1.7,-5.7 2.6,-11.6 2.6,-17.8 0,-6.2 -0.9,-12.2 -2.6,-17.8 z m -16.4,-40 c 5.1,7.2 10.1,16.2 13.5,27.3 h 16.6 c -6.8,-12.1 -17.4,-21.7 -30.1,-27.3 z m -18.6,27.3 h 18.7 c -5,-13.7 -12.6,-23.5 -18.7,-29.7 z m 0,48.3 h 22.2 c 1.1,-5.5 1.7,-11.4 1.7,-17.8 0,-6.4 -0.6,-12.4 -1.7,-17.8 h -22.2 z m 0,42.4 c 6.1,-6.1 13.8,-15.9 18.8,-29.8 h -18.8 z"
   id="path2" />
	</g>
</g>
<g
   id="g8"
   transform="rotate(89.981901,245.28502,245.15001)">
</g>
<g
   id="g10"
   transform="rotate(89.981901,245.28502,245.15001)">
</g>
<g
   id="g12"
   transform="rotate(89.981901,245.28502,245.15001)">
</g>
<g
   id="g14"
   transform="rotate(89.981901,245.28502,245.15001)">
</g>
<g
   id="g16"
   transform="rotate(89.981901,245.28502,245.15001)">
</g>
<g
   id="g18"
   transform="rotate(89.981901,245.28502,245.15001)">
</g>
<g
   id="g20"
   transform="rotate(89.981901,245.28502,245.15001)">
</g>
<g
   id="g22"
   transform="rotate(89.981901,245.28502,245.15001)">
</g>
<g
   id="g24"
   transform="rotate(89.981901,245.28502,245.15001)">
</g>
<g
   id="g26"
   transform="rotate(89.981901,245.28502,245.15001)">
</g>
<g
   id="g28"
   transform="rotate(89.981901,245.28502,245.15001)">
</g>
<g
   id="g30"
   transform="rotate(89.981901,245.28502,245.15001)">
</g>
<g
   id="g32"
   transform="rotate(89.981901,245.28502,245.15001)">
</g>
<g
   id="g34"
   transform="rotate(89.981901,245.28502,245.15001)">
</g>
<g
   id="g36"
   transform="rotate(89.981901,245.28502,245.15001)">
</g>
<path
   style="fill:#ffffff;stroke:#ffffff;stroke-width:0.584267"
   d="m 108.87295,30.28996 c 0.44795,-2.088897 1.90877,-6.033161 3.24625,-8.765031 3.279,-6.697538 10.41901,-13.9224658 16.87065,-17.071294 9.49457,-4.63397534 -0.63691,-4.25958101 116.26778,-4.29651063 116.9047,-0.0369297 106.77299,-0.40492282 116.27048,4.22305313 6.45779,3.1467839 13.60026,10.3666695 16.87767,17.0606325 4.50038,9.191814 4.13849,-8.08262 4.20444,200.69439 0.0512,161.95558 -0.0567,188.09764 -0.79009,191.56486 -2.91604,13.78512 -14.23019,25.46816 -28.10512,29.02143 -4.34655,1.11312 -6.7153,1.1543 -67.51198,1.17351 l -63.00736,0.0199 -0.005,-16.06734 -0.005,-16.06735 40.04875,-0.0127 40.04877,-0.0127 -0.46537,-2.19086 c -0.25595,-1.20496 -0.44922,-5.08297 -0.4295,-8.61779 0.0304,-5.43583 0.28421,-7.14698 1.64626,-11.09599 4.04106,-11.71636 12.16042,-19.99802 23.9495,-24.42821 4.2682,-1.60393 5.42957,-1.78498 11.74763,-1.83139 3.85616,-0.0283 7.86575,0.13883 8.9102,0.37148 l 1.89899,0.42299 -0.0453,-143.27686 -0.0453,-143.276871 -7.4494,0.0024 c -6.07453,0.0019 -8.20431,-0.236572 -11.53968,-1.292211 -5.84398,-1.849604 -11.0507,-5.091926 -15.76936,-9.819848 -4.67342,-4.682635 -7.30523,-8.81607 -9.53333,-14.972821 -1.36733,-3.778272 -1.55284,-5.165583 -1.56907,-11.733891 l -0.0185,-7.449014 -59.3031,0.01763 -59.30309,0.01763 0.19921,6.067311 c 0.24178,7.362979 -0.6727,11.492613 -4.08927,18.467203 -3.40942,6.959957 -9.88779,13.442424 -16.84559,16.856233 -7.07419,3.470906 -11.15148,4.360712 -18.79423,4.101533 l -6.32078,-0.214323 0.036,114.087509 0.036,114.0874 -16.06734,0.005 -16.06735,0.005 0.004,-135.98816 c 0.003,-114.045092 0.13491,-136.600992 0.81794,-139.78614 z"
   id="path45" /><path
   style="fill:#ffffff;stroke:#ffffff;stroke-width:0.584267"
   d="m 161.80621,211.98112 c 2.3216,-18.55564 10.73257,-35.44214 24.4506,-49.08888 9.82064,-9.76958 20.27167,-16.33313 32.46164,-20.38684 9.8833,-3.28663 14.02434,-3.87483 27.1672,-3.85881 11.0863,0.0135 12.45334,0.13384 18.37316,1.61721 15.45786,3.87337 27.86135,10.61432 38.78634,21.07922 13.11315,12.56094 21.44822,27.76777 25.05343,45.70843 1.53903,7.65874 1.40549,23.63291 -0.26146,31.27518 -5.79435,26.56476 -22.05688,47.55622 -45.87313,59.21249 -12.41622,6.0768 -22.76329,8.47269 -36.60975,8.47706 -13.84643,0.004 -24.195,-2.38497 -36.61507,-8.45393 -23.7174,-11.58931 -40.23532,-32.81745 -45.81896,-58.88464 -1.35283,-6.31568 -1.93085,-20.16773 -1.114,-26.69649 z m 38.23893,4.07695 14.89881,-0.005 -0.003,-9.6404 c -0.002,-5.30222 -0.14471,-9.64036 -0.3178,-9.6403 -0.70261,1.7e-4 -10.14157,4.48175 -13.41346,6.3686 -5.90059,3.40274 -16.0638,11.25334 -16.06344,12.40822 8e-5,0.28232 6.70464,0.51118 14.89898,0.50859 z m -10.65757,16.76643 c 6.26991,5.15079 10.88451,8.10217 18.16527,11.61806 3.58858,1.73292 6.72186,3.15312 6.96287,3.156 0.24101,0.003 0.43684,-4.33296 0.43516,-9.63519 l -0.003,-9.64039 -14.8988,0.005 c -8.19435,0.003 -14.89874,0.23226 -14.89866,0.51037 1.2e-4,0.27811 1.90683,2.07201 4.2372,3.98644 z m -1.63615,-35.45908 c 0.15063,-4.8e-4 2.05645,-1.1505 4.23512,-2.55655 5.06266,-3.2673 11.35017,-6.42259 17.66838,-8.8666 l 4.98678,-1.92899 0.15899,-8.51918 c 0.0874,-4.68554 -0.01,-8.51911 -0.21623,-8.51905 -0.20638,5.1e-4 -2.25067,1.2424 -4.54283,2.76074 -5.18224,3.43273 -13.39523,11.52062 -16.69675,16.44238 -3.86099,5.75582 -6.57678,11.18756 -5.59345,11.18725 z m 2.46381,55.6815 c 2.88304,5.1195 7.88378,11.50071 11.99029,15.30019 3.1118,2.87916 11.59596,9.05465 12.43929,9.05439 0.17518,-3.8e-4 0.31505,-3.87817 0.31079,-8.61803 l -0.008,-8.61795 -3.37859,-1.05147 c -4.62759,-1.44022 -14.38928,-6.17812 -19.39162,-9.41188 -2.27518,-1.47078 -4.27766,-2.67411 -4.44996,-2.67405 -0.55575,2.2e-4 0.39879,2.30981 2.4875,6.0188 z m 40.63879,-72.46379 c 4.78313,-0.61352 24.91164,-0.60966 29.22768,0.006 l 3.37401,0.48096 -0.1635,-9.82898 -0.16349,-9.82898 -4.67447,-1.05021 c -6.39178,-1.43603 -19.32832,-1.50231 -25.70298,-0.13166 -2.56794,0.55214 -4.86832,1.12717 -5.11192,1.27783 -0.24362,0.15068 -0.44156,4.60966 -0.43989,9.90888 l 0.003,9.63494 z m 14.47181,35.46064 18.11227,-0.006 -0.004,-11.32506 c -0.004,-13.27977 1.30544,-11.67195 -10.37477,-12.7369 -6.06496,-0.55297 -9.41845,-0.5519 -15.48306,0.005 -11.67955,1.07233 -10.37092,-0.53632 -10.36672,12.74346 l 0.004,11.32506 z m -12.98867,35.69556 c 2.81192,0.41499 8.662,0.7534 13.00019,0.75203 4.33818,-0.001 10.18805,-0.34345 12.99969,-0.76023 l 5.1121,-0.75776 -0.004,-11.33286 -0.004,-11.33285 -18.11228,0.006 -18.11226,0.006 0.004,11.33286 0.004,11.33285 z m -2.9114,31.44058 c 5.00127,1.29876 9.49964,1.80939 15.92184,1.80737 6.42221,-0.002 10.92027,-0.51552 15.92071,-1.81744 l 2.19082,-0.57039 -0.003,-9.65327 -0.003,-9.65327 -4.23577,0.47493 c -2.32969,0.2612 -8.57397,0.47628 -13.8762,0.47794 -5.30222,0.002 -11.54664,-0.20947 -13.8765,-0.4692 l -4.23608,-0.47224 0.003,9.65326 0.003,9.65327 z m 51.55196,-97.26018 c 6.33803,2.44709 12.61205,5.59312 17.72205,8.88653 2.206,1.42176 4.1279,2.46796 4.2709,2.32486 0.49766,-0.49796 -1.54919,-4.56817 -4.83625,-9.61698 -3.95673,-6.07742 -11.80347,-14.04327 -17.55365,-17.82013 -2.29311,-1.50616 -4.33817,-2.73844 -4.54455,-2.73837 -0.20637,5.1e-4 -0.30127,3.8337 -0.21087,8.51918 l 0.16437,8.51908 z m 9.6288,30.10973 c 9.31967,-0.003 14.89874,-0.21868 14.89863,-0.57611 -2.4e-4,-0.81451 -7.10873,-6.64454 -12.27279,-10.06552 -4.11508,-2.72609 -13.28723,-7.42953 -16.21603,-8.31549 l -1.31473,-0.39772 0.003,9.67978 0.003,9.67978 z m -11.82183,30.32931 c 5.05035,-1.99044 12.06267,-5.83592 16.65767,-9.13488 5.02363,-3.6067 10.06648,-7.86037 10.0667,-8.49132 2.3e-4,-0.24102 -6.70432,-0.43608 -14.89866,-0.43349 l -14.89881,0.005 0.003,9.63189 0.003,9.63187 z m -2.73908,31.02333 c 0.17518,-3.8e-4 2.25478,-1.30757 4.62133,-2.90557 5.90297,-3.98602 10.79698,-8.64805 15.09738,-14.38177 3.65117,-4.8681 7.84461,-12.28311 7.27083,-12.85654 -0.16986,-0.16973 -2.1912,0.90992 -4.49187,2.39925 -5.04233,3.26413 -14.79032,8.00689 -19.43373,9.45524 l -3.37791,1.05362 -0.002,8.61794 c -0.001,4.73986 0.14106,8.61788 0.3158,8.61784 z"
   id="path47" /><path
   style="fill:#ffffff;stroke:#ffffff;stroke-width:0.584267"
   d="m 222.57446,95.691949 c 1.81508,-10.993299 11.57608,-19.284469 22.70726,-19.287985 16.99811,-0.0054 28.17081,18.105397 20.48896,33.212256 -7.00464,13.77508 -24.51487,17.03971 -35.73137,6.66178 -4.85975,-4.49643 -6.8447,-8.54303 -7.8051,-15.91181 -0.1047,-0.803331 0.0484,-2.90674 0.34025,-4.674241 z"
   id="path49" /><path
   style="fill:#ffffff;stroke:#ffffff;stroke-width:0.584267"
   d="m 222.66409,341.19274 c 1.17784,-7.32447 6.235,-13.93088 13.18673,-17.22643 3.59098,-1.70235 4.47264,-1.87649 9.50851,-1.87809 5.03587,-0.002 5.91764,0.172 9.50969,1.87209 17.90713,8.47525 17.92356,32.93676 0.028,41.75373 -3.64565,1.79618 -4.37452,1.94429 -9.51104,1.93274 -6.1428,-0.0139 -8.79032,-0.87108 -13.80502,-4.46995 -6.62842,-4.75699 -10.25096,-13.68816 -8.9169,-21.9841 z"
   id="path51" /><path
   style="fill:#ffffff;stroke:#ffffff;stroke-width:0.584267"
   d="m 185.60639,366.21927 c 0.17605,-0.48208 0.85812,-1.46825 1.5157,-2.19149 1.15698,-1.27251 1.53665,-1.31448 11.75663,-1.29973 11.03942,0.0159 11.73423,0.15993 13.09565,2.71414 0.88703,1.66419 1.02002,119.08666 0.13745,121.41007 -0.96643,2.5443 -3.64528,3.2248 -12.69174,3.22398 -4.42884,-5.9e-4 -9.05948,-0.28 -10.2903,-0.62136 -4.10964,-1.13976 -3.90179,2.2683 -3.87106,-63.47544 0.0152,-32.38603 0.17157,-59.27811 0.34762,-59.76018 z"
   id="path53" /><path
   style="fill:#ffffff;stroke:#ffffff;stroke-width:0.584267"
   d="m 147.29481,342.56854 c 1.37244,-2.4934 2.04957,-2.62985 13.06913,-2.63333 10.31983,-0.003 10.62848,0.0318 11.86623,1.34852 l 1.2708,1.35186 0.0192,60.87217 c 0.019,60.09315 0.004,60.88714 -1.14893,62.04108 -1.08347,1.08415 -1.94719,1.16915 -11.91238,1.17229 -9.70782,0.003 -10.87729,-0.10429 -12.12389,-1.11299 l -1.37968,-1.11639 -0.1519,-60.37724 c -0.10841,-43.0992 0.0322,-60.71168 0.49139,-61.54597 z"
   id="path55" /><path
   style="fill:#ffffff;stroke:#ffffff;stroke-width:0.584267"
   d="m 109.26645,318.7044 1.21046,-1.53983 10.95682,-0.003 c 10.69759,-0.003 10.98688,0.0285 12.22762,1.3484 l 1.2708,1.35186 0.0192,60.6066 0.0191,60.60659 -1.43366,1.43457 c -1.41649,1.41738 -1.56021,1.4346 -12.00358,1.43789 -10.44335,0.003 -10.58709,-0.0138 -12.00447,-1.43032 l -1.43457,-1.43364 -0.0191,-60.4194 c -0.019,-60.23999 -0.0151,-60.42397 1.19136,-61.95925 z"
   id="path57" /></svg>
