<?xml version="1.0" encoding="iso-8859-1"?>
<!-- Generator: Adobe Illustrator 19.0.0, SVG Export Plug-In . SVG Version: 6.00 Build 0)  -->
<svg version="1.1" id="Layer_1" xmlns="http://www.w3.org/2000/svg" xmlns:xlink="http://www.w3.org/1999/xlink" x="0px" y="0px"
	 viewBox="0 0 512 512" style="enable-background:new 0 0 512 512;" xml:space="preserve">
<path style="fill:#32BEA6;" d="M256,0C177.328,82.672,46.672,64,46.672,64s0,92,0,224S256,512,256,512s209.328-92,209.328-224
	s0-224,0-224S334.672,82.672,256,0z"/>
<g>
	
		<rect x="222.455" y="254.226" transform="matrix(-0.9339 -0.3575 0.3575 -0.9339 512.2293 619.1437)" style="fill:#FFFFFF;" width="181.774" height="16"/>
	
		<rect x="314.832" y="204.57" transform="matrix(-0.9339 -0.3575 0.3575 -0.9339 541.3144 564.4713)" style="fill:#FFFFFF;" width="16" height="55.263"/>
	
		<rect x="360.891" y="222.193" transform="matrix(-0.9339 -0.3575 0.3575 -0.9339 624.0898 615.0181)" style="fill:#FFFFFF;" width="16" height="55.263"/>
	<path style="fill:#FFFFFF;" d="M175.568,273.632c-7.632,0-15.376-1.36-22.912-4.256c-16.016-6.128-28.688-18.112-35.664-33.76
		c-7.008-15.648-7.488-33.056-1.36-49.056s18.112-28.656,33.76-35.632c15.664-7.008,33.088-7.44,49.104-1.312
		s28.688,18.112,35.68,33.76c7.008,15.648,7.488,33.072,1.36,49.072l0,0C225.792,257.936,201.392,273.632,175.568,273.632z
		 M175.52,161.328c-6.672,0-13.328,1.408-19.616,4.208c-11.744,5.232-20.752,14.736-25.344,26.736s-4.24,25.072,1.008,36.816
		c5.264,11.744,14.784,20.752,26.8,25.36c24.848,9.488,52.752-2.944,62.24-27.696c4.592-12,4.24-25.088-1.024-36.832
		c-5.248-11.744-14.768-20.752-26.8-25.36C187.168,162.4,181.344,161.328,175.52,161.328z"/>
</g>
<g>
</g>
<g>
</g>
<g>
</g>
<g>
</g>
<g>
</g>
<g>
</g>
<g>
</g>
<g>
</g>
<g>
</g>
<g>
</g>
<g>
</g>
<g>
</g>
<g>
</g>
<g>
</g>
<g>
</g>
</svg>
