<?xml version="1.0" encoding="UTF-8" standalone="no"?>
<svg
   xmlns:dc="http://purl.org/dc/elements/1.1/"
   xmlns:cc="http://creativecommons.org/ns#"
   xmlns:rdf="http://www.w3.org/1999/02/22-rdf-syntax-ns#"
   xmlns:svg="http://www.w3.org/2000/svg"
   xmlns="http://www.w3.org/2000/svg"
   xmlns:sodipodi="http://sodipodi.sourceforge.net/DTD/sodipodi-0.dtd"
   xmlns:inkscape="http://www.inkscape.org/namespaces/inkscape"
   version="1.1"
   id="Layer_1"
   x="0px"
   y="0px"
   viewBox="0 0 1871.3 2503"
   style="enable-background:new 0 0 1871.3 2503;"
   xml:space="preserve"
   sodipodi:docname="polkadot-new-dot-logo.svg"
   inkscape:version="1.0.2 (e86c870879, 2021-01-15)"><metadata
   id="metadata15"><rdf:RDF><cc:Work
       rdf:about=""><dc:format>image/svg+xml</dc:format><dc:type
         rdf:resource="http://purl.org/dc/dcmitype/StillImage" /></cc:Work></rdf:RDF></metadata><defs
   id="defs13" /><sodipodi:namedview
   pagecolor="#ffffff"
   bordercolor="#666666"
   borderopacity="1"
   objecttolerance="10"
   gridtolerance="10"
   guidetolerance="10"
   inkscape:pageopacity="0"
   inkscape:pageshadow="2"
   inkscape:window-width="1920"
   inkscape:window-height="1030"
   id="namedview11"
   showgrid="false"
   inkscape:zoom="0.33519776"
   inkscape:cx="935.65002"
   inkscape:cy="1251.5"
   inkscape:window-x="0"
   inkscape:window-y="22"
   inkscape:window-maximized="1"
   inkscape:current-layer="Layer_1" />
<style
   type="text/css"
   id="style2">
	.st0{fill:#1E1E1E;}
	.st1{fill:#E6007A;}
</style>
<title
   id="title4">polkadot</title>
<path
   class="st0"
   d="M948.2,0C425.4,2.1,2.1,425.4,0,948.2c0,104.7,16.9,208.7,50,308c24.7,67.6,98,104,166.8,83.1  c66.5-25.5,101.8-98.2,80.6-166.2c-28.1-77.4-40.6-159.5-36.9-241.7c11.4-377.6,326.7-674.5,704.3-663.1s674.5,326.7,663.1,704.3  c-10.7,353.5-289.1,640.6-642.2,662.1c0,0-133.1,8.1-199.3,16.2c-24.4,3.5-48.6,8.3-72.5,14.4c-3.4,3.5-8.9,3.5-12.4,0.1  c0,0-0.1-0.1-0.1-0.1c-2.4-3.1-2.4-7.5,0-10.6l20.6-112.4L847,980.1c15-70.2-29.7-139.3-99.9-154.3c-70.2-15-139.3,29.7-154.3,99.9  c0,0-297.3,1376.1-297.3,1388.6c-17,66.9,23.4,134.9,90.3,151.9c0.7,0.2,1.5,0.4,2.2,0.5h6.9c66.8,17.3,135-22.9,152.2-89.7  c0.3-1.1,0.6-2.2,0.8-3.4c-0.2-2.1-0.2-4.2,0-6.2c3.7-16.2,41.2-199.3,41.2-199.3c28.4-138.2,139.8-244.1,279.2-265.5  c28.7-4.4,149.3-12.5,149.3-12.5c520.8-51.9,900.9-516.2,848.9-1037C1819.1,378.1,1425.6,12.4,948.2,0z"
   id="path6" />
<path
   class="st1"
   d="M1005.7,2186.3c-85.5-17.8-169.1,37.1-186.9,122.5c-0.2,0.8-0.3,1.6-0.5,2.4c-18.5,84.9,35.3,168.8,120.3,187.3  c0.1,0,0.2,0,0.3,0.1h4.4c83.2,20.1,166.9-31.1,186.9-114.2c0.2-0.6,0.3-1.3,0.5-1.9v-8.7C1145.4,2288,1090.6,2205.7,1005.7,2186.3z  "
   id="path8" />
<path
   style="fill:#ffffff;stroke:#ffffff;stroke-width:2.98331"
   d="m 393.13593,2465.5625 c -48.58102,-8.1516 -89.38535,-50.8504 -98.29379,-102.8574 -3.19541,-18.6547 -2.6756,-23.7012 7.786,-75.588 26.51444,-131.5047 288.89757,-1350.55154 295.79305,-1374.27115 9.23267,-31.75925 41.66884,-66.00375 75.16363,-79.35399 14.12101,-5.62832 23.13193,-6.96431 47.42421,-7.03137 28.67543,-0.0791 30.97488,0.4037 52.43066,11.00908 42.90921,21.20957 71.00662,61.89764 73.55855,106.52061 1.19562,20.90724 -3.52729,44.31688 -62.94344,311.98472 -67.7123,305.0416 -88.11744,405.8763 -83.14107,410.8527 1.91639,1.9164 11.54152,0.8553 27.84157,-3.0693 46.08595,-11.0961 80.90236,-15.1609 208.76234,-24.373 45.32942,-3.2658 92.08666,-7.3093 103.90506,-8.9855 119.9532,-17.0124 236.1119,-67.3448 331.2744,-143.5437 136.3053,-109.1429 224.5513,-264.736 251.0792,-442.6965 2.485,-16.6704 3.9635,-52.86391 3.8998,-95.46602 -0.087,-57.99991 -1.1574,-74.5397 -6.9198,-106.90143 C 1593.3792,688.04167 1528.357,564.15684 1420.0671,459.42514 1317.2272,359.9644 1190.4656,296.75655 1049.0159,274.40575 c -41.7454,-6.5963 -126.49308,-8.942 -170.04883,-4.70672 -298.47222,29.02289 -540.18842,244.20914 -605.20411,538.77892 -9.15233,41.46689 -13.98763,92.37398 -14.02608,147.66939 -0.0548,78.80616 7.3226,124.76256 34.41701,214.39536 4.31521,14.2755 7.51082,32.145 7.46908,41.7664 -0.3634,83.795 -74.79607,145.8824 -152.88548,127.5281 -26.20617,-6.1595 -41.35094,-14.0777 -59.646762,-31.1852 C 62.113341,1283.4268 52.180491,1263.5535 35.177057,1200.7837 13.135868,1119.4165 2.833528,1039.9252 2.6986679,950.18534 2.5305525,838.31666 17.771691,747.10612 54.305917,641.34196 141.72182,388.27873 334.99375,181.53087 582.12738,76.718003 701.97496,25.888951 848.5393,-2.4872157 965.48316,2.4968908 1322.0523,17.693743 1644.6656,238.09907 1788.2031,564.56892 c 86.8384,197.51 104.4387,408.48041 51.4589,616.82318 -92.4603,363.5997 -394.8526,639.5886 -766.5643,699.6315 -19.8082,3.1997 -70.9198,8.5598 -113.58117,11.9114 -42.66138,3.3517 -85.62109,7.3848 -95.46603,8.9625 -123.15073,19.7355 -229.24416,111.0599 -266.82395,229.68 -6.15696,19.4343 -50.89687,231.2158 -50.90129,240.947 -0.003,9.1893 -17.02544,41.4853 -28.63996,54.3411 -31.44678,34.8079 -72.22324,47.4769 -124.54937,38.6969 z"
   id="path17" /><path
   style="fill:#ffffff;stroke:#ffffff;stroke-width:2.98331"
   d="m 940.12499,2496.8347 c -71.63001,-15.5118 -122.65428,-77.9904 -122.88368,-150.4696 -0.22755,-71.8928 41.64267,-130.9595 108.81714,-153.5092 55.32805,-18.573 114.01205,-3.7417 157.51755,39.8097 61.9979,62.0634 64.062,162.9991 4.5466,222.3326 -39.5345,39.4136 -91.43556,54.0852 -147.99761,41.8365 z"
   id="path19" /></svg>
