<?xml version="1.0" encoding="UTF-8" standalone="no"?>
<svg
   xmlns:dc="http://purl.org/dc/elements/1.1/"
   xmlns:cc="http://creativecommons.org/ns#"
   xmlns:rdf="http://www.w3.org/1999/02/22-rdf-syntax-ns#"
   xmlns:svg="http://www.w3.org/2000/svg"
   xmlns="http://www.w3.org/2000/svg"
   xmlns:sodipodi="http://sodipodi.sourceforge.net/DTD/sodipodi-0.dtd"
   xmlns:inkscape="http://www.inkscape.org/namespaces/inkscape"
   version="1.1"
   id="Capa_1"
   x="0px"
   y="0px"
   viewBox="0 0 489.802 489.802"
   style="enable-background:new 0 0 489.802 489.802;"
   xml:space="preserve"
   sodipodi:docname="settings-svgrepo-com.svg"
   inkscape:version="1.0.2 (e86c870879, 2021-01-15)"><metadata
   id="metadata41"><rdf:RDF><cc:Work
       rdf:about=""><dc:format>image/svg+xml</dc:format><dc:type
         rdf:resource="http://purl.org/dc/dcmitype/StillImage" /></cc:Work></rdf:RDF></metadata><defs
   id="defs39" /><sodipodi:namedview
   pagecolor="#ffffff"
   bordercolor="#666666"
   borderopacity="1"
   objecttolerance="10"
   gridtolerance="10"
   guidetolerance="10"
   inkscape:pageopacity="0"
   inkscape:pageshadow="2"
   inkscape:window-width="1920"
   inkscape:window-height="1030"
   id="namedview37"
   showgrid="false"
   inkscape:zoom="1.7129371"
   inkscape:cx="244.901"
   inkscape:cy="268.25271"
   inkscape:window-x="0"
   inkscape:window-y="22"
   inkscape:window-maximized="1"
   inkscape:current-layer="Capa_1" />
<g
   id="g4">
	<path
   d="M20.701,281.901l32.1,0.2c4.8,24.7,14.3,48.7,28.7,70.5l-22.8,22.6c-8.2,8.1-8.2,21.2-0.2,29.4l24.6,24.9   c8.1,8.2,21.2,8.2,29.4,0.2l22.8-22.6c21.6,14.6,45.5,24.5,70.2,29.5l-0.2,32.1c-0.1,11.5,9.2,20.8,20.7,20.9l35,0.2   c11.5,0.1,20.8-9.2,20.9-20.7l0.2-32.1c24.7-4.8,48.7-14.3,70.5-28.7l22.6,22.8c8.1,8.2,21.2,8.2,29.4,0.2l24.9-24.6   c8.2-8.1,8.2-21.2,0.2-29.4l-22.6-22.8c14.6-21.6,24.5-45.5,29.5-70.2l32.1,0.2c11.5,0.1,20.8-9.2,20.9-20.7l0.2-35   c0.1-11.5-9.2-20.8-20.7-20.9l-32.1-0.2c-4.8-24.7-14.3-48.7-28.7-70.5l22.8-22.6c8.2-8.1,8.2-21.2,0.2-29.4l-24.6-24.9   c-8.1-8.2-21.2-8.2-29.4-0.2l-22.8,22.6c-21.6-14.6-45.5-24.5-70.2-29.5l0.2-32.1c0.1-11.5-9.2-20.8-20.7-20.9l-35-0.2   c-11.5-0.1-20.8,9.2-20.9,20.7l-0.3,32.1c-24.8,4.8-48.8,14.3-70.5,28.7l-22.6-22.8c-8.1-8.2-21.2-8.2-29.4-0.2l-24.8,24.6   c-8.2,8.1-8.2,21.2-0.2,29.4l22.6,22.8c-14.6,21.6-24.5,45.5-29.5,70.2l-32.1-0.2c-11.5-0.1-20.8,9.2-20.9,20.7l-0.2,35   C-0.099,272.401,9.201,281.801,20.701,281.901z M179.301,178.601c36.6-36.2,95.5-35.9,131.7,0.7s35.9,95.5-0.7,131.7   s-95.5,35.9-131.7-0.7S142.701,214.801,179.301,178.601z"
   id="path2" />
</g>
<g
   id="g6">
</g>
<g
   id="g8">
</g>
<g
   id="g10">
</g>
<g
   id="g12">
</g>
<g
   id="g14">
</g>
<g
   id="g16">
</g>
<g
   id="g18">
</g>
<g
   id="g20">
</g>
<g
   id="g22">
</g>
<g
   id="g24">
</g>
<g
   id="g26">
</g>
<g
   id="g28">
</g>
<g
   id="g30">
</g>
<g
   id="g32">
</g>
<g
   id="g34">
</g>
<path
   style="fill:#ffffff;stroke:#ffffff;stroke-width:0.583793"
   d="m 221.27155,488.57423 c -6.36165,-1.70953 -11.07206,-5.70769 -13.94626,-11.8375 l -1.53839,-3.28092 -0.18323,-18.56804 c -0.13502,-13.68304 -0.3654,-18.62147 -0.87569,-18.7711 -0.38085,-0.11167 -3.71359,-0.92219 -7.40608,-1.80115 -19.1001,-4.54658 -39.78628,-13.45231 -57.79547,-24.88187 l -4.37844,-2.77878 -12.55154,12.49698 c -15.01025,14.945 -16.31367,15.77365 -24.811187,15.77365 -8.332221,0 -8.998019,-0.45582 -26.608386,-18.21633 -15.876873,-16.01224 -17.198335,-17.76148 -17.989172,-23.81246 -0.21013,-1.60778 -0.213481,-4.23678 -0.0074,-5.84221 0.754382,-5.87816 2.264735,-7.94417 15.814763,-21.63299 L 81.740575,352.5454 77.887252,346.15635 C 66.823343,327.81169 58.389664,306.66606 53.990773,286.24108 l -0.966494,-4.48763 -18.499415,-0.18271 -18.499415,-0.1827 -3.895445,-1.91878 C 5.8566583,276.3792 1.4989178,270.50132 0.68005599,264.02515 0.46656817,262.33673 0.42324964,251.89192 0.58379261,240.81445 l 0.29189631,-20.14084 1.84284818,-3.52414 c 2.1447893,-4.10155 6.1460764,-8.01772 10.0223459,-9.80917 2.592341,-1.19806 3.687647,-1.27032 21.778628,-1.4367 l 19.049006,-0.17519 0.711684,-3.61946 c 1.142269,-5.80932 5.024424,-18.80852 7.880483,-26.38737 3.42771,-9.0958 12.007348,-26.39468 16.891222,-34.05728 2.115653,-3.31938 3.846645,-6.21162 3.846645,-6.42719 0,-0.21558 -5.263807,-5.64363 -11.697353,-12.06234 -6.433541,-6.41871 -12.466646,-12.8613 -13.406891,-14.31686 -2.325198,-3.59956 -3.717869,-9.250823 -3.234038,-13.123271 0.810079,-6.48366 2.500502,-8.734408 18.495708,-24.626492 17.39246,-17.280337 18.438593,-17.983019 26.77256,-17.983019 8.190713,0 9.601913,0.925039 24.519293,16.072295 l 12.55154,12.744963 6.71361,-4.065053 c 12.64323,-7.655407 23.86283,-12.900882 37.81724,-17.680638 7.48459,-2.563671 23.15456,-6.779671 25.19858,-6.779671 0.93469,0 1.04417,-1.425766 1.37852,-17.951623 0.27419,-13.552337 0.58088,-18.666954 1.25145,-20.870586 1.14915,-3.776242 4.57506,-8.2583002 8.14758,-10.6593 5.29825,-3.56082628 6.74709,-3.73301035 29.65903,-3.52474836 19.89389,0.18082877 20.71818,0.23335656 23.9321,1.52506606 4.65819,1.8721758 8.77027,5.758666 11.10245,10.4933883 l 1.91518,3.888124 0.18322,18.582465 c 0.13502,13.694159 0.36538,18.63588 0.87569,18.785516 0.38085,0.111679 3.71359,0.923016 7.40608,1.802971 6.80246,1.621093 17.93979,5.18019 25.39498,8.115336 7.33334,2.887176 22.61478,10.650987 29.77342,15.126545 l 7.00551,4.379817 12.55154,-12.478415 c 15.01126,-14.923791 16.32037,-15.755074 24.81119,-15.755074 8.33222,0 8.99802,0.455811 26.60839,18.216326 15.87687,16.01224 17.19833,17.761475 17.98917,23.812457 0.21013,1.607788 0.21348,4.236781 0.007,5.842211 -0.75455,5.87952 -2.26352,7.94295 -15.83449,21.65285 l -12.76528,12.89596 3.87558,6.3692 c 10.95871,18.00974 19.37561,39.10045 23.90312,59.89541 l 0.97706,4.48764 18.49941,0.1827 18.49941,0.1827 3.88813,1.91518 c 4.77737,2.35319 8.68179,6.50751 10.37875,11.04304 1.16148,3.10434 1.22145,4.3336 1.18947,24.38207 -0.0185,11.6121 -0.25709,21.89188 -0.53014,22.84394 -1.60702,5.60337 -6.07427,11.05048 -11.07779,13.50764 l -3.29344,1.61738 -19.00834,0.17499 -19.00834,0.175 -1.34086,5.95482 c -4.64497,20.62868 -13.95138,42.04492 -27.50903,63.30479 -0.80114,1.25629 -0.36567,1.77723 11.46849,13.71913 6.7657,6.82729 12.86311,13.35422 13.5498,14.50427 1.93718,3.24436 3.20046,8.97392 2.75851,12.51115 -0.81008,6.48366 -2.5005,8.73441 -18.4957,24.6265 -17.39247,17.28033 -18.4386,17.98301 -26.77256,17.98301 -8.13342,0 -9.5194,-0.89465 -24.77573,-15.99278 l -12.8789,-12.74536 -4.25788,2.76016 c -10.56087,6.84605 -25.46958,13.9468 -39.56452,18.84389 -7.34663,2.55247 -23.22519,6.8422 -25.32665,6.8422 -0.9383,0 -1.05153,1.42965 -1.43405,18.10544 -0.29707,12.95069 -0.65239,18.89269 -1.24804,20.87058 -1.73421,5.75855 -7.65297,11.4252 -13.85826,13.26798 -4.24833,1.26161 -40.6227,1.21771 -45.35789,-0.0548 z m 32.97013,-150.86231 c 11.81287,-1.31822 21.19179,-4.00542 31.5248,-9.03232 25.96211,-12.63029 44.40114,-36.28518 50.51591,-64.80534 1.57464,-7.34435 2.18993,-23.32807 1.19212,-30.96837 -2.64151,-20.2263 -11.36149,-38.2266 -25.68283,-53.01599 -15.16141,-15.65692 -34.12997,-25.13288 -55.72064,-27.83589 -7.58953,-0.95016 -22.18497,-0.39951 -29.61932,1.11746 -34.0828,6.95455 -61.78019,32.36607 -71.35231,65.46356 -5.07516,17.54835 -4.78282,37.85185 0.79096,54.93453 2.451,7.51187 6.86929,16.56938 11.49487,23.5645 4.95177,7.48842 16.94016,19.59515 24.39063,24.63141 18.5869,12.56408 41.15292,18.3248 62.46581,15.94645 z"
   id="path43" /></svg>
