<?xml version="1.0" encoding="iso-8859-1"?>
<!-- Generator: Adobe Illustrator 19.0.0, SVG Export Plug-In . SVG Version: 6.00 Build 0)  -->
<svg version="1.1" id="Layer_1" xmlns="http://www.w3.org/2000/svg" xmlns:xlink="http://www.w3.org/1999/xlink" x="0px" y="0px"
	 viewBox="0 0 503.563 503.563" style="enable-background:new 0 0 503.563 503.563;" xml:space="preserve">
<path style="fill:#FF7058;" d="M406.641,490.541c7.314,7.314,18.808,7.314,26.122,0l57.469-57.469
	c7.314-7.314,7.314-18.808,0-26.122l-34.482-34.482l-83.592,83.592L406.641,490.541z"/>
<polygon style="fill:#D8AB53;" points="90.037,57.953 90.037,56.908 90.037,56.908 "/>
<path style="fill:#FFD05C;" d="M32.567,116.467L17.939,48.549L8.535,8.843l39.706,8.359l67.918,15.673l0,0
	c-1.045,6.269-3.135,11.494-8.359,16.718c-5.224,5.224-11.494,7.314-17.763,8.359c1.045,8.359-1.045,17.763-8.359,25.078
	c-3.135,3.135-7.314,5.224-11.494,6.269c-4.18,1.045-8.359,2.09-12.539,1.045c0,6.269-3.135,12.539-8.359,17.763
	C44.061,113.333,38.837,115.422,32.567,116.467z"/>
<path style="fill:#84DBFF;" d="M415,382.916L90.037,57.953l0,0c6.269,0,12.539-3.135,17.763-8.359
	c4.18-4.18,7.314-10.449,8.359-16.718l0,0l323.918,323.918L415,382.916L415,382.916z"/>
<path style="fill:#54C0EB;" d="M57.645,90.345c8.359,1.045,17.763-1.045,25.078-8.359c5.224-5.224,7.314-12.539,7.314-19.853
	c0-1.045,0-3.135,0-4.18L415,382.916l-32.392,32.392L57.645,90.345z"/>
<path style="fill:#84DBFF;" d="M356.486,440.386L32.567,116.467l0,0c6.269-1.045,11.494-3.135,16.718-8.359
	c5.224-5.224,7.314-11.494,8.359-17.763l0,0l324.963,324.963L356.486,440.386z"/>
<polygon style="fill:#334A5E;" points="17.939,48.549 8.535,8.843 48.241,17.202 "/>
<rect x="346.789" y="395.399" transform="matrix(-0.7071 0.7071 -0.7071 -0.7071 979.7654 405.8641)" style="fill:#FFD15C;" width="118.072" height="20.898"/>
<path style="fill:#55BFE9;" d="M440.077,356.794l15.673,15.673L440.077,356.794z"/>
<polygon style="fill:#FFD15C;" points="429.628,397.545 429.628,397.545 455.751,372.467 "/>
<polygon style="fill:#55BFE9;" points="397.237,429.937 397.237,429.937 429.628,397.545 429.628,397.545 "/>
<g>
	<path style="fill:#40596B;" d="M476.649,157.218c-19.853,19.853-44.931,28.212-71.053,26.122l-58.514,58.514l-4.18,4.18
		l-6.269,6.269l-84.637-84.637l11.494-11.494l58.514-58.514c-2.09-25.078,7.314-51.2,26.122-71.053
		c22.988-22.988,55.38-31.347,85.682-24.033l-55.38,56.424l10.449,56.424l56.424,10.449l55.38-55.38
		C506.951,100.794,499.637,133.186,476.649,157.218z"/>
	<path style="fill:#40596B;" d="M98.396,321.267c-25.078-2.09-51.2,7.314-71.053,26.122C4.355,370.378-4.004,403.814,3.31,433.071
		l55.38-54.335l56.424,10.449l10.449,56.424l-55.38,55.38c30.302,7.314,62.694-1.045,85.682-24.033
		c19.853-19.853,28.212-44.931,26.122-71.053l48.065-48.065l9.404-9.404l-84.637-84.637L98.396,321.267z"/>
</g>
<rect x="196.426" y="240.026" transform="matrix(-0.7074 0.7068 -0.7068 -0.7074 560.5087 367.1391)" style="fill:#334A5E;" width="15.673" height="119.117"/>
<g>
</g>
<g>
</g>
<g>
</g>
<g>
</g>
<g>
</g>
<g>
</g>
<g>
</g>
<g>
</g>
<g>
</g>
<g>
</g>
<g>
</g>
<g>
</g>
<g>
</g>
<g>
</g>
<g>
</g>
</svg>
