<?xml version="1.0" encoding="iso-8859-1"?>
<!-- Generator: Adobe Illustrator 19.0.0, SVG Export Plug-In . SVG Version: 6.00 Build 0)  -->
<svg version="1.1" id="Layer_1" xmlns="http://www.w3.org/2000/svg" xmlns:xlink="http://www.w3.org/1999/xlink" x="0px" y="0px"
	 viewBox="0 0 512.084 512.084" style="enable-background:new 0 0 512.084 512.084;" xml:space="preserve">
<circle style="fill:#4AB8A1;" cx="256.042" cy="256" r="256"/>
<path style="fill:#43A691;" d="M508.09,300.608c-0.132-0.428-0.344-0.844-0.664-1.188c-0.008-0.116-0.016-0.236-0.024-0.352
	c-0.048-0.624-0.36-1.228-0.804-1.7c-0.008-0.12-0.016-0.236-0.024-0.356c-0.048-0.624-0.36-1.224-0.804-1.696
	c-0.008-0.12-0.016-0.236-0.024-0.352c-0.048-0.624-0.36-1.228-0.804-1.696c-0.008-0.12-0.016-0.24-0.024-0.352
	c-0.048-0.624-0.36-1.228-0.804-1.696c-0.008-0.124-0.016-0.24-0.024-0.356c-0.048-0.62-0.36-1.224-0.804-1.696
	c-0.008-0.12-0.016-0.24-0.024-0.352c-0.048-0.624-0.36-1.224-0.804-1.696c-0.008-0.12-0.016-0.24-0.024-0.356
	c-0.048-0.62-0.36-1.22-0.804-1.696c-0.008-0.116-0.016-0.236-0.024-0.352c-0.048-0.624-0.36-1.22-0.804-1.692
	c-0.008-0.12-0.016-0.236-0.024-0.356c-0.048-0.624-0.36-1.224-0.804-1.696c-0.008-0.12-0.016-0.236-0.024-0.352
	c-0.048-0.624-0.36-1.228-0.804-1.696c-0.008-0.12-0.016-0.24-0.024-0.36c-0.048-0.62-0.36-1.224-0.804-1.696
	c-0.008-0.116-0.016-0.236-0.024-0.352c-0.048-0.624-0.36-1.224-0.804-1.696c-0.008-0.116-0.016-0.236-0.024-0.352
	c-0.048-0.624-0.36-1.228-0.804-1.696c-0.008-0.12-0.016-0.236-0.024-0.352c-0.048-0.624-0.36-1.228-0.804-1.696
	c-0.008-0.12-0.016-0.24-0.024-0.352c-0.048-0.624-0.36-1.224-0.804-1.696c-0.008-0.116-0.016-0.236-0.024-0.356
	c-0.048-0.62-0.36-1.224-0.804-1.696c-0.008-0.12-0.016-0.24-0.024-0.352c-0.048-0.624-0.356-1.224-0.804-1.7
	c-0.008-0.116-0.016-0.236-0.024-0.352c-0.048-0.62-0.356-1.224-0.804-1.696c-0.008-0.116-0.016-0.236-0.024-0.352
	c-0.048-0.624-0.356-1.224-0.804-1.696c-0.008-0.116-0.016-0.236-0.024-0.352c-0.048-0.624-0.356-1.228-0.804-1.696
	c-0.008-0.12-0.016-0.236-0.024-0.36c-0.044-0.62-0.356-1.22-0.804-1.692c-0.008-0.12-0.016-0.236-0.024-0.352
	c-0.044-0.624-0.356-1.22-0.804-1.692c-0.008-0.12-0.016-0.236-0.024-0.356c-0.044-0.624-0.356-1.224-0.804-1.696
	c-0.008-0.12-0.016-0.236-0.024-0.352c-0.044-0.624-0.356-1.224-0.804-1.696c-0.008-0.12-0.016-0.236-0.024-0.352
	c-0.044-0.624-0.356-1.224-0.804-1.696c-0.008-0.12-0.016-0.236-0.024-0.352c-0.044-0.624-0.356-1.224-0.804-1.696
	c-0.008-0.12-0.016-0.236-0.024-0.352c-0.044-0.624-0.356-1.224-0.804-1.696c-0.008-0.12-0.016-0.236-0.024-0.352
	c-0.044-0.624-0.356-1.224-0.804-1.696c-0.008-0.12-0.016-0.236-0.024-0.352c-0.044-0.624-0.356-1.224-0.804-1.696
	c-0.008-0.12-0.016-0.236-0.024-0.352c-0.044-0.624-0.352-1.22-0.804-1.692c-0.008-0.12-0.016-0.236-0.024-0.356
	c-0.044-0.624-0.352-1.224-0.804-1.696c-0.008-0.12-0.016-0.236-0.024-0.352c-0.044-0.624-0.352-1.224-0.804-1.696
	c-0.008-0.12-0.016-0.236-0.024-0.352c-0.044-0.624-0.352-1.224-0.804-1.696c-0.008-0.12-0.016-0.236-0.024-0.352
	c-0.04-0.624-0.352-1.224-0.804-1.696c-0.008-0.12-0.016-0.236-0.024-0.352c-0.04-0.624-0.352-1.224-0.8-1.696
	c-0.012-0.12-0.02-0.236-0.028-0.352c-0.04-0.624-0.352-1.224-0.8-1.696c-0.008-0.12-0.02-0.236-0.028-0.352
	c-0.04-0.624-0.352-1.22-0.8-1.692c-0.008-0.12-0.016-0.236-0.028-0.356c-0.04-0.624-0.352-1.224-0.8-1.696
	c-0.008-0.12-0.016-0.236-0.024-0.352c-0.044-0.624-0.356-1.224-0.804-1.696c-0.008-0.12-0.016-0.236-0.024-0.352
	c-0.044-0.624-0.356-1.224-0.804-1.696c-0.008-0.12-0.016-0.236-0.024-0.356c-0.044-0.624-0.356-1.224-0.804-1.696
	c-0.008-0.12-0.016-0.236-0.024-0.352c-0.044-0.624-0.356-1.224-0.804-1.696c-0.008-0.12-0.016-0.236-0.024-0.352
	c-0.044-0.624-0.356-1.224-0.804-1.696c-0.008-0.12-0.016-0.236-0.024-0.352c-0.044-0.624-0.356-1.22-0.804-1.692
	c-0.008-0.12-0.016-0.236-0.024-0.356c-0.044-0.624-0.356-1.224-0.804-1.696c-0.008-0.12-0.016-0.236-0.024-0.352
	c-0.044-0.624-0.356-1.224-0.804-1.696c-0.008-0.12-0.016-0.236-0.024-0.352c-0.044-0.624-0.356-1.224-0.804-1.696
	c-0.008-0.12-0.016-0.236-0.024-0.352c-0.044-0.624-0.356-1.224-0.8-1.696c-0.012-0.12-0.02-0.236-0.028-0.352
	c-0.044-0.624-0.356-1.224-0.8-1.696c-0.008-0.12-0.02-0.236-0.028-0.352c-0.044-0.624-0.356-1.224-0.8-1.696
	c-0.008-0.12-0.016-0.236-0.028-0.352c-0.044-0.624-0.356-1.22-0.8-1.692c-0.008-0.12-0.016-0.236-0.024-0.356
	c-0.048-0.624-0.36-1.224-0.804-1.696c-0.008-0.12-0.016-0.236-0.024-0.352c-0.048-0.624-0.36-1.224-0.804-1.696
	c-0.008-0.12-0.016-0.236-0.024-0.352c-0.048-0.624-0.36-1.224-0.804-1.696c-0.008-0.12-0.016-0.236-0.024-0.352
	c-0.048-0.624-0.36-1.224-0.804-1.696c-0.008-0.12-0.016-0.236-0.024-0.352c-0.048-0.624-0.36-1.224-0.804-1.696
	c-0.008-0.12-0.016-0.236-0.024-0.352c-0.048-0.624-0.36-1.224-0.804-1.696c-0.008-0.12-0.016-0.236-0.024-0.352
	c-0.048-0.624-0.36-1.22-0.804-1.692c-0.008-0.12-0.016-0.236-0.024-0.356c-0.048-0.624-0.36-1.224-0.804-1.696
	c-0.008-0.12-0.016-0.236-0.024-0.352c-0.048-0.624-0.36-1.224-0.804-1.696c-0.008-0.12-0.016-0.236-0.024-0.352
	c-0.048-0.624-0.36-1.224-0.804-1.696c-0.008-0.12-0.016-0.236-0.024-0.356c-0.048-0.624-0.36-1.224-0.804-1.696
	c-0.008-0.12-0.016-0.236-0.024-0.352c-0.048-0.624-0.36-1.224-0.804-1.696c-0.008-0.12-0.016-0.236-0.024-0.352
	c-0.048-0.624-0.36-1.224-0.804-1.696c-0.008-0.12-0.016-0.236-0.024-0.352c-0.048-0.624-0.36-1.224-0.804-1.696
	c-0.008-0.12-0.016-0.236-0.024-0.352c-0.048-0.624-0.36-1.22-0.804-1.692c-0.008-0.12-0.016-0.236-0.024-0.356
	c-0.048-0.624-0.36-1.224-0.804-1.696c-0.008-0.12-0.016-0.236-0.024-0.352c-0.048-0.624-0.356-1.224-0.804-1.696
	c-0.008-0.12-0.016-0.236-0.024-0.352c-0.136-1.92-2.66-3.736-4.688-1.704c-4.024,4.024-11.564,11.556-17.056,17.052
	c-0.14-0.444-0.388-0.84-0.716-1.168c0.052-0.784-0.284-1.512-0.828-2.048c0.052-0.788-0.284-1.516-0.828-2.052
	c0.052-0.788-0.284-1.512-0.824-2.048c0.048-0.788-0.288-1.512-0.828-2.048c0.048-0.788-0.288-1.512-0.828-2.048
	c0.048-0.788-0.288-1.512-0.828-2.048c0.048-0.788-0.288-1.512-0.828-2.048c0.048-0.784-0.288-1.512-0.828-2.048
	c0.048-0.788-0.288-1.516-0.828-2.052c0.048-0.788-0.288-1.512-0.828-2.048c0.048-0.788-0.288-1.512-0.828-2.048
	c0.048-0.788-0.284-1.516-0.828-2.052c0.048-0.788-0.288-1.512-0.828-2.048c0.048-0.788-0.288-1.512-0.828-2.048
	c0.048-0.784-0.284-1.512-0.828-2.048c0.048-0.788-0.284-1.516-0.828-2.052c0.048-0.788-0.284-1.512-0.828-2.048
	c0.048-0.788-0.284-1.512-0.828-2.048c0.048-0.788-0.284-1.512-0.828-2.048c0.048-0.788-0.284-1.512-0.828-2.048
	c0.048-0.788-0.284-1.512-0.828-2.048c0.048-0.784-0.284-1.512-0.828-2.048c0.048-0.788-0.284-1.516-0.828-2.052
	c0.048-0.788-0.288-1.512-0.828-2.048c0.048-0.788-0.288-1.512-0.828-2.048c0.048-0.788-0.288-1.512-0.828-2.048
	c0.048-0.788-0.288-1.512-0.828-2.048c0.048-0.788-0.288-1.512-0.828-2.048c0.048-0.784-0.28-1.512-0.828-2.048
	c0.048-0.788-0.28-1.516-0.828-2.052c0.048-0.788-0.28-1.512-0.828-2.048c0.048-0.788-0.28-1.512-0.828-2.048
	c0.048-0.788-0.28-1.516-0.828-2.052c0.048-0.788-0.28-1.512-0.828-2.048c0.048-0.788-0.28-1.512-0.828-2.048
	c0.048-0.788-0.28-1.512-0.828-2.048c0.048-0.784-0.28-1.512-0.828-2.048c0.048-0.788-0.28-1.516-0.828-2.052
	c0.048-0.788-0.288-1.512-0.828-2.048c0.092-1.484-1.2-2.8-2.572-2.9c-18.964-1.344-38.376,5.18-52.876,19.68
	c-38.416,38.42-11.308,67.888-45.252,101.828L265.322,243c-0.156-0.416-0.356-0.812-0.58-1.2c-0.18-0.712-0.456-1.4-0.828-2.048
	c-0.18-0.708-0.452-1.392-0.824-2.04c-0.176-0.716-0.456-1.404-0.832-2.056c-0.176-0.712-0.456-1.4-0.828-2.048
	c-0.176-0.712-0.452-1.396-0.828-2.048c-0.176-0.712-0.452-1.404-0.828-2.052c-0.176-0.712-0.456-1.4-0.828-2.048
	c-0.176-0.712-0.452-1.4-0.828-2.048c-0.176-0.712-0.456-1.4-0.828-2.048c-0.176-0.708-0.452-1.392-0.824-2.04
	c-0.176-0.716-0.456-1.404-0.832-2.056c-0.176-0.712-0.456-1.4-0.828-2.048c-0.34-1.36-1.008-2.656-2.068-3.716
	c-3.112-3.112-8.204-3.112-11.316,0l-2.828,2.828l-2.668-2.668c-0.176-0.66-0.436-1.292-0.784-1.896
	c-0.176-0.716-0.452-1.404-0.828-2.052c-0.176-0.712-0.452-1.4-0.828-2.052c-0.176-0.712-0.452-1.4-0.828-2.048
	c-0.176-0.712-0.452-1.4-0.828-2.052c-0.176-0.708-0.452-1.392-0.824-2.04c-0.176-0.716-0.456-1.404-0.832-2.06
	c-0.176-0.712-0.456-1.4-0.828-2.048c-0.336-1.364-1.008-2.66-2.068-3.72L148.086,114.5l-2.828-2.828
	c-15.62-15.62-40.948-15.62-56.568,0c-11.984,11.984-14.74,29.668-8.332,44.308c0.256,0.688,0.532,1.372,0.828,2.048
	c0.252,0.684,0.528,1.36,0.82,2.032c0.256,0.696,0.536,1.384,0.832,2.064c0.256,0.688,0.532,1.372,0.828,2.048
	c0.256,0.688,0.532,1.372,0.828,2.048c0.256,0.688,0.532,1.372,0.828,2.048c0.256,0.688,0.528,1.368,0.824,2.044
	c0.256,0.692,0.532,1.376,0.832,2.056c0.256,0.688,0.532,1.372,0.828,2.048c0.252,0.684,0.524,1.36,0.82,2.032
	c0.256,0.696,0.536,1.384,0.832,2.068c0.256,0.688,0.532,1.372,0.828,2.048c0.256,0.688,0.532,1.372,0.828,2.048
	c0.256,0.688,0.532,1.372,0.828,2.048c0.256,0.688,0.532,1.372,0.828,2.048c0.256,0.688,0.532,1.372,0.828,2.048
	c0.252,0.68,0.524,1.356,0.816,2.024c0.26,0.7,0.536,1.388,0.836,2.076c0.256,0.688,0.532,1.372,0.828,2.048
	c0.256,0.688,0.532,1.372,0.828,2.048c0.256,0.688,0.532,1.372,0.828,2.048c0.256,0.688,0.532,1.372,0.828,2.048
	c0.256,0.688,0.532,1.372,0.828,2.048c0.252,0.684,0.524,1.36,0.82,2.032c0.256,0.696,0.536,1.384,0.832,2.064
	c0.256,0.688,0.532,1.372,0.828,2.048c0.256,0.688,0.532,1.372,0.828,2.048c0.256,0.688,0.528,1.368,0.824,2.044
	c0.256,0.692,0.536,1.376,0.832,2.056c0.256,0.688,0.532,1.372,0.828,2.048c0.252,0.684,0.528,1.36,0.82,2.032
	c0.256,0.696,0.536,1.384,0.832,2.064c0.256,0.688,0.532,1.372,0.828,2.048c0.256,0.688,0.532,1.372,0.828,2.048
	c0.256,0.688,0.532,1.372,0.828,2.048c0.256,0.688,0.532,1.372,0.828,2.048c0.256,0.688,0.532,1.372,0.828,2.048
	c0.252,0.68,0.524,1.356,0.816,2.024c0.26,0.7,0.536,1.388,0.836,2.076c0.256,0.688,0.532,1.372,0.828,2.048
	c0.256,0.688,0.532,1.372,0.828,2.048c0.256,0.688,0.532,1.372,0.828,2.048c0.256,0.688,0.532,1.372,0.828,2.048
	c0.256,0.688,0.532,1.372,0.828,2.048c0.256,0.688,0.532,1.372,0.828,2.048c0.252,0.684,0.528,1.36,0.82,2.032
	c0.256,0.696,0.536,1.384,0.832,2.064c0.256,0.688,0.528,1.368,0.824,2.044c0.256,0.692,0.532,1.376,0.832,2.056
	c0.256,0.688,0.532,1.372,0.828,2.048c0.256,0.688,0.532,1.372,0.828,2.048c0.256,0.688,0.532,1.372,0.828,2.052
	c0.252,0.68,0.524,1.36,0.82,2.032c0.256,0.696,0.536,1.384,0.832,2.064c0.256,0.688,0.532,1.372,0.828,2.048
	c0.256,0.688,0.532,1.376,0.828,2.048c0.256,0.688,0.532,1.376,0.828,2.052c0.256,0.688,0.528,1.368,0.824,2.044
	c0.256,0.692,0.536,1.376,0.832,2.056c0.252,0.688,0.528,1.36,0.82,2.032c0.256,0.696,0.536,1.388,0.832,2.068
	c0.256,0.688,0.532,1.372,0.828,2.048c0.256,0.692,0.532,1.372,0.828,2.052c0.256,0.688,0.532,1.372,0.828,2.048
	c0.256,0.688,0.532,1.372,0.828,2.048c0.256,0.688,0.532,1.372,0.828,2.048c0.256,0.688,0.528,1.368,0.824,2.048
	c0.256,0.688,0.528,1.364,0.824,2.04c0.256,0.696,0.536,1.384,0.832,2.068c0.256,0.692,0.532,1.372,0.828,2.052
	c0.256,0.688,0.532,1.372,0.828,2.048c0.256,0.688,0.532,1.372,0.828,2.048c0.256,0.688,0.532,1.376,0.828,2.048
	c0.256,0.688,0.532,1.376,0.828,2.048c0.252,0.688,0.528,1.364,0.82,2.036c0.256,0.696,0.536,1.384,0.832,2.064
	c0.256,0.692,0.528,1.372,0.824,2.044c0.256,0.696,0.532,1.38,0.832,2.06c0.256,0.688,0.532,1.372,0.828,2.048
	c0.256,0.688,0.532,1.372,0.828,2.052c0.256,0.688,0.532,1.368,0.828,2.048c0.252,0.684,0.524,1.36,0.82,2.032
	c0.256,0.696,0.536,1.384,0.832,2.064c0.208,0.564,0.416,1.112,0.648,1.664c-6.752,1.68-14.968,6.244-26.612,17.892
	c-15.5,15.5-19.132,38.328-10.976,57.312c0.26,0.688,0.536,1.368,0.828,2.048c0.26,0.684,0.532,1.36,0.82,2.032
	c0.264,0.696,0.54,1.384,0.836,2.072c0.26,0.688,0.536,1.368,0.828,2.048c0.26,0.688,0.536,1.372,0.828,2.048
	c0.26,0.688,0.536,1.372,0.828,2.048c0.26,0.688,0.532,1.368,0.824,2.048c0.26,0.688,0.54,1.376,0.832,2.056
	c0.26,0.688,0.536,1.372,0.828,2.048c0.256,0.684,0.528,1.36,0.82,2.032c0.264,0.696,0.54,1.384,0.832,2.064
	c0.26,0.692,0.536,1.376,0.828,2.052c0.26,0.688,0.536,1.372,0.828,2.048c0.26,0.692,0.536,1.372,0.828,2.052
	c0.26,0.688,0.536,1.372,0.828,2.048c0.26,0.688,0.536,1.372,0.828,2.048c0.26,0.68,0.528,1.356,0.82,2.028
	c0.264,0.7,0.54,1.388,0.836,2.076c0.26,0.688,0.536,1.372,0.828,2.048c0.26,0.688,0.536,1.372,0.828,2.048
	c0.26,0.688,0.536,1.376,0.828,2.048c0.26,0.688,0.536,1.376,0.828,2.052c0.26,0.688,0.536,1.372,0.828,2.048
	c0.256,0.684,0.528,1.364,0.82,2.036c0.264,0.696,0.54,1.384,0.832,2.068c0.26,0.688,0.536,1.372,0.828,2.048
	c0.26,0.688,0.536,1.372,0.828,2.052c0.26,0.688,0.536,1.368,0.828,2.04c0.264,0.696,0.536,1.38,0.832,2.06
	c0.26,0.688,0.536,1.372,0.828,2.048c0.26,0.684,0.532,1.364,0.82,2.036c0.264,0.696,0.54,1.384,0.836,2.068
	c0.26,0.688,0.536,1.372,0.828,2.048c0.26,0.688,0.536,1.372,0.828,2.052c0.26,0.688,0.536,1.368,0.828,2.048
	c0.26,0.688,0.536,1.372,0.828,2.048c0.26,0.688,0.536,1.372,0.828,2.048c0.256,0.68,0.528,1.36,0.816,2.024
	c0.264,0.696,0.54,1.392,0.836,2.08c0.26,0.688,0.536,1.372,0.828,2.048c0.26,0.688,0.536,1.376,0.828,2.048
	c0.056,0.148,0.12,0.296,0.18,0.444c33.268,15.816,70.476,24.692,109.764,24.692C382.198,512,486.962,420.72,508.09,300.608z"/>
<path style="fill:#CCCCCC;" d="M393.794,91.108c-18.964-1.344-38.376,5.18-52.876,19.68
	c-38.416,38.416-11.312,67.888-45.252,101.828l-98.996,98.992c-33.94,33.944-35.124-4.48-73.544,33.932
	c-20.308,20.308-20.312,53.232-0.004,73.536c20.308,20.312,53.236,20.312,73.544,0.008c38.42-38.416,0.004-39.588,33.944-73.532
	l98.996-99c33.94-33.94,69.06-1.184,107.476-39.6c14.5-14.5,15.368-28.252,14.024-47.216c-0.14-1.92-2.664-3.736-4.688-1.704
	c-6.804,6.8-23.672,23.668-23.672,23.668c-5.828,5.832-17.14,8.876-25.116,6.768l-15.748-4.16
	c-3.988-1.052-8.044-3.644-11.368-6.968s-5.916-7.38-6.968-11.368l-4.152-15.74c-2.1-7.976,0.948-19.268,6.78-25.104
	c0,0,22.524-22.524,29.328-29.328C397.534,93.776,395.714,91.244,393.794,91.108z M171.218,416.256l-22.64-0.008L125.95,393.62
	l0.012-22.612l22.628-22.624l22.616-0.016l22.628,22.624l0.012,22.64L171.218,416.256z"/>
<rect x="255.654" y="250.529" transform="matrix(-0.7071 0.7071 -0.7071 -0.7071 651.0309 279.392)" style="fill:#B3B3B3;" width="23.996" height="48"/>
<g>
	
		<rect x="281.769" y="218.727" transform="matrix(0.7071 -0.7071 0.7071 0.7071 -137.9134 300.4918)" style="fill:#E6E6E6;" width="24" height="195.99"/>
	<path style="fill:#E6E6E6;" d="M400.698,399.368c2.644,3.524,2.256,8.944-0.856,12.064l-11.316,11.312
		c-3.108,3.108-8.536,3.5-12.056,0.852l-32.452-24.336c-3.52-2.64-3.856-7.344-0.744-10.456l22.624-22.624
		c3.112-3.112,7.816-2.776,10.46,0.748L400.698,399.368z"/>
</g>
<path style="fill:#F5F5F5;" d="M252.766,213.436c3.108,3.108,3.112,8.2,0,11.312l-50.912,50.912c-3.112,3.112-8.204,3.104-11.316,0
	l0,0c-3.108-3.104-3.112-8.204,0-11.312l50.912-50.912C244.562,210.324,249.654,210.324,252.766,213.436L252.766,213.436z"/>
<rect x="178.333" y="225.222" transform="matrix(0.7071 -0.7071 0.7071 0.7071 -103.308 217.0365)" style="fill:#FFD464;" width="63.999" height="16"/>
<g>
	
		<rect x="174.097" y="226.985" transform="matrix(0.7071 -0.7071 0.7071 0.7071 -101.5523 212.8006)" style="fill:#F2C95F;" width="63.999" height="4"/>
	
		<rect x="182.597" y="235.493" transform="matrix(0.7071 -0.7071 0.7071 0.7071 -105.0795 221.3027)" style="fill:#F2C95F;" width="63.999" height="4"/>
</g>
<rect x="78.437" y="139.333" transform="matrix(0.7071 -0.7071 0.7071 0.7071 -65.2485 125.1432)" style="fill:#FFD464;" width="79.999" height="4"/>
<g>
	<path style="fill:#263740;" d="M148.11,114.44l79.196,79.196c3.112,3.112,3.112,8.204,0,11.312L182.054,250.2
		c-3.112,3.112-8.204,3.112-11.316,0l-79.196-79.192L148.11,114.44z"/>
	<path style="fill:#263740;" d="M88.714,168.18c-15.62-15.62-15.62-40.944,0-56.568s40.948-15.62,56.568,0L88.714,168.18z"/>
</g>
<g>
	<path style="fill:#1E2C33;" d="M187.71,221.92c3.124,3.12,8.188,3.12,11.316,0c3.124-3.124,3.124-8.192,0-11.312l-73.54-73.54
		L114.17,148.38L187.71,221.92z"/>
	<path style="fill:#1E2C33;" d="M170.738,238.892c3.124,3.124,8.192,3.124,11.316,0s3.124-8.188,0-11.312l-73.54-73.54
		l-11.316,11.312L170.738,238.892z"/>
	<path style="fill:#1E2C33;" d="M204.682,204.948c3.124,3.124,8.188,3.124,11.316,0c3.124-3.12,3.124-8.188,0-11.312l-73.54-73.54
		l-11.316,11.312L204.682,204.948z"/>
</g>
<rect x="216.745" y="249.578" transform="matrix(0.7071 -0.7071 0.7071 0.7071 -110.8945 235.4322)" style="fill:#CCCCCC;" width="24" height="4"/>
<g>
</g>
<g>
</g>
<g>
</g>
<g>
</g>
<g>
</g>
<g>
</g>
<g>
</g>
<g>
</g>
<g>
</g>
<g>
</g>
<g>
</g>
<g>
</g>
<g>
</g>
<g>
</g>
<g>
</g>
</svg>
