<?xml version="1.0" encoding="UTF-8" standalone="no"?>
<svg
   xmlns:dc="http://purl.org/dc/elements/1.1/"
   xmlns:cc="http://creativecommons.org/ns#"
   xmlns:rdf="http://www.w3.org/1999/02/22-rdf-syntax-ns#"
   xmlns:svg="http://www.w3.org/2000/svg"
   xmlns="http://www.w3.org/2000/svg"
   xmlns:sodipodi="http://sodipodi.sourceforge.net/DTD/sodipodi-0.dtd"
   xmlns:inkscape="http://www.inkscape.org/namespaces/inkscape"
   version="1.1"
   id="Layer_1"
   x="0px"
   y="0px"
   viewBox="0 0 512 512"
   style="enable-background:new 0 0 512 512;"
   xml:space="preserve"
   sodipodi:docname="transfer-svgrepo-com.svg"
   inkscape:version="1.0.2 (e86c870879, 2021-01-15)"><metadata
   id="metadata47"><rdf:RDF><cc:Work
       rdf:about=""><dc:format>image/svg+xml</dc:format><dc:type
         rdf:resource="http://purl.org/dc/dcmitype/StillImage" /></cc:Work></rdf:RDF></metadata><defs
   id="defs45" /><sodipodi:namedview
   pagecolor="#ffffff"
   bordercolor="#666666"
   borderopacity="1"
   objecttolerance="10"
   gridtolerance="10"
   guidetolerance="10"
   inkscape:pageopacity="0"
   inkscape:pageshadow="2"
   inkscape:window-width="1920"
   inkscape:window-height="1030"
   id="namedview43"
   showgrid="false"
   inkscape:zoom="1.6386719"
   inkscape:cx="256"
   inkscape:cy="256"
   inkscape:window-x="0"
   inkscape:window-y="22"
   inkscape:window-maximized="1"
   inkscape:current-layer="Layer_1" />
<g
   id="g10">
	<g
   id="g8">
		<g
   id="g6">
			<path
   d="M304.909,400.916L277.325,428.5V275.498l27.584,27.584c4.16,4.16,9.621,6.251,15.083,6.251s10.923-2.091,15.083-6.251     c8.341-8.341,8.341-21.824,0-30.165l-63.979-63.979c-1.984-1.984-4.331-3.541-6.955-4.629c-5.205-2.155-11.093-2.155-16.299,0     c-2.624,1.088-4.971,2.645-6.955,4.629l-63.979,63.979c-8.341,8.341-8.341,21.824,0,30.165c8.341,8.341,21.824,8.341,30.165,0     l27.584-27.584V428.5l-27.584-27.584c-8.341-8.341-21.824-8.341-30.165,0c-8.341,8.341-8.341,21.824,0,30.165l63.979,63.979     c1.984,1.984,4.331,3.541,6.955,4.629c2.603,1.067,5.376,1.643,8.149,1.643c2.773,0,5.547-0.576,8.149-1.643     c2.624-1.088,4.971-2.645,6.955-4.629l63.979-63.979c8.341-8.341,8.341-21.824,0-30.165     C326.733,392.575,313.25,392.575,304.909,400.916z"
   id="path2" />
			<path
   d="M446.784,164.78c-9.749-73.387-76.949-154.112-157.76-154.112c-43.328,0-87.381,21.291-116.8,55.445     c-9.408-3.435-19.371-5.205-29.525-5.205c-45.973,0-83.648,36.224-85.952,81.643C22.784,164.438,0,204.865,0,245.334     c0,25.344,8.405,53.461,23.061,77.12c19.413,31.381,55.019,50.88,92.907,50.88h28.651c0.747-0.832,1.323-1.792,2.133-2.581     c12.075-12.096,28.139-18.752,45.248-18.752c-17.109,0-33.173-6.677-45.248-18.752C134.656,321.174,128,305.089,128,288.001     s6.656-33.173,18.752-45.248l63.979-63.979c5.888-5.952,12.949-10.645,20.843-13.909c7.701-3.2,15.957-4.843,24.427-4.843     c8.469,0,16.704,1.643,24.533,4.885c7.787,3.221,14.827,7.915,20.8,13.952l63.915,63.893     C377.344,254.828,384,270.913,384,288.001s-6.656,33.173-18.752,45.248c-12.096,12.075-28.16,18.752-45.248,18.752     c17.088,0,33.152,6.656,45.248,18.752c0.789,0.789,1.365,1.749,2.112,2.581h35.093c55.36,0,103.168-41.216,108.843-93.845     c0.469-4.203,0.704-8.491,0.704-12.821C512,217.686,486.912,179.35,446.784,164.78z"
   id="path4" />
		</g>
	</g>
</g>
<g
   id="g12">
</g>
<g
   id="g14">
</g>
<g
   id="g16">
</g>
<g
   id="g18">
</g>
<g
   id="g20">
</g>
<g
   id="g22">
</g>
<g
   id="g24">
</g>
<g
   id="g26">
</g>
<g
   id="g28">
</g>
<g
   id="g30">
</g>
<g
   id="g32">
</g>
<g
   id="g34">
</g>
<g
   id="g36">
</g>
<g
   id="g38">
</g>
<g
   id="g40">
</g>
<path
   style="fill:#ffffff;stroke:#ffffff;stroke-width:0.61025"
   d="M 105.02842,372.4705 C 72.333926,369.05296 42.983538,351.5417 25.031602,324.74217 20.890202,318.55969 14.177008,305.5788 11.099296,297.80215 3.8812212,279.56376 0.58091642,263.17559 0.57535857,245.54391 0.56941351,226.68397 4.3878342,210.65438 13.130208,192.83909 c 8.880106,-18.09594 21.943677,-33.9166 37.673129,-45.62409 6.548251,-4.87389 6.560191,-4.8875 6.560191,-7.48088 0,-1.42896 0.420744,-4.89399 0.934988,-7.70008 5.47419,-29.8712 26.400143,-54.759046 55.208044,-65.660531 12.43013,-4.703814 29.518,-6.25969 43.02264,-3.917276 4.02765,0.698607 9.17759,1.870343 11.44431,2.603858 l 4.1213,1.333664 7.42073,-7.457239 c 28.25856,-28.397602 63.81875,-45.116976 101.1996,-47.58112 32.96921,-2.1733295 66.62522,9.438711 96.41954,33.2668 7.2558,5.802842 21.91947,20.619088 28.31325,28.60784 20.16342,25.193341 34.44154,55.393554 39.64891,83.862984 0.88677,4.84814 1.70487,7.75297 2.26081,8.02751 0.47916,0.23663 4.57846,2.23441 9.10957,4.43952 18.64464,9.0736 33.0337,23.44318 42.66391,42.60614 8.61444,17.14171 12.28063,33.2075 12.2907,53.8596 0.007,14.23356 -1.23917,22.44907 -5.20072,34.288 -10.73294,32.07491 -38.98366,58.45445 -73.12677,68.28322 -12.81064,3.6878 -21.73375,4.57105 -46.17928,4.57105 h -18.77208 l -4.07817,-3.94005 c -4.88841,-4.72286 -10.81405,-8.7579 -17.18223,-11.70019 -4.81966,-2.22681 -14.80247,-5.06269 -18.18848,-5.16691 -1.05186,-0.0324 0.55473,-0.56873 3.58719,-1.19759 9.41008,-1.95141 16.63766,-5.03082 24.45849,-10.42085 5.21313,-3.59284 13.11599,-11.60285 16.70565,-16.93217 12.29192,-18.24896 14.24433,-42.85084 4.97106,-62.63946 -4.95219,-10.56769 -6.19356,-11.97352 -43.96804,-49.79246 -19.65201,-19.67514 -37.65322,-37.20697 -40.00268,-38.95962 -5.458,-4.07153 -15.09925,-8.76041 -21.35876,-10.38751 -18.70178,-4.86133 -37.27704,-1.76743 -53.54514,8.9185 -3.2828,2.15635 -13.68433,12.15382 -40.20163,38.63994 -19.67515,19.65201 -37.20697,37.65322 -38.95962,40.00268 -3.91682,5.25061 -8.70771,14.95737 -10.35129,20.97266 -4.91971,18.00545 -1.71049,38.049 8.52524,53.24527 3.58966,5.32932 11.49252,13.33933 16.70565,16.93217 7.85243,5.41181 14.89533,8.38876 24.76362,10.46727 2.99438,0.63069 4.3818,1.11732 3.28206,1.15117 -3.34909,0.10308 -13.34687,2.92996 -18.05396,5.10477 -6.06023,2.8 -13.08751,7.60512 -17.64741,12.06699 l -3.71527,3.63539 -16.86954,-0.0811 c -9.27825,-0.0446 -19.17433,-0.32201 -21.9913,-0.61647 z"
   id="path49" /><path
   style="fill:#ffffff;stroke:#ffffff;stroke-width:0.61025"
   d="m 252.78169,500.58304 c -6.91762,-1.02541 -7.29698,-1.35352 -43.84488,-37.92103 -38.88877,-38.90963 -37.6961,-37.44011 -37.7163,-46.47131 -0.0131,-5.84262 1.70062,-10.18001 5.76361,-14.58783 5.44996,-5.91251 14.60428,-8.06349 22.2626,-5.231 3.37285,1.24746 4.8895,2.57518 19.23813,16.84159 8.56715,8.51806 15.77573,15.48737 16.01907,15.48737 0.24334,0 0.44244,-34.46388 0.44244,-76.58641 0,-42.12252 -0.19884,-76.58641 -0.44187,-76.58641 -0.24302,0 -7.17699,6.71315 -15.40881,14.91812 -17.47465,17.41763 -18.79348,18.30614 -27.17196,18.30614 -6.02295,0 -10.42847,-1.81847 -14.66207,-6.05206 -4.24554,-4.24554 -6.05552,-8.64128 -6.03723,-14.66207 0.0276,-9.08655 -1.54454,-7.14354 37.42551,-46.25395 39.4449,-39.58696 38.19751,-38.57084 47.35007,-38.57084 9.15256,0 7.90517,-1.01612 47.35007,38.57084 38.97005,39.11041 37.3979,37.1674 37.42551,46.25395 0.0183,6.02079 -1.79169,10.41653 -6.03723,14.66207 -4.2336,4.23359 -8.63912,6.05206 -14.66207,6.05206 -8.37848,0 -9.69731,-0.88851 -27.17195,-18.30614 -8.23183,-8.20497 -15.1658,-14.91812 -15.40882,-14.91812 -0.24303,0 -0.44187,34.46389 -0.44187,76.58641 0,42.12253 0.19447,76.58641 0.43216,76.58641 0.23768,0 7.44626,-6.96574 16.01907,-15.47943 14.32604,-14.22726 15.88309,-15.58962 19.24841,-16.8416 4.58309,-1.70502 11.28342,-1.52108 15.66858,0.43014 6.25429,2.78291 11.56062,9.98678 12.41945,16.86064 0.54332,4.34859 -0.97457,10.18723 -3.66951,14.11488 -1.15148,1.67819 -17.00276,17.91878 -35.22507,36.0902 -35.29326,35.19471 -35.80924,35.63814 -42.68935,36.68758 -1.79156,0.27327 -4.70562,0.28218 -6.47569,0.0198 z"
   id="path51" /></svg>
